<?xml version='1.0' encoding='iso-8859-1'?>
<!DOCTYPE svg PUBLIC '-//W3C//DTD SVG 1.1//EN' 'http://www.w3.org/Graphics/SVG/1.1/DTD/svg11.dtd'>
<svg version="1.1" xmlns="http://www.w3.org/2000/svg" viewBox="0 0 250.152 250.152" xmlns:xlink="http://www.w3.org/1999/xlink" enable-background="new 0 0 250.152 250.152">
  <g>
    <path d="m243.152,37.497h-236.152c-3.866,0-7,3.134-7,7v23.899c0,3.866 3.134,7 7,7 3.866,0 7-3.134 7-7v-16.899h170.488v12.594c0,3.866 3.134,7 7,7s7-3.134 7-7v-12.594h37.664v66.579h-121.284v-23.703c0-3.866-3.134-7-7-7s-7,3.134-7,7v61.406c0,3.866 3.134,7 7,7s7-3.134 7-7v-23.703h121.284v66.579h-37.664v-12.594c0-3.866-3.134-7-7-7s-7,3.134-7,7v12.594h-170.488v-90.755c0-3.866-3.134-7-7-7-3.866,0-7,3.134-7,7v97.755c0,3.866 3.134,7 7,7h236.152c3.866,0 7-3.134 7-7v-161.158c0-3.866-3.133-7-7-7z"/>
  </g>
</svg>
