<?xml version='1.0' encoding='iso-8859-1'?>
<!DOCTYPE svg PUBLIC '-//W3C//DTD SVG 1.1//EN' 'http://www.w3.org/Graphics/SVG/1.1/DTD/svg11.dtd'>
<svg version="1.1" xmlns="http://www.w3.org/2000/svg" viewBox="0 0 252.422 252.422" xmlns:xlink="http://www.w3.org/1999/xlink" enable-background="new 0 0 252.422 252.422">
  <g>
    <path d="m251.692,73.198l-16-32.243c-1.182-2.382-3.611-3.889-6.271-3.889h-205.421c-2.597,0-4.98,1.438-6.192,3.735l-17,32.243c-1.144,2.17-1.068,4.78 0.198,6.88 1.267,2.102 3.541,3.385 5.994,3.385h19.849v125.046c0,3.866 3.134,7 7,7h184.725c3.866,0 7-3.134 7-7v-125.046h19.849c2.422,0 4.673-1.252 5.949-3.311s1.397-4.63 0.32-6.8zm-53.996-22.132l8.262,18.243h-160.21l7.304-18.243h144.644zm-169.473,0h9.748l-7.304,18.243h-12.063l9.619-18.243zm183.35,150.289h-170.724v-118.046h170.725v118.046zm9.753-132.046l-8.261-18.243h12.015l9.053,18.243h-12.807z"/>
  </g>
</svg>
