<?xml version='1.0' encoding='iso-8859-1'?>
<!DOCTYPE svg PUBLIC '-//W3C//DTD SVG 1.1//EN' 'http://www.w3.org/Graphics/SVG/1.1/DTD/svg11.dtd'>
<svg version="1.1" xmlns="http://www.w3.org/2000/svg" viewBox="0 0 232.312 232.312" xmlns:xlink="http://www.w3.org/1999/xlink" enable-background="new 0 0 232.312 232.312">
  <g>
    <path d="m189.833,0h-147.355c-3.866,0-7,3.134-7,7v218.312c0,3.866 3.134,7 7,7h147.355c3.866,0 7-3.134 7-7v-218.312c0-3.866-3.133-7-7-7zm-7,218.312h-133.355v-204.312h133.355v204.312z"/>
    <path d="m86.761,101.902h-9.162c-3.866,0-7,3.134-7,7s3.134,7 7,7h9.162c3.866,0 7-3.134 7-7s-3.134-7-7-7z"/>
    <path d="m110.811,115.902h9.162c3.866,0 7-3.134 7-7s-3.134-7-7-7h-9.162c-3.866,0-7,3.134-7,7s3.134,7 7,7z"/>
    <path d="m153.186,101.902h-9.162c-3.866,0-7,3.134-7,7s3.134,7 7,7h9.162c3.866,0 7-3.134 7-7s-3.134-7-7-7z"/>
    <path d="m86.761,124.808h-9.162c-3.866,0-7,3.134-7,7s3.134,7 7,7h9.162c3.866,0 7-3.134 7-7s-3.134-7-7-7z"/>
    <path d="m110.811,138.808h9.162c3.866,0 7-3.134 7-7s-3.134-7-7-7h-9.162c-3.866,0-7,3.134-7,7s3.134,7 7,7z"/>
    <path d="m153.186,124.808h-9.162c-3.866,0-7,3.134-7,7s3.134,7 7,7h9.162c3.866,0 7-3.134 7-7s-3.134-7-7-7z"/>
    <path d="m86.761,147.712h-9.162c-3.866,0-7,3.134-7,7s3.134,7 7,7h9.162c3.866,0 7-3.134 7-7s-3.134-7-7-7z"/>
    <path d="m110.811,161.712h9.162c3.866,0 7-3.134 7-7s-3.134-7-7-7h-9.162c-3.866,0-7,3.134-7,7s3.134,7 7,7z"/>
    <path d="m153.186,147.712h-9.162c-3.866,0-7,3.134-7,7s3.134,7 7,7h9.162c3.866,0 7-3.134 7-7s-3.134-7-7-7z"/>
    <path d="m86.761,170.618h-9.162c-3.866,0-7,3.134-7,7s3.134,7 7,7h9.162c3.866,0 7-3.134 7-7s-3.134-7-7-7z"/>
    <path d="m153.186,170.618h-42.375c-3.866,0-7,3.134-7,7s3.134,7 7,7h42.375c3.866,0 7-3.134 7-7s-3.134-7-7-7z"/>
    <path d="m73.781,62.458h79.404c3.866,0 7-3.134 7-7s-3.134-7-7-7h-79.404c-3.866,0-7,3.134-7,7s3.134,7 7,7z"/>
  </g>
</svg>
