<?xml version='1.0' encoding='iso-8859-1'?>
<!DOCTYPE svg PUBLIC '-//W3C//DTD SVG 1.1//EN' 'http://www.w3.org/Graphics/SVG/1.1/DTD/svg11.dtd'>
<svg version="1.1" xmlns="http://www.w3.org/2000/svg" viewBox="0 0 269.125 269.125" xmlns:xlink="http://www.w3.org/1999/xlink" enable-background="new 0 0 269.125 269.125">
  <g>
    <path d="m262.125,54.661h-255.125c-3.866,0-7,3.134-7,7v145.804c0,3.866 3.134,7 7,7h255.125c3.866,0 7-3.134 7-7v-145.804c0-3.867-3.134-7-7-7zm-7,145.803h-241.125v-131.803h241.125v131.803z"/>
    <path d="m41.507,102.96h186.111c3.866,0 7-3.134 7-7s-3.134-7-7-7h-186.111c-3.866,0-7,3.134-7,7s3.134,7 7,7z"/>
    <path d="m41.507,125.458h186.111c3.866,0 7-3.134 7-7s-3.134-7-7-7h-186.111c-3.866,0-7,3.134-7,7s3.134,7 7,7z"/>
    <path d="m41.507,147.955h186.111c3.866,0 7-3.134 7-7s-3.134-7-7-7h-186.111c-3.866,0-7,3.134-7,7s3.134,7 7,7z"/>
    <path d="m229.176,170.851h-36.901c-3.866,0-7,3.134-7,7s3.134,7 7,7h36.901c3.866,0 7-3.134 7-7s-3.134-7-7-7z"/>
  </g>
</svg>
