<?xml version='1.0' encoding='iso-8859-1'?>
<!DOCTYPE svg PUBLIC '-//W3C//DTD SVG 1.1//EN' 'http://www.w3.org/Graphics/SVG/1.1/DTD/svg11.dtd'>
<svg version="1.1" xmlns="http://www.w3.org/2000/svg" viewBox="0 0 226 226" xmlns:xlink="http://www.w3.org/1999/xlink" enable-background="new 0 0 226 226">
  <g>
    <path d="m86.839,93.242l-29.667-29.666c-2.733-2.733-7.166-2.733-9.899,0-2.734,2.734-2.734,7.166 0,9.899l29.667,29.667c10.118,10.118 26.111,10.93 37.201,1.887 5.501-4.486 13.436-4.083 18.455,0.936l24.18,24.18h-7.7c-3.866,0-7,3.134-7,7s3.134,7 7,7h24.703c3.866,0 7-3.134 7-7v-24.703c0-3.866-3.134-7-7-7s-7,3.134-7,7v7.907l-24.283-24.283c-10.117-10.118-26.111-10.93-37.201-1.887-5.503,4.486-13.436,4.082-18.456-0.937z"/>
    <path d="m35.256,171.139c0,3.866 3.134,7 7,7h141.487c3.866,0 7-3.134 7-7s-3.134-7-7-7h-141.487c-3.866,0-7,3.134-7,7z"/>
    <path d="m183.744,184.567h-141.488c-3.866,0-7,3.134-7,7s3.134,7 7,7h141.487c3.866,0 7-3.134 7-7s-3.133-7-6.999-7z"/>
    <path d="M210.12,39.812L115.688,0.537c-1.721-0.716-3.655-0.716-5.376,0L15.88,39.812c-2.611,1.086-4.312,3.636-4.312,6.463V219   c0,3.866,3.134,7,7,7h188.864c3.866,0,7-3.134,7-7V46.276C214.432,43.448,212.731,40.898,210.12,39.812z M200.432,212H25.568   V50.946L113,14.582l87.432,36.364V212z"/>
  </g>
</svg>
