<?xml version='1.0' encoding='iso-8859-1'?>
<!DOCTYPE svg PUBLIC '-//W3C//DTD SVG 1.1//EN' 'http://www.w3.org/Graphics/SVG/1.1/DTD/svg11.dtd'>
<svg version="1.1" xmlns="http://www.w3.org/2000/svg" viewBox="0 0 302 302" xmlns:xlink="http://www.w3.org/1999/xlink" enable-background="new 0 0 302 302">
  <g>
    <path d="m295,59.886h-288c-3.866,0-7,3.134-7,7v168.229c0,3.866 3.134,7 7,7h26c3.866,0 7-3.134 7-7v-35.229h34.333v7c0,9.246 6.422,17.001 15.034,19.093 0.722,3.097 3.494,5.407 6.811,5.407h14.5c3.109,0 5.741-2.028 6.654-4.833h67.336c0.913,2.805 3.545,4.833 6.654,4.833h14.5c3.317,0 6.089-2.31 6.811-5.407 8.612-2.091 15.034-9.847 15.034-19.093v-7h34.333v35.229c0,3.866 3.134,7 7,7h26c3.866,0 7-3.134 7-7v-168.229c0-3.866-3.134-7-7-7zm-81.333,147c0,3.125-2.542,5.667-5.667,5.667h-114c-3.125,0-5.667-2.542-5.667-5.667v-7h10.124c0.595,3.132 3.343,5.501 6.648,5.501s6.053-2.369 6.649-5.501h78.492c0.596,3.132 3.344,5.501 6.649,5.501s6.053-2.369 6.648-5.501h10.124v7zm7-21h-139.334-41.333v-5.333h222v5.333h-41.333zm41.333-44v5.333h-222v-5.333h222zm0,19.333v5.333h-222v-5.333h222zm0-38.666v5.333h-222v-5.333h222zm0-14h-222v-5.667h222v5.667zm26,119.561h-12v-132.228c0-3.866-3.134-7-7-7h-236c-3.866,0-7,3.134-7,7v132.229h-12v-154.229h274v154.228z"/>
  </g>
</svg>
