<?xml version='1.0' encoding='iso-8859-1'?>
<!DOCTYPE svg PUBLIC '-//W3C//DTD SVG 1.1//EN' 'http://www.w3.org/Graphics/SVG/1.1/DTD/svg11.dtd'>
<svg version="1.1" xmlns="http://www.w3.org/2000/svg" viewBox="0 0 245.957 245.957" xmlns:xlink="http://www.w3.org/1999/xlink" enable-background="new 0 0 245.957 245.957">
  <g>
    <path d="M199.105,0H168.45c-3.441,0-6.296,2.485-6.883,5.756H84.39C83.802,2.485,80.948,0,77.507,0H46.852c-3.866,0-7,3.134-7,7   v58.554c0,3.866,3.134,7,7,7h30.655c3.441,0,6.296-2.485,6.883-5.756h9.774v163.937c0,8.394,6.829,15.223,15.223,15.223h27.184   c8.394,0,15.223-6.829,15.223-15.223V66.797h9.774c0.588,3.272,3.442,5.756,6.883,5.756h30.655c3.866,0,7-3.134,7-7V7   C206.105,3.134,202.972,0,199.105,0z M136.57,231.957h-27.184c-0.674,0-1.223-0.548-1.223-1.223V66.797h29.629v163.937   C137.793,231.409,137.244,231.957,136.57,231.957z M84.507,19.756h76.943v33.041H84.507V19.756z M53.852,14h15.378v44.554H53.852   V14z M192.105,58.554h-15.378V14h15.378V58.554z"/>
  </g>
</svg>
