<?xml version='1.0' encoding='iso-8859-1'?>
<!DOCTYPE svg PUBLIC '-//W3C//DTD SVG 1.1//EN' 'http://www.w3.org/Graphics/SVG/1.1/DTD/svg11.dtd'>
<svg version="1.1" xmlns="http://www.w3.org/2000/svg" viewBox="0 0 280.088 280.088" xmlns:xlink="http://www.w3.org/1999/xlink" enable-background="new 0 0 280.088 280.088">
  <g>
    <path d="m237.969,101.886l-93.71-70.666c-2.494-1.882-5.935-1.882-8.429,0l-93.71,70.666c-1.754,1.323-2.786,3.392-2.786,5.589v118.977c0,3.866 3.134,7 7,7h187.421c3.866,0 7-3.134 7-7v-118.977c-0.001-2.197-1.032-4.266-2.786-5.589zm-86.461,117.565h-22.928v-50.76h22.928v50.76zm75.246,0h-61.247v-57.76c0-3.866-3.134-7-7-7h-36.927c-3.866,0-7,3.134-7,7v57.76h-61.247v-108.487l86.71-65.387 86.71,65.387v108.487z"/>
    <path d="m50.548,83.255l89.496-67.487 89.496,67.487c1.262,0.952 2.741,1.412 4.209,1.412 2.122,0 4.218-0.961 5.594-2.786 2.328-3.086 1.712-7.476-1.375-9.803l-93.71-70.666c-2.494-1.882-5.935-1.882-8.429,0l-93.71,70.666c-3.087,2.328-3.702,6.717-1.375,9.803 2.328,3.086 6.716,3.701 9.804,1.374z"/>
    <path d="m216.981,239.335c-2.733-2.733-7.166-2.733-9.899,0-2.734,2.733-2.734,7.166 0,9.899l2.452,2.452h-138.979l2.452-2.452c2.734-2.733 2.734-7.166 0-9.899-2.733-2.733-7.166-2.733-9.899,0l-14.401,14.401c-2.734,2.733-2.734,7.166 0,9.899l14.401,14.402c1.367,1.367 3.158,2.05 4.95,2.05 1.791,0 3.583-0.684 4.95-2.05 2.734-2.733 2.734-7.166 0-9.899l-2.452-2.452h138.979l-2.452,2.452c-2.734,2.734-2.734,7.166 0,9.899 1.367,1.367 3.158,2.05 4.95,2.05s3.583-0.684 4.95-2.05l14.401-14.402c2.734-2.734 2.734-7.166 0-9.899l-14.403-14.401z"/>
  </g>
</svg>
