<?xml version='1.0' encoding='iso-8859-1'?>
<!DOCTYPE svg PUBLIC '-//W3C//DTD SVG 1.1//EN' 'http://www.w3.org/Graphics/SVG/1.1/DTD/svg11.dtd'>
<svg version="1.1" xmlns="http://www.w3.org/2000/svg" viewBox="0 0 233.451 233.451" xmlns:xlink="http://www.w3.org/1999/xlink" enable-background="new 0 0 233.451 233.451">
  <g>
    <path d="m214.651,101.886l-93.711-70.666c-2.494-1.882-5.935-1.882-8.429,0l-93.71,70.666c-1.754,1.323-2.786,3.392-2.786,5.589v118.977c0,3.866 3.134,7 7,7h187.421c3.866,0 7-3.134 7-7v-118.977c2.84217e-14-2.197-1.031-4.266-2.785-5.589zm-11.215,117.565h-173.421v-108.487l86.71-65.387 86.71,65.387v108.487z"/>
    <path d="m27.23,83.255l89.496-67.487 89.496,67.487c1.262,0.952 2.741,1.412 4.209,1.412 2.122,0 4.218-0.961 5.594-2.786 2.328-3.086 1.712-7.476-1.375-9.803l-93.71-70.667c-2.494-1.882-5.935-1.882-8.429-1.33227e-15l-93.71,70.666c-3.087,2.328-3.702,6.717-1.375,9.803 2.327,3.087 6.716,3.702 9.804,1.375z"/>
    <path d="m89.824,109.028v18.83c-7.158,1.061-12.674,7.228-12.674,14.677v48.445c0,8.191 6.665,14.856 14.856,14.856h49.439c8.191,0 14.856-6.665 14.856-14.856v-48.445c0-8.191-6.665-14.855-14.856-14.855h-37.621v-18.651c0-7.114 5.788-12.901 12.901-12.901s12.901,5.788 12.901,12.901v7.788c0,3.866 3.134,7 7,7s7-3.134 7-7v-7.788c0-14.833-12.068-26.901-26.901-26.901s-26.901,12.067-26.901,26.9zm52.477,33.507v48.445c0,0.472-0.384,0.856-0.856,0.856h-49.439c-0.472,0-0.856-0.384-0.856-0.856v-48.445c0-0.472 0.384-0.855 0.856-0.855h49.439c0.473-0.001 0.856,0.383 0.856,0.855z"/>
  </g>
</svg>
