<?xml version='1.0' encoding='iso-8859-1'?>
<!DOCTYPE svg PUBLIC '-//W3C//DTD SVG 1.1//EN' 'http://www.w3.org/Graphics/SVG/1.1/DTD/svg11.dtd'>
<svg version="1.1" xmlns="http://www.w3.org/2000/svg" viewBox="0 0 278.348 278.348" xmlns:xlink="http://www.w3.org/1999/xlink" enable-background="new 0 0 278.348 278.348">
  <g>
    <path d="m252.79,70.826l-48.173-40.117c-2.596-2.162-6.363-2.161-8.959,0l-48.174,40.117c-1.597,1.33-2.521,3.301-2.521,5.379v195.143c0,3.866 3.134,7 7,7h96.347c3.866,0 7-3.134 7-7v-195.143c0.001-2.078-0.923-4.05-2.52-5.379zm-11.479,193.522h-82.347v-184.863l41.174-34.288 41.173,34.288v184.863z"/>
    <path d="m151.968,54.117c1.579,0 3.167-0.531 4.476-1.621l43.694-36.387 43.693,36.387c2.972,2.475 7.386,2.072 9.858-0.899 2.474-2.971 2.071-7.385-0.899-9.858l-48.173-40.118c-2.596-2.162-6.363-2.161-8.959-2.22045e-15l-48.174,40.117c-2.971,2.474-3.373,6.888-0.899,9.858 1.385,1.663 3.376,2.521 5.383,2.521z"/>
    <path d="m130.863,151.333l-48.173-40.118c-2.596-2.161-6.363-2.161-8.959,0l-48.173,40.117c-1.597,1.33-2.521,3.301-2.521,5.379v114.636c0,3.866 3.134,7 7,7h96.347c3.866,0 7-3.134 7-7v-114.635c0-2.079-0.924-4.05-2.521-5.379zm-11.479,113.015h-82.347v-104.357l41.173-34.288 41.174,34.288v104.357z"/>
    <path d="m34.517,133.003l43.693-36.387 43.694,36.387c1.309,1.09 2.896,1.622 4.476,1.621 2.007,0 3.999-0.858 5.383-2.521 2.474-2.971 2.071-7.385-0.899-9.858l-48.174-40.117c-2.596-2.161-6.363-2.161-8.959,0l-48.173,40.117c-2.971,2.474-3.373,6.888-0.899,9.858 2.473,2.972 6.886,3.374 9.858,0.9z"/>
    <path d="m71.21,166.391v51.9l-3.188-3.188c-2.734-2.733-7.166-2.733-9.9,0-2.733,2.733-2.733,7.166 0,9.899l13.793,13.792c1.735,1.735 4.015,2.602 6.295,2.602s4.561-0.868 6.298-2.603l13.791-13.791c2.733-2.733 2.733-7.166 0-9.899-2.734-2.733-7.166-2.733-9.9,0l-3.188,3.188v-51.901c0-3.866-3.134-7-7-7s-7.001,3.135-7.001,7.001z"/>
    <path d="m193.84,149.149l-13.791,13.791c-2.733,2.733-2.733,7.166 0,9.899 2.734,2.733 7.166,2.733 9.9,0l3.188-3.188v51.901c0,3.866 3.134,7 7,7s7-3.134 7-7v-51.9l3.188,3.188c1.367,1.367 3.159,2.05 4.95,2.05s3.583-0.684 4.95-2.05c2.733-2.733 2.733-7.166 0-9.899l-13.793-13.792c-3.47-3.472-9.117-3.471-12.592,0z"/>
  </g>
</svg>
