<?xml version='1.0' encoding='iso-8859-1'?>
<!DOCTYPE svg PUBLIC '-//W3C//DTD SVG 1.1//EN' 'http://www.w3.org/Graphics/SVG/1.1/DTD/svg11.dtd'>
<svg version="1.1" xmlns="http://www.w3.org/2000/svg" viewBox="0 0 308 308" xmlns:xlink="http://www.w3.org/1999/xlink" enable-background="new 0 0 308 308">
  <g>
    <path d="m301,243.537h-11.085v-63.233c0-3.866-3.134-7-7-7h-49.468v-40.85l6.898,5.735c2.973,2.473 7.387,2.064 9.857-0.908 2.472-2.973 2.064-7.386-0.908-9.857l-90.634-75.344c-2.59-2.152-6.345-2.156-8.938-0.009l-91.006,75.343c-2.978,2.465-3.394,6.878-0.928,9.856 1.384,1.672 3.382,2.536 5.396,2.536 1.572,0 3.154-0.527 4.46-1.608l6.909-5.72v40.826h-49.468c-3.866,0-7,3.134-7,7v63.233h-11.085c-3.866,0-7,3.134-7,7s3.134,7 7,7h76 32.801 21.799 32.8 21.799 32.801 76c3.866,0 7-3.134 7-7s-3.134-7-7-7zm-123.6,0v-8.464c0-12.903-10.497-23.4-23.4-23.4s-23.4,10.498-23.4,23.4v8.464h-7.799v-8.464c0-12.903-10.497-23.4-23.4-23.4s-23.401,10.497-23.401,23.4v8.464h-43.915v-30.188l39.898-26.045h164.034l39.898,26.045v30.188h-43.915v-8.464c0-12.903-10.497-23.4-23.4-23.4s-23.4,10.498-23.4,23.4v8.464h-7.8zm-32.8-0v-8.464c0-5.184 4.217-9.4 9.4-9.4s9.4,4.217 9.4,9.4v8.464h-18.8zm-54.6,0v-8.464c0-5.184 4.217-9.4 9.4-9.4s9.4,4.217 9.4,9.4v8.464h-18.8zm-1.447-116.711h8.98 112.934 8.98v46.478h-130.894v-46.478zm187.362,69.804l-14.286-9.326h14.286v9.326zm-229.544-9.326l-14.286,9.326v-9.326h14.286zm152.828,47.769c0-5.184 4.217-9.4 9.4-9.4s9.4,4.217 9.4,9.4v8.464h-18.801v-8.464zm-45.021-168.515l55.659,46.269h-111.546l55.887-46.269z"/>
    <path d="m125,138.536c-3.866,0-7,3.134-7,7v9.059c0,3.866 3.134,7 7,7s7-3.134 7-7v-9.059c0-3.866-3.134-7-7-7z"/>
    <path d="m154,106.134c3.866,0 7-3.134 7-7v-9.059c0-3.866-3.134-7-7-7s-7,3.134-7,7v9.059c0,3.866 3.134,7 7,7z"/>
    <path d="m183,138.536c-3.866,0-7,3.134-7,7v9.059c0,3.866 3.134,7 7,7s7-3.134 7-7v-9.059c0-3.866-3.134-7-7-7z"/>
  </g>
</svg>
