<?xml version='1.0' encoding='iso-8859-1'?>
<!DOCTYPE svg PUBLIC '-//W3C//DTD SVG 1.1//EN' 'http://www.w3.org/Graphics/SVG/1.1/DTD/svg11.dtd'>
<svg version="1.1" xmlns="http://www.w3.org/2000/svg" viewBox="0 0 269.434 269.434" xmlns:xlink="http://www.w3.org/1999/xlink" enable-background="new 0 0 269.434 269.434">
  <g>
    <path d="m46.11,178.366h67.012c3.866,0 7-3.134 7-7v-37.481c0-3.866-3.134-7-7-7h-67.012c-3.866,0-7,3.134-7,7v37.481c0,3.867 3.134,7 7,7zm7-37.481h53.012v23.481h-53.012v-23.481z"/>
    <path d="m262.434,85.633h-60.107v-11.68h19.107c3.866,0 7-3.134 7-7v-43.5c0-3.866-3.134-7-7-7h-167c-3.866,0-7,3.134-7,7v43.5c0,3.866 3.134,7 7,7h19.107v11.68h-66.541c-3.866,0-7,3.134-7,7v153.348c0,3.866 3.134,7 7,7h255.434c3.866,0 7-3.134 7-7v-153.348c5.68434e-14-3.866-3.134-7-7-7zm-201-55.18h153v29.5h-153v-29.5zm26.107,43.5h100.786v11.68h-100.786v-11.68zm127.297,127.895h-24.617v-60.963h24.617v60.963zm-33.704,14h42.79v4.172h-42.79v-4.172zm-8.365,18.172h1.365 56.79 1.365v4.961h-59.52v-4.961zm82.665,4.961h-9.145v-11.961c0-3.866-3.134-7-7-7h-1.365v-11.172c0-3.866-3.134-7-7-7h-2.086v-67.963c0-3.866-3.134-7-7-7h-38.617c-3.866,0-7,3.134-7,7v67.963h-2.086c-3.866,0-7,3.134-7,7v11.172h-1.365c-3.866,0-7,3.134-7,7v11.961h-144.77v-139.348h241.434v139.348z"/>
  </g>
</svg>
