<?xml version='1.0' encoding='iso-8859-1'?>
<!DOCTYPE svg PUBLIC '-//W3C//DTD SVG 1.1//EN' 'http://www.w3.org/Graphics/SVG/1.1/DTD/svg11.dtd'>
<svg version="1.1" xmlns="http://www.w3.org/2000/svg" viewBox="0 0 316.484 316.484" xmlns:xlink="http://www.w3.org/1999/xlink" enable-background="new 0 0 316.484 316.484">
  <g>
    <path d="M250.813,34.742h-68.949V7c0-3.866-3.134-7-7-7h-33.242c-3.866,0-7,3.134-7,7v27.742H65.672   c-16.583,0-30.074,13.491-30.074,30.073v93.356c0,16.583,13.491,30.073,30.074,30.073h68.949v121.239c0,3.866,3.134,7,7,7h33.242   c3.866,0,7-3.134,7-7V188.245h68.949c16.583,0,30.074-13.491,30.074-30.073V64.815C280.886,48.233,267.395,34.742,250.813,34.742z    M266.886,158.172c0,8.863-7.21,16.073-16.074,16.073H65.672c-8.863,0-16.074-7.21-16.074-16.073V64.815   c0-8.863,7.21-16.073,16.074-16.073h185.141c8.863,0,16.074,7.21,16.074,16.073V158.172z M148.621,14h19.242v20.742h-19.242V14z    M167.863,302.484h-19.242V188.245h19.242V302.484z"/>
    <path d="m67.512,56.232c-1.31-1.3-3.11-2.05-4.95-2.05s-3.65,0.75-4.95,2.05c-1.3,1.3-2.05,3.11-2.05,4.95s0.75,3.64 2.05,4.95c1.3,1.3 3.11,2.05 4.95,2.05s3.64-0.75 4.95-2.05c1.3-1.31 2.05-3.11 2.05-4.95s-0.75-3.65-2.05-4.95z"/>
    <path d="m253.922,54.182c-1.84,0-3.64,0.75-4.95,2.05-1.3,1.3-2.05,3.11-2.05,4.95s0.75,3.65 2.05,4.95c1.31,1.3 3.11,2.05 4.95,2.05 1.84,0 3.65-0.75 4.95-2.05 1.31-1.31 2.05-3.11 2.05-4.95s-0.74-3.65-2.05-4.95c-1.3-1.3-3.11-2.05-4.95-2.05z"/>
    <path d="m89.201,95.923h12.785c3.866,0 7-3.134 7-7s-3.134-7-7-7h-12.785c-10.91,0-19.785,8.875-19.785,19.785s8.875,19.785 19.785,19.785c3.19,0 5.785,2.595 5.785,5.785s-2.595,5.785-5.785,5.785h-12.785c-3.866,0-7,3.134-7,7s3.134,7 7,7h12.785c10.91,0 19.785-8.875 19.785-19.785s-8.875-19.785-19.785-19.785c-3.19,0-5.785-2.595-5.785-5.785s2.595-5.785 5.785-5.785z"/>
    <path d="m136.764,81.923h-3.071c-10.063,0-18.25,8.187-18.25,18.25v28.642c0,10.063 8.187,18.25 18.25,18.25h3.071c10.063,0 18.25-8.187 18.25-18.25v-28.642c0-10.063-8.187-18.25-18.25-18.25zm4.25,46.891c0,2.343-1.906,4.25-4.25,4.25h-3.071c-2.343,0-4.25-1.906-4.25-4.25v-28.642c0-2.343 1.906-4.25 4.25-4.25h3.071c2.343,0 4.25,1.906 4.25,4.25v28.642z"/>
    <path d="m223.078,81.923h-8.579c-3.866,0-7,3.134-7,7v51.141c0,3.866 3.134,7 7,7h8.579c13.229,0 23.991-10.762 23.991-23.991v-17.159c-2.84217e-14-13.228-10.762-23.991-23.991-23.991zm9.991,41.15c0,5.509-4.482,9.991-9.991,9.991h-1.579v-37.141h1.579c5.509,0 9.991,4.482 9.991,9.991v17.159z"/>
    <path d="m194.041,133.064h-13.909c-2.57,0-4.662-2.091-4.662-4.662v-39.479c0-3.866-3.134-7-7-7s-7,3.134-7,7v39.479c0,10.29 8.372,18.662 18.662,18.662h13.909c3.866,0 7-3.134 7-7s-3.134-7-7-7z"/>
  </g>
</svg>
