<?xml version="1.0" encoding="utf-8"?>
<!-- Generator: Adobe Illustrator 17.1.0, SVG Export Plug-In . SVG Version: 6.00 Build 0)  -->
<!DOCTYPE svg PUBLIC "-//W3C//DTD SVG 1.1//EN" "http://www.w3.org/Graphics/SVG/1.1/DTD/svg11.dtd">
<svg version="1.1" id="ai-file" xmlns="http://www.w3.org/2000/svg" xmlns:xlink="http://www.w3.org/1999/xlink" x="0px" y="0px"
	 viewBox="0 0 45 58" enable-background="new 0 0 45 58" xml:space="preserve">
<g id="ai-file-ai-file">
	<g>
		<path fill="#FFFFFF" d="M31.4854,1H2.4629C1.6553,1,1,1.6553,1,2.9258V56c0,0.3447,0.6553,1,1.4629,1h40.0742
			C43.3457,57,44,56.3447,44,56V13.9785c0-0.6963-0.0928-0.9209-0.2578-1.0859L32.1074,1.2568C31.9424,1.0928,31.7188,1,31.4854,1z"
			/>
		<path fill="#3D3437" d="M42.5371,58H2.4629C1.2197,58,0,57.0098,0,56V2.9258C0,0.916,1.2769,0,2.4629,0h29.0225
			c0.5004,0,0.9716,0.1943,1.3271,0.5479l11.6367,11.6376C44.9077,12.6445,45,13.2119,45,13.9785V56
			C45,57.0098,43.7803,58,42.5371,58L42.5371,58z M2,55.8047C2.0918,55.8887,2.27,56,2.4629,56h40.0742
			C42.73,56,42.9082,55.8887,43,55.8047V13.9785c0-0.2451-0.0137-0.375-0.0234-0.4375L31.4004,1.9639L2.4629,2
			C2.0332,2,2,2.709,2,2.9258V55.8047L2,55.8047z"/>
	</g>
	<g>
		<path fill="#95BCA7" d="M42.5371,57H2.4629C1.6543,57,1,56.3447,1,55.5371V40h43v15.5371C44,56.3447,43.3447,57,42.5371,57z"/>
		<path fill="#3D3437" d="M42.5371,58H2.4629C1.105,58,0,56.8955,0,55.5371V39h45v16.5371C45,56.8955,43.895,58,42.5371,58
			L42.5371,58z M2,41v14.5371C2,55.792,2.2075,56,2.4629,56h40.0742C42.7925,56,43,55.792,43,55.5371V41H2L2,41z"/>
	</g>
	<g>
		<path fill="#9C705D" d="M32,2.3916V13h10.6094c0.457,0,0.6865-0.5537,0.3633-0.877L32.877,2.0283
			C32.5527,1.7041,32,1.9336,32,2.3916z"/>
		<path fill="#3D3437" d="M42.6094,14H31V2.3916c0-0.835,0.6807-1.5146,1.5171-1.5146c0.4014,0,0.7803,0.1572,1.0669,0.4443
			L43.6797,11.416c0.4346,0.4346,0.563,1.082,0.3276,1.6494C43.7725,13.6328,43.2236,14,42.6094,14L42.6094,14z M33,12h8.4355
			L33,3.5654V12L33,12z"/>
	</g>
	<g>
		<g>
			<rect x="20.377" y="17.7451" fill="#95BCA7" width="4.7177" height="4.7178"/>
			<path fill="#3D3437" d="M25.0947,23.2129H20.377c-0.4141,0-0.75-0.3359-0.75-0.75v-4.7178c0-0.414,0.3359-0.75,0.75-0.75h4.7177
				c0.4141,0,0.75,0.336,0.75,0.75v4.7178C25.8447,22.877,25.5088,23.2129,25.0947,23.2129L25.0947,23.2129z M21.127,21.7129h3.2177
				v-3.2178H21.127V21.7129L21.127,21.7129z"/>
		</g>
		<g>
			<rect x="10.9434" y="29.5371" fill="#CB9D62" width="4.7168" height="4.7178"/>
			<path fill="#3D3437" d="M15.6602,35.0049h-4.7168c-0.4141,0-0.75-0.336-0.75-0.75v-4.7178c0-0.4141,0.3359-0.75,0.75-0.75h4.7168
				c0.414,0,0.75,0.3359,0.75,0.75v4.7178C16.4102,34.6689,16.0742,35.0049,15.6602,35.0049L15.6602,35.0049z M11.6934,33.5049
				h3.2168v-3.2178h-3.2168V33.5049L11.6934,33.5049z"/>
		</g>
		<g>
			<rect x="29.8115" y="29.5371" fill="#CB9D62" width="4.7168" height="4.7178"/>
			<path fill="#3D3437" d="M34.5283,35.0049h-4.7168c-0.414,0-0.75-0.336-0.75-0.75v-4.7178c0-0.4141,0.336-0.75,0.75-0.75h4.7168
				c0.4141,0,0.75,0.3359,0.75,0.75v4.7178C35.2783,34.6689,34.9424,35.0049,34.5283,35.0049L34.5283,35.0049z M30.5615,33.5049
				h3.2168v-3.2178h-3.2168V33.5049L30.5615,33.5049z"/>
		</g>
		<g>
			<polygon fill="#3D3437" points="32.1699,20.8535 25.5664,20.8535 25.5664,19.3535 32.1699,19.3535 32.1699,20.8535 			"/>
		</g>
		<g>
			<polygon fill="#3D3437" points="19.9053,20.8535 12.8301,20.8535 12.8301,19.3535 19.9053,19.3535 19.9053,20.8535 			"/>
		</g>
		<g>
			<circle fill="#FFFFFF" cx="11.415" cy="20.1035" r="2"/>
			<path fill="#3D3437" d="M11.415,22.8535c-1.5166,0-2.75-1.2334-2.75-2.75c0-1.5166,1.2334-2.75,2.75-2.75
				c1.5166,0,2.75,1.2334,2.75,2.75C14.165,21.6201,12.9316,22.8535,11.415,22.8535L11.415,22.8535z M11.415,18.8535
				c-0.6894,0-1.25,0.5606-1.25,1.25c0,0.6895,0.5606,1.25,1.25,1.25c0.6895,0,1.25-0.5605,1.25-1.25
				C12.665,19.4141,12.1045,18.8535,11.415,18.8535L11.415,18.8535z"/>
		</g>
		<g>
			<circle fill="#FFFFFF" cx="33.585" cy="20.1035" r="2"/>
			<path fill="#3D3437" d="M33.585,22.8535c-1.5166,0-2.75-1.2334-2.75-2.75c0-1.5166,1.2334-2.75,2.75-2.75
				c1.5166,0,2.75,1.2334,2.75,2.75C36.335,21.6201,35.1016,22.8535,33.585,22.8535L33.585,22.8535z M33.585,18.8535
				c-0.6895,0-1.25,0.5606-1.25,1.25c0,0.6895,0.5605,1.25,1.25,1.25c0.6894,0,1.25-0.5605,1.25-1.25
				C34.835,19.4141,34.2744,18.8535,33.585,18.8535L33.585,18.8535z"/>
		</g>
		<g>
			<path fill="#3D3437" d="M14.0518,29.5371h-1.5c0-4.916,3.437-8.7676,7.8252-8.7676v1.5
				C16.8301,22.2695,14.0518,25.4619,14.0518,29.5371L14.0518,29.5371z"/>
		</g>
		<g>
			<path fill="#3D3437" d="M32.9199,29.5371h-1.5c0-4.0752-2.7783-7.2676-6.3252-7.2676v-1.5
				C29.4829,20.7695,32.9199,24.6211,32.9199,29.5371L32.9199,29.5371z"/>
		</g>
	</g>
	<g>
		<path fill="#3D3437" d="M19.0381,50.8027l-0.8047,1.8946h-1.4746l3.7051-8.3946h1.4511l3.67,8.3946h-1.5098l-0.8047-1.8946
			H19.0381z M21.1475,45.8135l-1.5821,3.7295h3.166L21.1475,45.8135z"/>
		<path fill="#3D3437" d="M26.8252,52.6973v-8.3946h1.416v8.3946H26.8252z"/>
	</g>
</g>
</svg>
