<?xml version="1.0" encoding="utf-8"?>
<!-- Generator: Adobe Illustrator 17.1.0, SVG Export Plug-In . SVG Version: 6.00 Build 0)  -->
<!DOCTYPE svg PUBLIC "-//W3C//DTD SVG 1.1//EN" "http://www.w3.org/Graphics/SVG/1.1/DTD/svg11.dtd">
<svg version="1.1" id="anchor-point-pen" xmlns="http://www.w3.org/2000/svg" xmlns:xlink="http://www.w3.org/1999/xlink" x="0px"
	 y="0px" viewBox="0 0 51.6036 59" enable-background="new 0 0 51.6036 59" xml:space="preserve">
<g id="anchor-point-pen-anchor-point-pen">
	<circle fill="#95BCA7" cx="25.8018" cy="11.4287" r="11.4287"/>
	<g>
		<g>
			<rect x="20.8418" y="6.5713" fill="#FFFFFF" width="9.92" height="9.9209"/>
			<path fill="#3D3437" d="M30.7618,17.4922h-9.92c-0.5522,0-1-0.4473-1-1V6.5713c0-0.5527,0.4478-1,1-1h9.92c0.5522,0,1,0.4473,1,1
				v9.9209C31.7618,17.0449,31.314,17.4922,30.7618,17.4922L30.7618,17.4922z M21.8418,15.4922h7.92V7.5713h-7.92V15.4922
				L21.8418,15.4922z"/>
		</g>
		<g>
			<polygon fill="#3D3437" points="20.6875,12.5312 5.4805,12.5312 5.4805,10.5312 20.6875,10.5312 20.6875,12.5312 			"/>
		</g>
		<g>
			<polygon fill="#3D3437" points="46.4004,12.5312 31.5196,12.5312 31.5196,10.5312 46.4004,10.5312 46.4004,12.5312 			"/>
		</g>
		<g>
			<circle fill="#FFFFFF" cx="48.1231" cy="11" r="2.4805"/>
			<path fill="#3D3437" d="M48.1231,14.4805c-1.9189,0-3.4805-1.5616-3.4805-3.4805c0-1.9189,1.5615-3.4805,3.4805-3.4805
				c1.9189,0,3.4805,1.5616,3.4805,3.4805C51.6036,12.9189,50.042,14.4805,48.1231,14.4805L48.1231,14.4805z M48.1231,9.5195
				c-0.8164,0-1.4805,0.6641-1.4805,1.4805c0,0.8164,0.6641,1.4805,1.4805,1.4805S49.6036,11.8164,49.6036,11
				C49.6036,10.1836,48.9395,9.5195,48.1231,9.5195L48.1231,9.5195z"/>
		</g>
		<g>
			<circle fill="#FFFFFF" cx="3.4795" cy="11" r="2.4795"/>
			<path fill="#3D3437" d="M3.4805,14.4805C1.5616,14.4805,0,12.9189,0,11c0-1.9189,1.5616-3.4805,3.4805-3.4805
				c1.918,0,3.4785,1.5616,3.4785,3.4805C6.959,12.9189,5.3985,14.4805,3.4805,14.4805L3.4805,14.4805z M3.4805,9.5195
				C2.6641,9.5195,2,10.1836,2,11c0,0.8164,0.6641,1.4805,1.4805,1.4805c0.8154,0,1.4785-0.6641,1.4785-1.4805
				C4.959,10.1836,4.2959,9.5195,3.4805,9.5195L3.4805,9.5195z"/>
		</g>
		<g>
			<path fill="#3D3437" d="M50.1407,33.5469c-0.5522,0-1-0.4473-1-1c0-9.7676-6.9414-17.5469-17.2725-19.3574
				c-0.5439-0.0958-0.9077-0.6143-0.812-1.1583c0.0952-0.5429,0.6094-0.9052,1.1577-0.8125
				c11.3208,1.9854,18.9268,10.5557,18.9268,21.3282C51.1407,33.0996,50.6929,33.5469,50.1407,33.5469L50.1407,33.5469z"/>
		</g>
		<g>
			<path fill="#3D3437" d="M1.3555,33.5469c-0.5522,0-1-0.4473-1-1c0-10.7725,7.6069-19.3438,18.9287-21.3282
				c0.5488-0.0908,1.063,0.2696,1.1577,0.8125c0.0957,0.544-0.268,1.0625-0.812,1.1583C9.2974,15,2.3555,22.7793,2.3555,32.5469
				C2.3555,33.0996,1.9078,33.5469,1.3555,33.5469L1.3555,33.5469z"/>
		</g>
		<g>
			<polyline fill="#CB9D62" points="36.9102,56.8262 36.9102,36.7314 25.75,19.6797 14.586,36.7314 14.586,56.8262 			"/>
			<path fill="#3D3437" d="M36.9102,57.8262c-0.5522,0-1-0.4473-1-1V37.0293L25.75,21.5059L15.586,37.0293v19.7969
				c0,0.5527-0.4478,1-1,1c-0.5523,0-1-0.4473-1-1V36.7314c0-0.1943,0.0566-0.3847,0.1636-0.5478l11.164-17.0518
				c0.1846-0.2822,0.499-0.4521,0.8364-0.4521l0,0c0.3374,0,0.6519,0.1699,0.837,0.4521l11.1601,17.0518
				c0.1065,0.1631,0.1631,0.3535,0.1631,0.5478v20.0948C37.9102,57.3789,37.4624,57.8262,36.9102,57.8262L36.9102,57.8262z"/>
		</g>
		<g>
			<path fill="#3D3437" d="M25.8008,42.292c-0.5522,0-1-0.4473-1-1V21.3613c0-0.5527,0.4478-1,1-1c0.5523,0,1,0.4473,1,1V41.292
				C26.8008,41.8447,26.3531,42.292,25.8008,42.292L25.8008,42.292z"/>
		</g>
		<g>
			<circle fill="#FFFFFF" cx="25.8018" cy="44.3262" r="2.4795"/>
			<path fill="#3D3437" d="M25.8008,47.8066c-1.9179,0-3.4785-1.5615-3.4785-3.4804c0-1.919,1.5606-3.4795,3.4785-3.4795
				c1.919,0,3.4805,1.5605,3.4805,3.4795C29.2813,46.2451,27.7198,47.8066,25.8008,47.8066L25.8008,47.8066z M25.8008,42.8467
				c-0.8154,0-1.4785,0.664-1.4785,1.4795c0,0.8164,0.6631,1.4804,1.4785,1.4804c0.8164,0,1.4805-0.664,1.4805-1.4804
				C27.2813,43.5107,26.6172,42.8467,25.8008,42.8467L25.8008,42.8467z"/>
		</g>
		<g>
			<path fill="#3D3437" d="M41.5157,59H10.0879c-0.5522,0-1-0.4473-1-1s0.4478-1,1-1h31.4278c0.5522,0,1,0.4473,1,1
				S42.0679,59,41.5157,59L41.5157,59z"/>
		</g>
	</g>
</g>
</svg>
