<?xml version="1.0" encoding="utf-8"?>
<!-- Generator: Adobe Illustrator 17.1.0, SVG Export Plug-In . SVG Version: 6.00 Build 0)  -->
<!DOCTYPE svg PUBLIC "-//W3C//DTD SVG 1.1//EN" "http://www.w3.org/Graphics/SVG/1.1/DTD/svg11.dtd">
<svg version="1.1" id="anchor-point-tool" xmlns="http://www.w3.org/2000/svg" xmlns:xlink="http://www.w3.org/1999/xlink" x="0px"
	 y="0px" viewBox="0 0 60 40.3008" enable-background="new 0 0 60 40.3008" xml:space="preserve">
<g id="anchor-point-tool-anchor-point-tool">
	<g>
		<rect x="25.0762" y="1" fill="#9C705D" width="10.9433" height="10.9434"/>
		<path fill="#3D3437" d="M36.0195,12.9434H25.0762c-0.5528,0-1-0.4478-1-1V1c0-0.5522,0.4472-1,1-1h10.9433c0.5528,0,1,0.4478,1,1
			v10.9434C37.0195,12.4956,36.5723,12.9434,36.0195,12.9434L36.0195,12.9434z M26.0762,10.9434h8.9433V2h-8.9433V10.9434
			L26.0762,10.9434z"/>
	</g>
	<g>
		<rect x="3.1885" y="28.3574" fill="#FFFFFF" width="10.9433" height="10.9434"/>
		<path fill="#3D3437" d="M14.1318,40.3008H3.1885c-0.5528,0-1-0.4478-1-1V28.3574c0-0.5522,0.4472-1,1-1h10.9433
			c0.5528,0,1,0.4478,1,1v10.9434C15.1318,39.853,14.6846,40.3008,14.1318,40.3008L14.1318,40.3008z M4.1885,38.3008h8.9433v-8.9434
			H4.1885V38.3008L4.1885,38.3008z"/>
	</g>
	<g>
		<rect x="46.9629" y="28.3574" fill="#FFFFFF" width="10.9434" height="10.9434"/>
		<path fill="#3D3437" d="M57.9063,40.3008H46.9629c-0.5527,0-1-0.4478-1-1V28.3574c0-0.5522,0.4473-1,1-1h10.9434
			c0.5527,0,1,0.4478,1,1v10.9434C58.9063,39.853,58.459,40.3008,57.9063,40.3008L57.9063,40.3008z M47.9629,38.3008h8.9434v-8.9434
			h-8.9434V38.3008L47.9629,38.3008z"/>
	</g>
	<g>
		<polygon fill="#3D3437" points="52.4336,7.4717 37.1133,7.4717 37.1133,5.4717 52.4336,5.4717 52.4336,7.4717 		"/>
	</g>
	<g>
		<polygon fill="#3D3437" points="23.9805,7.4717 7.5664,7.4717 7.5664,5.4717 23.9805,5.4717 23.9805,7.4717 		"/>
	</g>
	<g>
		<circle fill="#FFFFFF" cx="4.2832" cy="6.4717" r="3.2832"/>
		<path fill="#3D3437" d="M4.2832,10.7539C1.9219,10.7539,0,8.833,0,6.4717c0-2.3618,1.9219-4.2832,4.2832-4.2832
			s4.2832,1.9214,4.2832,4.2832C8.5664,8.833,6.6445,10.7539,4.2832,10.7539L4.2832,10.7539z M4.2832,4.1885
			C3.0244,4.1885,2,5.2129,2,6.4717C2,7.73,3.0244,8.7539,4.2832,8.7539c1.2588,0,2.2832-1.0239,2.2832-2.2822
			C6.5664,5.2129,5.542,4.1885,4.2832,4.1885L4.2832,4.1885z"/>
	</g>
	<g>
		<circle fill="#FFFFFF" cx="55.7168" cy="6.4717" r="3.2832"/>
		<path fill="#3D3437" d="M55.7168,10.7539c-2.3613,0-4.2832-1.9209-4.2832-4.2822c0-2.3618,1.9219-4.2832,4.2832-4.2832
			C58.0781,2.1885,60,4.1099,60,6.4717C60,8.833,58.0781,10.7539,55.7168,10.7539L55.7168,10.7539z M55.7168,4.1885
			c-1.2588,0-2.2832,1.0244-2.2832,2.2832c0,1.2583,1.0244,2.2822,2.2832,2.2822C56.9756,8.7539,58,7.73,58,6.4717
			C58,5.2129,56.9756,4.1885,55.7168,4.1885L55.7168,4.1885z"/>
	</g>
	<g>
		<path fill="#3D3437" d="M9.6602,28.3574h-2c0-1.2558,0.1054-2.5161,0.3134-3.7461l1.9727,0.334
			C9.7559,26.065,9.6602,27.2134,9.6602,28.3574L9.6602,28.3574z M10.3535,23.0855L8.4219,22.565
			c0.3681-1.3643,0.8672-2.6832,1.4834-3.9205l1.791,0.8916C11.1387,20.6553,10.6865,21.8496,10.3535,23.0855L10.3535,23.0855z
			 M12.6279,17.8877l-1.6875-1.0742c0.7676-1.2061,1.6573-2.311,2.6446-3.2837l1.4043,1.4238
			C14.1094,15.8213,13.3145,16.8086,12.6279,17.8877L12.6279,17.8877z M16.4004,13.7197l-1.2207-1.5839
			c1.1367-0.877,2.3701-1.5972,3.666-2.1407l0.7734,1.8448C18.4834,12.3159,17.4004,12.9487,16.4004,13.7197L16.4004,13.7197z
			 M21.3838,11.2358l-0.5195-1.9316c1.3584-0.3652,2.7753-0.5503,4.2119-0.5503v2C23.8154,10.7539,22.5723,10.916,21.3838,11.2358
			L21.3838,11.2358z"/>
	</g>
	<g>
		<path fill="#3D3437" d="M53.4336,28.3574h-2c0-1.144-0.0957-2.2915-0.2861-3.4111l1.9726-0.334
			C53.3281,25.8418,53.4336,27.1016,53.4336,28.3574L53.4336,28.3574z M50.7402,23.0869c-0.333-1.2358-0.7851-2.4302-1.3427-3.5493
			l1.791-0.8916c0.6162,1.2373,1.1152,2.5562,1.4834,3.9204L50.7402,23.0869L50.7402,23.0869z M48.4668,17.8882
			c-0.6865-1.0786-1.4805-2.0659-2.3604-2.9341l1.4043-1.4238c0.9873,0.9741,1.876,2.0786,2.6436,3.2837L48.4668,17.8882
			L48.4668,17.8882z M44.6953,13.7202c-1-0.771-2.083-1.4038-3.2187-1.8799L42.25,9.9956c1.2959,0.5435,2.5293,1.2637,3.666,2.1406
			L44.6953,13.7202L44.6953,13.7202z M39.7119,11.2358c-1.1885-0.3198-2.4316-0.4819-3.6924-0.4819v-2
			c1.4366,0,2.8535,0.1851,4.2119,0.5503L39.7119,11.2358L39.7119,11.2358z"/>
	</g>
</g>
</svg>
