<?xml version="1.0" encoding="utf-8"?>
<!-- Generator: Adobe Illustrator 17.1.0, SVG Export Plug-In . SVG Version: 6.00 Build 0)  -->
<!DOCTYPE svg PUBLIC "-//W3C//DTD SVG 1.1//EN" "http://www.w3.org/Graphics/SVG/1.1/DTD/svg11.dtd">
<svg version="1.1" id="artboard" xmlns="http://www.w3.org/2000/svg" xmlns:xlink="http://www.w3.org/1999/xlink" x="0px" y="0px"
	 viewBox="0 0 55 55" enable-background="new 0 0 55 55" xml:space="preserve">
<g id="artboard-artboard">
	<g>
		<rect x="6.6377" y="6.6377" fill="#FFFFFF" width="41.7246" height="41.7246"/>
		<path fill="#3D3437" d="M49.3623,49.3623H5.6377V5.6377h43.7246V49.3623L49.3623,49.3623z M7.6377,47.3623h39.7246V7.6377H7.6377
			V47.3623L7.6377,47.3623z"/>
	</g>
	<g>
		<polygon fill="#3D3437" points="7.6377,2.8447 5.6377,2.8447 5.6377,0 7.6377,0 7.6377,2.8447 		"/>
	</g>
	<g>
		<polygon fill="#3D3437" points="7.6377,55 5.6377,55 5.6377,52.1553 7.6377,52.1553 7.6377,55 		"/>
	</g>
	<g>
		<polygon fill="#3D3437" points="49.3623,2.8447 47.3623,2.8447 47.3623,0 49.3623,0 49.3623,2.8447 		"/>
	</g>
	<g>
		<polygon fill="#3D3437" points="49.3623,55 47.3623,55 47.3623,52.1553 49.3623,52.1553 49.3623,55 		"/>
	</g>
	<g>
		<polygon fill="#3D3437" points="55,7.6377 52.1553,7.6377 52.1553,5.6377 55,5.6377 55,7.6377 		"/>
	</g>
	<g>
		<polygon fill="#3D3437" points="2.8447,7.6377 0,7.6377 0,5.6377 2.8447,5.6377 2.8447,7.6377 		"/>
	</g>
	<g>
		<polygon fill="#3D3437" points="55,49.3623 52.1553,49.3623 52.1553,47.3623 55,47.3623 55,49.3623 		"/>
	</g>
	<g>
		<polygon fill="#3D3437" points="2.8447,49.3623 0,49.3623 0,47.3623 2.8447,47.3623 2.8447,49.3623 		"/>
	</g>
</g>
</svg>
