<?xml version="1.0" encoding="utf-8"?>
<!-- Generator: Adobe Illustrator 17.1.0, SVG Export Plug-In . SVG Version: 6.00 Build 0)  -->
<!DOCTYPE svg PUBLIC "-//W3C//DTD SVG 1.1//EN" "http://www.w3.org/Graphics/SVG/1.1/DTD/svg11.dtd">
<svg version="1.1" id="branding-design" xmlns="http://www.w3.org/2000/svg" xmlns:xlink="http://www.w3.org/1999/xlink" x="0px"
	 y="0px" viewBox="0 0 52.6562 60" enable-background="new 0 0 52.6562 60" xml:space="preserve">
<g id="branding-design-branding-design">
	<g>
		<rect x="10.8418" y="1" fill="#FFFFFF" width="40.8144" height="58"/>
		<rect x="10.8418" y="1" fill="#CB9D62" width="40.8144" height="15.0371"/>
		<g>
			<path fill="#3D3437" d="M52.6562,60H9.8418V0h42.8144V60L52.6562,60z M11.8418,58h38.8144V2H11.8418V58L11.8418,58z"/>
		</g>
		<g>
			<g>
				<rect x="15.1386" y="5.0928" fill="#95BCA7" width="9.1114" height="6.3701"/>
				<path fill="#3D3437" d="M25.25,12.4629H14.1386V4.0928H25.25V12.4629L25.25,12.4629z M16.1386,10.4629H23.25V6.0928h-7.1114
					V10.4629L16.1386,10.4629z"/>
			</g>
			<g>
				<polygon fill="#3D3437" points="47.4355,7.2969 29.0273,7.2969 29.0273,5.2969 47.4355,5.2969 47.4355,7.2969 				"/>
			</g>
			<g>
				<polygon fill="#3D3437" points="47.4355,11.5928 29.0273,11.5928 29.0273,9.5928 47.4355,9.5928 47.4355,11.5928 				"/>
			</g>
		</g>
		<g>
			<polygon fill="#3D3437" points="51.6562,17.0371 10.8418,17.0371 10.8418,15.0371 51.6562,15.0371 51.6562,17.0371 			"/>
		</g>
	</g>
	<g>
		<rect x="1" y="28.167" fill="#FFFFFF" width="40" height="25.5"/>
		<rect x="1.166" y="28.167" fill="#CB9D62" width="38.875" height="10.417"/>
		<g>
			<path fill="#3D3437" d="M42,54.667H0v-27.5h42V54.667L42,54.667z M2,52.667h38v-23.5H2V52.667L2,52.667z"/>
		</g>
		<g>
			<polygon fill="#3D3437" points="34.916,47.167 24.916,47.167 24.916,45.167 34.916,45.167 34.916,47.167 			"/>
		</g>
		<g>
			<polygon fill="#3D3437" points="34.916,44.167 24.916,44.167 24.916,42.167 34.916,42.167 34.916,44.167 			"/>
		</g>
		<g>
			<g>
				<rect x="5.0371" y="31.4375" fill="#95BCA7" width="7.0527" height="4.9316"/>
				<path fill="#3D3437" d="M13.0898,37.3691H4.0371v-6.9316h9.0527V37.3691L13.0898,37.3691z M6.0371,35.3691h5.0527v-2.9316
					H6.0371V35.3691L6.0371,35.3691z"/>
			</g>
		</g>
	</g>
</g>
</svg>
