<?xml version="1.0" encoding="utf-8"?>
<!-- Generator: Adobe Illustrator 17.1.0, SVG Export Plug-In . SVG Version: 6.00 Build 0)  -->
<!DOCTYPE svg PUBLIC "-//W3C//DTD SVG 1.1//EN" "http://www.w3.org/Graphics/SVG/1.1/DTD/svg11.dtd">
<svg version="1.1" id="color-palette" xmlns="http://www.w3.org/2000/svg" xmlns:xlink="http://www.w3.org/1999/xlink" x="0px"
	 y="0px" viewBox="0 0 42.746 60" enable-background="new 0 0 42.746 60" xml:space="preserve">
<g id="color-palette-color-palette">
	<g>
		<path fill="#FFFFFF" d="M8.5,59C4.3652,59,1,55.6357,1,51.5v-43C1,4.3643,4.3652,1,8.5,1h7.001c4.1347,0,7.5,3.3643,7.5,7.5v43
			c0,4.1357-3.3653,7.5-7.5,7.5H8.5z"/>
		<path fill="#CCCCCC" d="M21.5771,55.876c0.9317-1.2891,1.4239-2.8018,1.4239-4.376V15.2695l1.9765-0.2168l7.2363,32.5889
			c0.4219,1.9561,0.0528,3.958-1.0371,5.6465c-1.0898,1.6875-2.7675,2.8496-4.7265,3.2724l-6.4258,1.4668L21.5771,55.876z"/>
		<path fill="#CCCCCC" d="M31.624,52.4785c0.7402-1.5195,0.9434-3.1914,0.5898-4.8379l-7.4335-33.4707l1.8691-0.6679
			l14.3613,28.3496c1.7891,3.7509,0.2188,8.2295-3.4883,10.0039l-7.0742,3.041L31.624,52.4785z"/>
		<rect x="5" y="43" fill="#9C705D" width="14.001" height="8"/>
		<rect x="5" y="29" fill="#CB9D62" width="14.001" height="8"/>
		<rect x="5" y="15" fill="#95BCA7" width="14.001" height="8"/>
		<path fill="#FFFFFF" d="M11.9765,9.6719c-1.3789,0-2.5-1.1211-2.5-2.5c0-1.3789,1.1211-2.5,2.5-2.5s2.501,1.1211,2.501,2.5
			C14.4775,8.5508,13.3554,9.6719,11.9765,9.6719L11.9765,9.6719z"/>
	</g>
	<g>
		<path fill="#3D3437" d="M15.501,60H8.5C3.8135,60,0,56.1865,0,51.5v-43C0,3.8135,3.8135,0,8.5,0h7.001
			c4.6865,0,8.5,3.8135,8.5,8.5v43C24.001,56.1865,20.1875,60,15.501,60L15.501,60z M8.5,2C4.916,2,2,4.916,2,8.5v43
			C2,55.084,4.916,58,8.5,58h7.001c3.5839,0,6.5-2.916,6.5-6.5v-43c0-3.584-2.9161-6.5-6.5-6.5H8.5L8.5,2z"/>
	</g>
	<g>
		<path fill="#3D3437" d="M18.998,59.2607c-0.456,0-0.8681-0.3134-0.9736-0.7773c-0.1231-0.5391,0.2139-1.0752,0.7519-1.1973
			l7.4629-1.7031c1.7022-0.3672,3.1534-1.374,4.0977-2.8379c0.9443-1.4629,1.2637-3.1982,0.8994-4.8867L22.251,7.3887
			c-0.1192-0.5391,0.2207-1.0733,0.7597-1.1934c0.5391-0.1142,1.0733,0.2207,1.1934,0.7598l8.9863,40.4756
			c0.4775,2.2168,0.0606,4.4863-1.1728,6.3994c-1.2344,1.9131-3.1329,3.2285-5.3448,3.7051l-7.4511,1.7002
			C19.1465,59.2529,19.0722,59.2607,18.998,59.2607L18.998,59.2607z"/>
	</g>
	<g>
		<path fill="#3D3437" d="M28.8525,56.582c-0.3867,0-0.7558-0.2265-0.9189-0.6054c-0.2178-0.5069,0.0166-1.0957,0.5244-1.3135
			l8.6328-3.709c3.1943-1.5293,4.5684-5.417,3.0273-8.6504L21.7099,5.9639c-0.249-0.4932-0.0517-1.0948,0.4405-1.3438
			c0.4951-0.2539,1.0947-0.0527,1.3437,0.4395l18.419,36.3613c2.0254,4.249,0.2285,9.333-3.9961,11.3545l-8.67,3.7256
			C29.1181,56.5557,28.9844,56.582,28.8525,56.582L28.8525,56.582z"/>
	</g>
	<g>
		<path fill="#3D3437" d="M19.001,52H5c-0.5528,0-1-0.4473-1-1v-8c0-0.5527,0.4472-1,1-1h14.001c0.5527,0,1,0.4473,1,1v8
			C20.001,51.5527,19.5537,52,19.001,52L19.001,52z M6,50h12.001v-6H6V50L6,50z"/>
	</g>
	<g>
		<path fill="#3D3437" d="M19.001,38H5c-0.5528,0-1-0.4473-1-1v-8c0-0.5527,0.4472-1,1-1h14.001c0.5527,0,1,0.4473,1,1v8
			C20.001,37.5527,19.5537,38,19.001,38L19.001,38z M6,36h12.001v-6H6V36L6,36z"/>
	</g>
	<g>
		<path fill="#3D3437" d="M19.001,24H5c-0.5528,0-1-0.4473-1-1v-8c0-0.5527,0.4472-1,1-1h14.001c0.5527,0,1,0.4473,1,1v8
			C20.001,23.5527,19.5537,24,19.001,24L19.001,24z M6,22h12.001v-6H6V22L6,22z"/>
	</g>
	<g>
		<path fill="#3D3437" d="M11.9765,10.6719c-1.9296,0-3.5-1.5703-3.5-3.5s1.5704-3.5,3.5-3.5c1.9307,0,3.501,1.5703,3.501,3.5
			S13.9072,10.6719,11.9765,10.6719L11.9765,10.6719z M11.9765,5.6719c-0.8271,0-1.5,0.6728-1.5,1.5c0,0.8271,0.6729,1.5,1.5,1.5
			c0.8272,0,1.501-0.6729,1.501-1.5C13.4775,6.3447,12.8037,5.6719,11.9765,5.6719L11.9765,5.6719z"/>
	</g>
</g>
</svg>
