<?xml version="1.0" encoding="utf-8"?>
<!-- Generator: Adobe Illustrator 17.1.0, SVG Export Plug-In . SVG Version: 6.00 Build 0)  -->
<!DOCTYPE svg PUBLIC "-//W3C//DTD SVG 1.1//EN" "http://www.w3.org/Graphics/SVG/1.1/DTD/svg11.dtd">
<svg version="1.1" id="color-eyedropper" xmlns="http://www.w3.org/2000/svg" xmlns:xlink="http://www.w3.org/1999/xlink" x="0px"
	 y="0px" viewBox="0 0 51.2005 59.8755" enable-background="new 0 0 51.2005 59.8755" xml:space="preserve">
<g id="color-eyedropper-color-eyedropper">
	<g id="color-eyedropper-eye-dropper">
		<g>
			<path fill="#95BCA7" d="M6.6614,12.6763l-4.331-4.3321c-1.5596-1.5566-1.8252-4.0859-0.4317-5.791
				c1.5967-1.958,4.5176-2.0644,6.2608-0.3203l4.4717,4.4707c1.3066,1.3076,3.4248,1.3076,4.7314,0l0.4922-0.4902
				c0.3994-0.4014,1.0508-0.4014,1.4521-0.002l3.3233,3.3262c0.4023,0.4004,0.4013,1.0518,0,1.4531L10.9466,22.6724
				c-0.4014,0.4033-1.0527,0.4033-1.4531,0.0019l-3.3233-3.3242c-0.4013-0.4004-0.4023-1.0517-0.001-1.4531l0.4922-0.4903
				C7.9671,16.1001,7.9671,13.981,6.6614,12.6763z"/>
			<path fill="#3D3437" d="M10.219,23.9751c-0.5419,0-1.0507-0.2109-1.4335-0.5947l-3.3223-3.3233
				c-0.3828-0.3818-0.5938-0.8911-0.5947-1.4331c0-0.542,0.2109-1.0512,0.5937-1.434l0.4932-0.4917
				c0.9131-0.9136,0.9131-2.4014-0.001-3.3145L1.6233,9.0513c-1.9541-1.9497-2.1728-5.0825-0.499-7.1309
				C2.1194,0.7002,3.595,0,5.1731,0c1.3985,0,2.71,0.542,3.6934,1.5259l4.4717,4.4707c0.8867,0.8867,2.4307,0.8877,3.3174,0
				l0.4931-0.4917c0.7588-0.7603,2.0967-0.7656,2.8633-0.0024l3.3252,3.3281c0.3818,0.3799,0.5938,0.8886,0.5947,1.4302
				c0,0.5429-0.2109,1.0532-0.5947,1.437L11.6536,23.3794C11.2718,23.7632,10.762,23.9751,10.219,23.9751L10.219,23.9751z M5.1731,2
				c-0.9746,0-1.8857,0.4321-2.499,1.1851c-1.0332,1.2632-0.873,3.2182,0.3623,4.4511l4.3321,4.333
				c1.6943,1.6929,1.6943,4.4493,0,6.1446l-0.4932,0.4917l3.3437,3.3696c0.0108,0,0.0157-0.0049,0.0186-0.0083l11.6855-11.6831
				l-3.3232-3.3652l-0.5312,0.4936c-0.8194,0.8198-1.9112,1.2725-3.0713,1.2725c-1.1612,0-2.253-0.4527-3.0733-1.2739L7.4524,2.94
				C6.847,2.334,6.0374,2,5.1731,2L5.1731,2z"/>
		</g>
		<path fill="#E5E5E5" d="M13.2064,20.4165l7.164-7.166l18.418,18.416c1.2256,1.2217,2.1289,2.7305,2.6357,4.3877l0.0196,0.0645
			c0.5058,1.6543,1.4091,3.1611,2.6357,4.3886l1.2441,1.2432l-3.583,3.583l-1.2129-1.2119
			c-1.2431-1.2461-2.7793-2.1611-4.4658-2.6631c-1.6904-0.498-3.2275-1.415-4.4717-2.6592L13.2064,20.4165z"/>
		<path fill="#CB9D62" d="M24.5882,31.6665h14.2002c1.2256,1.2217,2.1289,2.7305,2.6357,4.3877l0.0196,0.0645
			c0.5058,1.6543,1.4091,3.1611,2.6357,4.3886l1.2441,1.2432l-3.583,3.583l-1.2129-1.2119
			c-1.2431-1.2461-2.7793-2.1611-4.4658-2.6631c-1.6904-0.498-3.2275-1.415-4.4717-2.6592L24.5882,31.6665z"/>
		<g>
			<path fill="#3D3437" d="M41.7405,46.7476l-1.9199-1.9185c-1.1221-1.125-2.5195-1.9585-4.0439-2.4121
				c-1.8379-0.5415-3.5313-1.5483-4.8936-2.9106L11.7923,20.4165l8.5781-8.5801l19.125,19.1231
				c1.332,1.3281,2.3301,2.9892,2.8848,4.8022c0.4765,1.5591,1.3017,2.9336,2.4062,4.0386l1.9512,1.9497L41.7405,46.7476
				L41.7405,46.7476z M14.6204,20.4165l17.6768,17.6758c1.1269,1.1265,2.5263,1.959,4.0468,2.4067
				c1.8458,0.5494,3.5362,1.5577,4.8916,2.9165l0.5049,0.5039l2.169-2.1684l-0.5371-0.5361
				c-1.335-1.3365-2.333-2.9976-2.8848-4.8038c-0.4785-1.5644-1.3037-2.9379-2.4053-4.0366L20.3704,14.6646L14.6204,20.4165
				L14.6204,20.4165z"/>
		</g>
		<g>
			<path fill="#3D3437" d="M30.4642,28.94c-0.2559,0-0.5118-0.0977-0.7071-0.293l-8.3593-8.3594
				c-0.3907-0.3906-0.3907-1.0234,0-1.4141c0.3906-0.3906,1.0234-0.3906,1.414,0l8.3594,8.3594
				c0.3906,0.3906,0.3906,1.0235,0,1.4141C30.9759,28.8423,30.72,28.94,30.4642,28.94L30.4642,28.94z"/>
		</g>
		<g>
			<path fill="#3D3437" d="M32.4866,29.9595c-0.3291,0.3301-0.3301,0.8642,0,1.1943c0.3282,0.3301,0.8653,0.3301,1.1934,0.002
				c0.3301-0.3301,0.3291-0.8662,0-1.1963C33.3499,29.6304,32.8157,29.6314,32.4866,29.9595"/>
			<path fill="#3D3437" d="M33.0843,31.9014L33.0843,31.9014c-0.3604,0-0.6992-0.1402-0.9522-0.395
				c-0.5224-0.5225-0.5224-1.375,0-1.8999c0.5098-0.5079,1.3936-0.5069,1.9014-0.001c0.5244,0.5263,0.5244,1.3799,0,1.9038
				C33.7806,31.7622,33.4437,31.9014,33.0843,31.9014L33.0843,31.9014z M33.0833,30.2129c-0.0918,0-0.1787,0.0356-0.2432,0.1006
				c-0.1337,0.1338-0.1337,0.3525,0,0.4868c0.0655,0.0659,0.1514,0.1011,0.2442,0.1011l0,0c0.0918,0,0.1777-0.0352,0.2422-0.0991
				c0.1347-0.1348,0.1347-0.3545-0.001-0.4898C33.262,30.2485,33.1751,30.2129,33.0833,30.2129L33.0833,30.2129z"/>
		</g>
		<g>
			<path fill="#3D3437" d="M10.846,9.9302c-0.2461,0-0.4932-0.0903-0.6865-0.273L6.137,5.8604
				C5.7356,5.4815,5.7171,4.8486,6.096,4.4468c0.3799-0.4019,1.0127-0.4204,1.4141-0.0405l4.0224,3.7968
				c0.4014,0.3789,0.4199,1.0118,0.041,1.4136C11.3763,9.8252,11.1116,9.9302,10.846,9.9302L10.846,9.9302z"/>
		</g>
	</g>
	<g>
		<g>
			<path fill="#CB9D62" d="M46.2796,45.6685c0.5195,3.75,4.0459,6.0146,4.0459,9.2841c0,2.2354-1.8115,4.0479-4.0459,4.0479
				c-2.2363,0-4.0479-1.8125-4.0479-4.0479C42.2317,51.6831,45.7571,49.4185,46.2796,45.6685z"/>
			<path fill="#3D3437" d="M46.2796,59.8755c-2.7148,0-4.9229-2.2085-4.9229-4.9229c0-1.9375,1.0391-3.5209,2.044-5.0522
				c0.8769-1.3374,1.7851-2.7202,2.0127-4.3525c0.0596-0.4327,0.4297-0.7544,0.8662-0.7544l0,0
				c0.4375,0,0.8066,0.3222,0.8672,0.7549c0.2256,1.6328,1.1338,3.0161,2.0107,4.354c1.0049,1.5302,2.043,3.1132,2.043,5.0502
				C51.2005,57.667,48.9935,59.8755,46.2796,59.8755L46.2796,59.8755z M46.2786,48.4912c-0.4238,0.8584-0.9355,1.6387-1.415,2.3697
				c-0.9424,1.4365-1.7569,2.6767-1.7569,4.0917c0,1.7496,1.4229,3.1729,3.1729,3.1729c1.748,0,3.1709-1.4233,3.1709-3.1729
				c0-1.414-0.8135-2.6542-1.7559-4.0903C47.2151,50.1314,46.7024,49.3501,46.2786,48.4912L46.2786,48.4912z"/>
		</g>
	</g>
</g>
</svg>
