<?xml version="1.0" encoding="utf-8"?>
<!-- Generator: Adobe Illustrator 17.1.0, SVG Export Plug-In . SVG Version: 6.00 Build 0)  -->
<!DOCTYPE svg PUBLIC "-//W3C//DTD SVG 1.1//EN" "http://www.w3.org/Graphics/SVG/1.1/DTD/svg11.dtd">
<svg version="1.1" id="copy-image" xmlns="http://www.w3.org/2000/svg" xmlns:xlink="http://www.w3.org/1999/xlink" x="0px" y="0px"
	 viewBox="0 0 59.0644 47.8481" enable-background="new 0 0 59.0644 47.8481" xml:space="preserve">
<g id="copy-image-copy-image">
	<rect x="0.0644" y="10.395" fill="#CCCCCC" width="48.6045" height="37.3887"/>
	<g>
		<g>
			<polygon fill="#3D3437" points="10.3457,12.3296 5.6728,12.3296 5.6728,10.3296 10.3457,10.3296 10.3457,12.3296 			"/>
		</g>
		<g>
			<g>
				<polygon fill="#3D3437" points="2,14.1338 0,14.1338 0,10.3296 3.8027,10.3296 3.8027,12.3296 2,12.3296 2,14.1338 				"/>
			</g>
		</g>
		<g>
			<polygon fill="#3D3437" points="2,19.7417 0,19.7417 0,16.0029 2,16.0029 2,19.7417 			"/>
		</g>
		<g>
			<polygon fill="#3D3437" points="2,25.3501 0,25.3501 0,21.6113 2,21.6113 2,25.3501 			"/>
		</g>
		<g>
			<polygon fill="#3D3437" points="2,30.9595 0,30.9595 0,27.2202 2,27.2202 2,30.9595 			"/>
		</g>
		<g>
			<polygon fill="#3D3437" points="2,36.5669 0,36.5669 0,32.8286 2,32.8286 2,36.5669 			"/>
		</g>
		<g>
			<polygon fill="#3D3437" points="2,42.1753 0,42.1753 0,38.436 2,38.436 2,42.1753 			"/>
		</g>
		<g>
			<g>
				<polygon fill="#3D3437" points="3.8027,47.8481 0,47.8481 0,44.0444 2,44.0444 2,45.8481 3.8027,45.8481 3.8027,47.8481 				"/>
			</g>
		</g>
		<g>
			<polygon fill="#3D3437" points="9.4111,47.8481 5.6728,47.8481 5.6728,45.8481 9.4111,45.8481 9.4111,47.8481 			"/>
		</g>
		<g>
			<polygon fill="#3D3437" points="15.0195,47.8481 11.2812,47.8481 11.2812,45.8481 15.0195,45.8481 15.0195,47.8481 			"/>
		</g>
		<g>
			<polygon fill="#3D3437" points="20.6279,47.8481 16.8886,47.8481 16.8886,45.8481 20.6279,45.8481 20.6279,47.8481 			"/>
		</g>
		<g>
			<polygon fill="#3D3437" points="26.2363,47.8481 22.497,47.8481 22.497,45.8481 26.2363,45.8481 26.2363,47.8481 			"/>
		</g>
		<g>
			<polygon fill="#3D3437" points="31.8437,47.8481 28.1054,47.8481 28.1054,45.8481 31.8437,45.8481 31.8437,47.8481 			"/>
		</g>
		<g>
			<polygon fill="#3D3437" points="37.4521,47.8481 33.7138,47.8481 33.7138,45.8481 37.4521,45.8481 37.4521,47.8481 			"/>
		</g>
		<g>
			<polygon fill="#3D3437" points="43.0615,47.8481 39.3213,47.8481 39.3213,45.8481 43.0615,45.8481 43.0615,47.8481 			"/>
		</g>
		<g>
			<g>
				<polygon fill="#3D3437" points="48.7343,47.8481 44.9306,47.8481 44.9306,45.8481 46.7343,45.8481 46.7343,44.0444 
					48.7343,44.0444 48.7343,47.8481 				"/>
			</g>
		</g>
		<g>
			<polygon fill="#3D3437" points="48.7343,42.1753 46.7343,42.1753 46.7343,37.5024 48.7343,37.5024 48.7343,42.1753 			"/>
		</g>
	</g>
	<g>
		<rect x="10.3457" y="1.9829" fill="#FFFFFF" width="46.7353" height="35.5195"/>
		<rect x="13.1504" y="4.7866" fill="#CB9D62" width="41.1269" height="29.9111"/>
		<polygon fill="#95BCA7" points="36.5176,34.6977 13.1504,34.6977 13.1504,26.2856 20.6279,18.8071 		"/>
		<polygon fill="#95BCA7" points="36.5176,34.6977 29.04,27.2202 45.8642,10.395 54.2773,18.8071 54.2773,34.6977 		"/>
		<circle fill="#FFFFFF" cx="29.0405" cy="12.2641" r="3.7388"/>
		<g>
			<path fill="#3D3437" d="M59.0644,39.4848H8.3633V0h50.7011V39.4848L59.0644,39.4848z M10.3633,37.4848h46.7011V2H10.3633V37.4848
				L10.3633,37.4848z"/>
		</g>
		<g>
			<path fill="#3D3437" d="M55.2773,35.6977H12.1504V3.7866h43.1269V35.6977L55.2773,35.6977z M14.1504,33.6977h39.1269V5.7866
				H14.1504V33.6977L14.1504,33.6977z"/>
		</g>
		<g>
			<g>
				<path fill="#3D3437" d="M36.5176,35.6977c-0.2559,0-0.5117-0.0976-0.707-0.2929L20.625,20.2182l-6.25,6.1949
					c-0.3921,0.3886-1.0244,0.3862-1.4146-0.0064c-0.3886-0.3926-0.3857-1.0254,0.0064-1.4145l7.664-7.5962l16.5938,16.5947
					c0.3906,0.3906,0.3906,1.0234,0,1.4141C37.0293,35.6001,36.7734,35.6977,36.5176,35.6977L36.5176,35.6977z"/>
			</g>
			<g>
				<path fill="#3D3437" d="M29.04,28.2202c-0.2558,0-0.5117-0.0977-0.707-0.293c-0.3906-0.3906-0.3906-1.0234,0-1.414
					L45.8642,8.9809l9.1201,9.1192c0.3907,0.3906,0.3907,1.0234,0,1.414c-0.3906,0.3907-1.0234,0.3907-1.414,0l-7.7061-7.705
					L29.747,27.9272C29.5517,28.1225,29.2959,28.2202,29.04,28.2202L29.04,28.2202z"/>
			</g>
		</g>
	</g>
</g>
</svg>
