<?xml version="1.0" encoding="utf-8"?>
<!-- Generator: Adobe Illustrator 17.1.0, SVG Export Plug-In . SVG Version: 6.00 Build 0)  -->
<!DOCTYPE svg PUBLIC "-//W3C//DTD SVG 1.1//EN" "http://www.w3.org/Graphics/SVG/1.1/DTD/svg11.dtd">
<svg version="1.1" id="crop-tool" xmlns="http://www.w3.org/2000/svg" xmlns:xlink="http://www.w3.org/1999/xlink" x="0px" y="0px"
	 viewBox="0 0 55.001 55" enable-background="new 0 0 55.001 55" xml:space="preserve">
<g id="crop-tool-crop-tool">
	<g>
		<polygon fill="#95BCA7" points="13.793,41.207 13.793,1 6.4829,1 6.4829,39.3789 6.4829,48.5166 15.6206,48.5166 54.001,48.5166 
			54.001,41.207 		"/>
		<path fill="#3D3437" d="M54.001,49.5166H6.4829c-0.5522,0-1-0.4473-1-1V1c0-0.5527,0.4478-1,1-1h7.3101c0.5522,0,1,0.4473,1,1
			v39.207h39.208c0.5522,0,1,0.4473,1,1v7.3096C55.001,49.0693,54.5532,49.5166,54.001,49.5166L54.001,49.5166z M7.4829,47.5166
			H53.001V42.207H13.793c-0.5523,0-1-0.4472-1-1V2H7.4829V47.5166L7.4829,47.5166z"/>
	</g>
	<g>
		<polygon fill="#9C705D" points="13.793,13.793 41.207,13.793 41.207,41.207 48.5181,41.207 48.5181,15.6211 48.5181,6.4834 
			39.3794,6.4834 13.793,6.4834 		"/>
		<path fill="#3D3437" d="M48.5181,42.207h-7.311c-0.5522,0-1-0.4472-1-1V14.793H13.793c-0.5523,0-1-0.4473-1-1V6.4834
			c0-0.5527,0.4477-1,1-1h34.7251c0.5522,0,1,0.4473,1,1V41.207C49.5181,41.7598,49.0703,42.207,48.5181,42.207L48.5181,42.207z
			 M42.207,40.207h5.311V7.4834H14.793v5.3096h26.414c0.5522,0,1,0.4472,1,1V40.207L42.207,40.207z"/>
	</g>
	<g>
		<rect x="1" y="6.4834" fill="#9C705D" width="5.4829" height="7.3096"/>
		<path fill="#3D3437" d="M6.4829,14.793H1c-0.5522,0-1-0.4473-1-1V6.4834c0-0.5527,0.4478-1,1-1h5.4829c0.5523,0,1,0.4473,1,1
			v7.3096C7.4829,14.3457,7.0352,14.793,6.4829,14.793L6.4829,14.793z M2,12.793h3.4829V7.4834H2V12.793L2,12.793z"/>
	</g>
	<g>
		<rect x="41.207" y="48.5166" fill="#9C705D" width="7.311" height="5.4834"/>
		<path fill="#3D3437" d="M48.5181,55h-7.311c-0.5522,0-1-0.4473-1-1v-5.4834c0-0.5527,0.4478-1,1-1h7.311c0.5522,0,1,0.4473,1,1V54
			C49.5181,54.5527,49.0703,55,48.5181,55L48.5181,55z M42.207,53h5.311v-3.4834h-5.311V53L42.207,53z"/>
	</g>
	<g>
		<path fill="#3D3437" d="M13.793,42.207c-0.2559,0-0.5117-0.0976-0.7071-0.2929c-0.3906-0.3907-0.3906-1.0235,0-1.4141
			L40.5,13.0859c0.3906-0.3906,1.0234-0.3906,1.4141,0c0.3906,0.3907,0.3906,1.0235,0,1.4141L14.5,41.9141
			C14.3047,42.1094,14.0488,42.207,13.793,42.207L13.793,42.207z"/>
	</g>
	<g>
		<path fill="#3D3437" d="M48.5181,7.4834c-0.2559,0-0.5117-0.0977-0.707-0.293c-0.3906-0.3906-0.3906-1.0234,0-1.414L53.294,0.293
			c0.3906-0.3907,1.0234-0.3907,1.414,0c0.3906,0.3906,0.3906,1.0234,0,1.414l-5.4829,5.4834
			C49.0298,7.3857,48.7739,7.4834,48.5181,7.4834L48.5181,7.4834z"/>
	</g>
	<g>
		<path fill="#3D3437" d="M1,55c-0.2558,0-0.5117-0.0977-0.707-0.293c-0.3906-0.3906-0.3906-1.0234,0-1.414l5.4829-5.4834
			c0.3906-0.3907,1.0234-0.3907,1.4141,0c0.3906,0.3906,0.3906,1.0234,0,1.414L1.707,54.707C1.5117,54.9023,1.2559,55,1,55L1,55z"/>
	</g>
</g>
</svg>
