<?xml version="1.0" encoding="utf-8"?>
<!-- Generator: Adobe Illustrator 17.1.0, SVG Export Plug-In . SVG Version: 6.00 Build 0)  -->
<!DOCTYPE svg PUBLIC "-//W3C//DTD SVG 1.1//EN" "http://www.w3.org/Graphics/SVG/1.1/DTD/svg11.dtd">
<svg version="1.1" id="cube" xmlns="http://www.w3.org/2000/svg" xmlns:xlink="http://www.w3.org/1999/xlink" x="0px" y="0px"
	 viewBox="0 0 51.3107 56.999" enable-background="new 0 0 51.3107 56.999" xml:space="preserve">
<g id="cube-cube">
	<g>
		<polygon fill="#95BCA7" points="25.6553,55.999 1,43.6719 1,13.3262 25.6553,25.6543 		"/>
		<path fill="#3D3437" d="M25.6553,56.999c-0.1533,0-0.3057-0.0352-0.4473-0.1055L0.5528,44.5664
			C0.2139,44.3965,0,44.0508,0,43.6719V13.3262c0-0.3467,0.1797-0.668,0.4746-0.8506c0.295-0.1836,0.6621-0.1982,0.9727-0.0439
			l24.6553,12.3281c0.3388,0.17,0.5527,0.5157,0.5527,0.8946V55.999c0,0.3467-0.1797,0.668-0.4746,0.8506
			C26.0205,56.9492,25.8379,56.999,25.6553,56.999L25.6553,56.999z M2,43.0537l22.6553,11.3271V26.2724L2,14.9443V43.0537L2,43.0537
			z"/>
	</g>
	<g>
		<polygon fill="#9C705D" points="25.6553,55.999 50.3106,43.6719 50.3106,13.3262 25.6553,25.6543 		"/>
		<path fill="#3D3437" d="M25.6553,56.999c-0.1826,0-0.3652-0.0498-0.5254-0.1494c-0.2949-0.1826-0.4746-0.5039-0.4746-0.8506
			V25.6543c0-0.3789,0.2139-0.7246,0.5527-0.8946l24.6553-12.3281c0.3096-0.1543,0.6777-0.1397,0.9727,0.0439
			c0.2949,0.1826,0.4746,0.5039,0.4746,0.8506v30.3458c0,0.3789-0.2139,0.7246-0.5528,0.8945L26.1026,56.8935
			C25.961,56.9638,25.8086,56.999,25.6553,56.999L25.6553,56.999z M26.6553,26.2724v28.1084l22.6553-11.3271V14.9443
			L26.6553,26.2724L26.6553,26.2724z"/>
	</g>
	<g>
		<polygon fill="#FFFFFF" points="1,13.3262 24.7071,0.999 50.3106,13.3262 25.6553,25.6543 		"/>
		<path fill="#3D3437" d="M25.6553,26.6543c-0.1533,0-0.3066-0.0352-0.4473-0.1055L0.5528,14.2207
			C0.2168,14.0527,0.003,13.71,0,13.334c-0.0029-0.376,0.2051-0.7217,0.5391-0.8955l23.707-12.3271
			c0.2793-0.1436,0.6123-0.1484,0.8946-0.0137l25.6035,12.3272c0.3437,0.166,0.5634,0.5127,0.5664,0.8936
			c0.0029,0.3818-0.2119,0.7314-0.5528,0.9023L26.1026,26.5488C25.9619,26.6191,25.8086,26.6543,25.6553,26.6543L25.6553,26.6543z
			 M3.2012,13.3086l22.4541,11.2275L48.041,13.3428L24.7246,2.1172L3.2012,13.3086L3.2012,13.3086z"/>
	</g>
</g>
</svg>
