<?xml version="1.0" encoding="utf-8"?>
<!-- Generator: Adobe Illustrator 17.1.0, SVG Export Plug-In . SVG Version: 6.00 Build 0)  -->
<!DOCTYPE svg PUBLIC "-//W3C//DTD SVG 1.1//EN" "http://www.w3.org/Graphics/SVG/1.1/DTD/svg11.dtd">
<svg version="1.1" id="eps-file" xmlns="http://www.w3.org/2000/svg" xmlns:xlink="http://www.w3.org/1999/xlink" x="0px" y="0px"
	 viewBox="0 0 45 58" enable-background="new 0 0 45 58" xml:space="preserve">
<g id="eps-file-eps-file">
	<g>
		<path fill="#FFFFFF" d="M31.4854,1H2.4629C1.6553,1,1,1.6553,1,2.9258V56c0,0.3447,0.6553,1,1.4629,1h40.0742
			C43.3457,57,44,56.3447,44,56V13.9785c0-0.6963-0.0928-0.9209-0.2578-1.0859L32.1074,1.2568C31.9424,1.0928,31.7188,1,31.4854,1z"
			/>
		<path fill="#3D3437" d="M42.5371,58H2.4629C1.2197,58,0,57.0093,0,56V2.9258C0,0.9155,1.2764,0,2.4629,0h29.0225
			c0.5009,0,0.9716,0.1943,1.3271,0.5479l11.6367,11.6376C44.9082,12.644,45,13.2114,45,13.9785V56
			C45,57.0093,43.7803,58,42.5371,58L42.5371,58z M2,55.8047C2.0918,55.8887,2.2705,56,2.4629,56h40.0742
			c0.1934,0,0.3711-0.1113,0.4629-0.1953V13.9785c0-0.2451-0.0137-0.375-0.0234-0.4375L31.4004,1.9639L2.4629,2
			C2.0332,2,2,2.7085,2,2.9258V55.8047L2,55.8047z"/>
	</g>
	<g>
		<path fill="#95BCA7" d="M42.5371,57H2.4629C1.6543,57,1,56.3447,1,55.5371V40h43v15.5371C44,56.3447,43.3447,57,42.5371,57z"/>
		<path fill="#3D3437" d="M42.5371,58H2.4629C1.1045,58,0,56.895,0,55.5371V39h45v16.5371C45,56.895,43.8955,58,42.5371,58
			L42.5371,58z M2,41v14.5371C2,55.7925,2.208,56,2.4629,56h40.0742C42.792,56,43,55.7925,43,55.5371V41H2L2,41z"/>
	</g>
	<g>
		<path fill="#9C705D" d="M32,2.3916V13h10.6094c0.457,0,0.6865-0.5537,0.3633-0.877L32.877,2.0283
			C32.5527,1.7041,32,1.9336,32,2.3916z"/>
		<path fill="#3D3437" d="M42.6094,14H31V2.3916c0-0.8354,0.6807-1.5151,1.5166-1.5151c0.4014,0,0.7803,0.1582,1.0674,0.4448
			L43.6797,11.416c0.4346,0.4341,0.5635,1.0816,0.3281,1.6494C43.7725,13.6333,43.2236,14,42.6094,14L42.6094,14z M33,12h8.4355
			L33,3.5654V12L33,12z"/>
	</g>
	<g>
		<g>
			<rect x="7.3223" y="31.5332" fill="#CB9D62" width="4.4677" height="4.4668"/>
			<path fill="#3D3437" d="M12.54,36.75H6.5723v-5.9668H12.54V36.75L12.54,36.75z M8.0723,35.25H11.04v-2.9668H8.0723V35.25
				L8.0723,35.25z"/>
		</g>
		<g>
			<path fill="#3D3437" d="M8.8135,31.3086c-0.0137-0.2476-0.2813-6.1133,3.5732-10.1812c2.3321-2.4599,5.6465-3.7075,9.8526-3.7075
				v1.5c-3.7725,0-6.7188,1.0869-8.7549,3.231c-3.4121,3.5908-3.1758,9.0239-3.1729,9.0781L8.8135,31.3086L8.8135,31.3086z"/>
		</g>
		<g>
			<polygon fill="#3D3437" points="35.8799,18.9199 9.1182,18.9199 9.1182,17.4199 35.8799,17.4199 35.8799,18.9199 			"/>
		</g>
		<g>
			<rect x="20.2139" y="16.0059" fill="#CB9D62" width="4.4668" height="4.4687"/>
			<path fill="#3D3437" d="M25.4307,21.2246h-5.9668v-5.9687h5.9668V21.2246L25.4307,21.2246z M20.9639,19.7246h2.9668v-2.9687
				h-2.9668V19.7246L20.9639,19.7246z"/>
		</g>
		<g>
			<g>
				<path fill="#FFFFFF" d="M39.499,18.1699c0,1.3809-1.1181,2.5-2.499,2.5c-1.3809,0-2.499-1.1191-2.499-2.5
					c0-1.3808,1.1181-2.5,2.499-2.5C38.3809,15.6699,39.499,16.7891,39.499,18.1699"/>
				<path fill="#3D3437" d="M37,21.4199c-1.792,0-3.249-1.458-3.249-3.25s1.457-3.25,3.249-3.25s3.249,1.458,3.249,3.25
					S38.792,21.4199,37,21.4199L37,21.4199z M37,16.4199c-0.9648,0-1.749,0.7852-1.749,1.75c0,0.9649,0.7842,1.75,1.749,1.75
					c0.9648,0,1.749-0.7851,1.749-1.75C38.749,17.2051,37.9648,16.4199,37,16.4199L37,16.4199z"/>
			</g>
			<g>
				<path fill="#FFFFFF" d="M10.499,18.1699c0,1.3809-1.1181,2.5-2.499,2.5c-1.3809,0-2.499-1.1191-2.499-2.5
					c0-1.3808,1.1181-2.5,2.499-2.5C9.3809,15.6699,10.499,16.7891,10.499,18.1699"/>
				<path fill="#3D3437" d="M8,21.4199c-1.792,0-3.249-1.458-3.249-3.25s1.457-3.25,3.249-3.25s3.249,1.458,3.249,3.25
					S9.792,21.4199,8,21.4199L8,21.4199z M8,16.4199c-0.9648,0-1.749,0.7852-1.749,1.75c0,0.9649,0.7842,1.75,1.749,1.75
					c0.9648,0,1.749-0.7851,1.749-1.75C9.749,17.2051,8.9648,16.4199,8,16.4199L8,16.4199z"/>
			</g>
		</g>
	</g>
	<g>
		<path fill="#3D3437" d="M12.9189,46.0605v2.2676h4.1016v1.2715h-4.1016v2.3145h4.7256v1.2714h-6.1406v-8.3964H17.5v1.2714H12.9189
			z"/>
		<path fill="#3D3437" d="M22.8418,44.7891c2.1113,0,3.3223,1.0439,3.3223,2.8671c0,1.8946-1.211,2.9981-3.3223,2.9981h-1.9307
			v2.5312h-1.415v-8.3964H22.8418z M20.9111,49.3828h1.8711c1.2949,0,2.0264-0.5508,2.0264-1.6914
			c0-1.1025-0.7315-1.6309-2.0264-1.6309h-1.8711V49.3828z"/>
		<path fill="#3D3437" d="M33.3877,45.5937l-0.5869,1.2461c-0.9121-0.5507-1.8233-0.7793-2.459-0.7793
			c-0.8272,0-1.3672,0.3125-1.3672,0.876c0,1.835,4.5332,0.8516,4.5215,3.874c0,1.4991-1.3193,2.4219-3.166,2.4219
			c-1.3194,0-2.5664-0.539-3.4307-1.3301l0.6123-1.2246c0.8633,0.793,1.9424,1.2246,2.8418,1.2246
			c0.9834,0,1.5713-0.373,1.5713-1.0195c0-1.8711-4.5332-0.8281-4.5332-3.8144c0-1.4395,1.2354-2.3389,3.0586-2.3389
			C31.541,44.7295,32.6084,45.0781,33.3877,45.5937z"/>
	</g>
</g>
</svg>
