<?xml version="1.0" encoding="utf-8"?>
<!-- Generator: Adobe Illustrator 17.1.0, SVG Export Plug-In . SVG Version: 6.00 Build 0)  -->
<!DOCTYPE svg PUBLIC "-//W3C//DTD SVG 1.1//EN" "http://www.w3.org/Graphics/SVG/1.1/DTD/svg11.dtd">
<svg version="1.1" id="eye-dropper" xmlns="http://www.w3.org/2000/svg" xmlns:xlink="http://www.w3.org/1999/xlink" x="0px"
	 y="0px" viewBox="0 0 56.7173 56.7281" enable-background="new 0 0 56.7173 56.7281" xml:space="preserve">
<g id="eye-dropper-eye-dropper">
	<g>
		<path fill="#95BCA7" d="M7.7031,14.8247L2.5742,9.6968C0.7295,7.8531,0.4141,4.8589,2.0635,2.8394
			c1.8916-2.3184,5.3506-2.4453,7.415-0.3809l5.2949,5.2949c1.5469,1.5469,4.0547,1.5469,5.6016,0l0.582-0.582
			c0.4746-0.4746,1.2451-0.4746,1.7207,0l3.9356,3.9375c0.4765,0.4736,0.4756,1.2461,0,1.7207l-13.836,13.834
			c-0.4736,0.4766-1.2461,0.4756-1.7207,0.001L7.1211,22.729c-0.4746-0.4756-0.4746-1.2461,0-1.7216l0.582-0.5821
			C9.25,18.8784,9.25,16.3716,7.7031,14.8247z"/>
		<path fill="#3D3437" d="M11.9175,28.0205c-0.5928,0-1.1494-0.2304-1.5679-0.6489l-3.9355-3.9355
			c-0.8633-0.8648-0.8633-2.271-0.001-3.1353l0.583-0.5825c0.5591-0.5596,0.8672-1.3027,0.8672-2.0933
			c0-0.7905-0.3081-1.5337-0.8672-2.0932l-5.1289-5.128c-2.2456-2.2441-2.4995-5.8447-0.5781-8.1967
			C2.4331,0.8042,4.1294,0,5.9424,0c1.6069,0,3.1137,0.6221,4.2431,1.7515l5.295,5.2949c1.1191,1.1182,3.0683,1.1182,4.1875,0
			l0.582-0.582c0.8369-0.8369,2.2964-0.8369,3.1343-0.001l3.9365,3.9385c0.4175,0.415,0.6489,0.9712,0.6494,1.5644
			c0.0005,0.5938-0.2305,1.1519-0.6504,1.5713l-13.8354,13.833C13.0688,27.7891,12.5112,28.0205,11.9175,28.0205L11.9175,28.0205z
			 M5.9424,2c-1.2095,0-2.3408,0.5362-3.104,1.4717C1.5586,5.0386,1.7529,7.4624,3.2812,8.9893l5.129,5.1284
			c0.937,0.937,1.4531,2.1826,1.4531,3.5073c0,1.3247-0.5161,2.5703-1.4531,3.5074l-0.5821,0.582
			c-0.084,0.0845-0.084,0.2231,0.001,0.3081l3.9346,3.935c0.103,0.1026,0.2007,0.1045,0.3042,0.001l13.8383-13.8359
			c0.0533-0.0532,0.064-0.1133,0.064-0.1543c0-0.0405-0.0107-0.0991-0.062-0.1499l-3.938-3.94c-0.103-0.1035-0.2016-0.1054-0.3061,0
			L21.082,8.4605c-0.937,0.937-2.1826,1.4531-3.5078,1.4531c-1.3252,0-2.5708-0.5161-3.5078-1.4531L8.7715,3.1656
			C8.0195,2.4141,7.0151,2,5.9424,2L5.9424,2z"/>
	</g>
	<g>
		<path fill="#CCCCCC" d="M15.4531,23.9898l8.4844-8.4844L45.7466,37.313c1.4512,1.4483,2.5215,3.2334,3.1211,5.1963l0.0234,0.0752
			c0.5996,1.9609,1.6699,3.7441,3.1211,5.1963l3.7051,3.7051l-4.2422,4.2422l-3.668-3.668
			c-1.4726-1.4746-3.2929-2.5567-5.289-3.1504c-2.002-0.5928-3.8203-1.6768-5.295-3.1504L15.4531,23.9898z"/>
		<path fill="#3D3437" d="M51.4751,56.7281c-0.2559,0-0.5117-0.0977-0.707-0.293l-3.668-3.668
			c-1.3491-1.3506-3.0317-2.353-4.8672-2.8989c-2.1499-0.6367-4.1269-1.813-5.7168-3.4014l-21.77-21.77
			c-0.1875-0.1875-0.293-0.4419-0.293-0.707c0-0.2652,0.1055-0.5196,0.293-0.7071l8.4844-8.4843
			c0.3906-0.3907,1.0234-0.3907,1.414,0L46.4536,36.606c1.5586,1.5552,2.7241,3.4961,3.3706,5.6113
			c0.5733,1.8731,1.5664,3.5269,2.8955,4.8565l3.7046,3.705c0.3906,0.3907,0.3906,1.0235,0,1.4141l-4.2422,4.2422
			C51.9868,56.6304,51.731,56.7281,51.4751,56.7281L51.4751,56.7281z M16.8672,23.9898l21.063,21.0625
			c1.3545,1.3535,3.039,2.3559,4.8716,2.8984c2.1547,0.6411,4.1298,1.8174,5.7128,3.4028l2.9605,2.9605l2.8281-2.8281l-2.998-2.9981
			c-1.5601-1.5605-2.7251-3.501-3.3701-5.6108c-0.5743-1.8779-1.5674-3.5313-2.8951-4.856L23.9375,16.9195L16.8672,23.9898
			L16.8672,23.9898z"/>
	</g>
	<g>
		<path fill="#3D3437" d="M35.8892,33.8999c-0.2559,0-0.5118-0.0976-0.7071-0.2929l-9.8989-9.8995
			c-0.3906-0.3906-0.3906-1.0234,0-1.414s1.0234-0.3906,1.4141,0l9.8989,9.8994c0.3906,0.3906,0.3906,1.0234,0,1.4141
			C36.4009,33.8023,36.145,33.8999,35.8892,33.8999L35.8892,33.8999z"/>
	</g>
	<g>
		<path fill="#3D3437" d="M38.2837,35.2925c-0.3887,0.3906-0.3906,1.0234,0,1.4141c0.3906,0.3906,1.0254,0.3906,1.4141,0.0019
			c0.3906-0.3906,0.3906-1.0254,0-1.415C39.3071,34.9019,38.6743,34.9029,38.2837,35.2925"/>
		<path fill="#3D3437" d="M38.9927,37.5c-0.0005,0-0.0005,0-0.0005,0c-0.4014-0.0005-0.7783-0.1562-1.062-0.4399
			c-0.5835-0.5835-0.584-1.5347-0.001-2.1201c0.5698-0.5689,1.5566-0.5674,2.1226,0.0005c0.2827,0.2817,0.4384,0.6582,0.4389,1.059
			c0.0005,0.4019-0.1557,0.7789-0.4394,1.0625C39.769,37.3443,39.3931,37.5,38.9927,37.5L38.9927,37.5z M38.9907,35.5
			c-0.1333,0-0.2593,0.0523-0.354,0.1465c-0.1933,0.1944-0.1938,0.5122,0.0005,0.7066c0.1885,0.1884,0.5195,0.1884,0.707,0.0019
			c0.0948-0.0947,0.1465-0.2207,0.1465-0.3545s-0.0517-0.2593-0.146-0.353C39.2495,35.5523,39.124,35.5,38.9907,35.5L38.9907,35.5z"
			/>
	</g>
	<g>
		<path fill="#3D3437" d="M12.6592,11.3892c-0.2466,0-0.4932-0.0903-0.6865-0.273L7.21,6.6211
			C6.8086,6.2422,6.79,5.6094,7.1694,5.2075C7.5478,4.8052,8.1807,4.7876,8.583,5.167l4.7627,4.4951
			c0.4014,0.3789,0.4199,1.0118,0.0405,1.4136C13.1899,11.2842,12.9248,11.3892,12.6592,11.3892L12.6592,11.3892z"/>
	</g>
</g>
</svg>
