<?xml version="1.0" encoding="utf-8"?>
<!-- Generator: Adobe Illustrator 17.1.0, SVG Export Plug-In . SVG Version: 6.00 Build 0)  -->
<!DOCTYPE svg PUBLIC "-//W3C//DTD SVG 1.1//EN" "http://www.w3.org/Graphics/SVG/1.1/DTD/svg11.dtd">
<svg version="1.1" id="idea-bulb" xmlns="http://www.w3.org/2000/svg" xmlns:xlink="http://www.w3.org/1999/xlink" x="0px" y="0px"
	 viewBox="0 0 55.5195 60" enable-background="new 0 0 55.5195 60" xml:space="preserve">
<g id="idea-bulb-idea-bulb">
	<g>
		<path fill="#95BCA7" d="M34.6397,52.3301c0,4.0058-2.8233,6.6699-6.8291,6.6699c-4.0049,0-7.0909-2.6641-7.0909-6.6699"/>
		<path fill="#3D3437" d="M27.8106,60c-4.6885,0-8.0909-3.2256-8.0909-7.6699c0-0.5528,0.4473-1,1-1c0.5528,0,1,0.4472,1,1
			c0,3.3379,2.5049,5.6699,6.0909,5.6699c3.4863,0,5.8291-2.2783,5.8291-5.6699c0-0.5528,0.4472-1,1-1c0.5527,0,1,0.4472,1,1
			C35.6397,56.8457,32.4199,60,27.8106,60L27.8106,60z"/>
	</g>
	<g>
		<polyline fill="#9C705D" points="34.6397,39.5703 34.6397,52.3301 20.7197,52.3301 20.7197,39.5703 		"/>
		<path fill="#3D3437" d="M34.6397,53.3301h-13.92c-0.5527,0-1-0.4473-1-1V39.5703c0-0.5527,0.4473-1,1-1c0.5528,0,1,0.4473,1,1
			v11.7598h11.92V39.5703c0-0.5527,0.4472-1,1-1c0.5527,0,1,0.4473,1,1v12.7598C35.6397,52.8828,35.1924,53.3301,34.6397,53.3301
			L34.6397,53.3301z"/>
	</g>
	<g>
		<path fill="#3D3437" d="M13.7324,4.9004c-0.2558,0-0.5117-0.0977-0.707-0.293L10.125,1.707c-0.3906-0.3906-0.3906-1.0234,0-1.414
			c0.3906-0.3907,1.0234-0.3907,1.4141,0l2.9004,2.9004c0.3906,0.3906,0.3906,1.0234,0,1.414
			C14.2442,4.8027,13.9883,4.9004,13.7324,4.9004L13.7324,4.9004z"/>
	</g>
	<g>
		<path fill="#3D3437" d="M42.7324,4.9004c-0.2558,0-0.5117-0.0977-0.707-0.293c-0.3906-0.3906-0.3906-1.0234,0-1.414l2.9004-2.9004
			c0.3906-0.3907,1.0234-0.3907,1.4141,0c0.3906,0.3906,0.3906,1.0234,0,1.414l-2.9004,2.9004
			C43.2442,4.8027,42.9883,4.9004,42.7324,4.9004L42.7324,4.9004z"/>
	</g>
	<g>
		<path fill="#3D3437" d="M10.832,39.7002c-0.2558,0-0.5117-0.0977-0.707-0.293c-0.3906-0.3906-0.3906-1.0234,0-1.414l2.9004-2.9004
			c0.3906-0.3907,1.0234-0.3907,1.4141,0c0.3906,0.3906,0.3906,1.0234,0,1.414l-2.9004,2.9004
			C11.3438,39.6025,11.0879,39.7002,10.832,39.7002L10.832,39.7002z"/>
	</g>
	<g>
		<path fill="#3D3437" d="M45.6328,39.7002c-0.2558,0-0.5117-0.0977-0.707-0.293l-2.9004-2.9004
			c-0.3906-0.3906-0.3906-1.0234,0-1.414c0.3906-0.3907,1.0234-0.3907,1.4141,0l2.9004,2.9004c0.3906,0.3906,0.3906,1.0234,0,1.414
			C46.1445,39.6025,45.8887,39.7002,45.6328,39.7002L45.6328,39.7002z"/>
	</g>
	<g>
		<path fill="#3D3437" d="M5.6397,20.8496H1c-0.5527,0-1-0.4473-1-1s0.4473-1,1-1h4.6397c0.5527,0,1,0.4473,1,1
			S6.1924,20.8496,5.6397,20.8496L5.6397,20.8496z"/>
	</g>
	<g>
		<path fill="#3D3437" d="M54.5195,20.8496h-4.6406c-0.5527,0-1-0.4473-1-1s0.4473-1,1-1h4.6406c0.5528,0,1,0.4473,1,1
			S55.0723,20.8496,54.5195,20.8496L54.5195,20.8496z"/>
	</g>
	<g>
		<path fill="#FFFFFF" d="M40.5352,7.5479c-6.793-6.794-17.8086-6.794-24.6055,0c-6.7969,6.791-6.9277,17.8105-0.1309,24.6054
			c1.502,1.5,2.6016,2.6172,4.9209,3.4541v5.1231h13.92v-5.1231c2.3193-0.8369,3.9736-1.9541,5.4736-3.4541
			C46.9102,25.3584,47.3311,14.3418,40.5352,7.5479z"/>
		<path fill="#3D3437" d="M34.6397,41.7305h-13.92c-0.5527,0-1-0.4473-1-1V36.29c-2.0644-0.8691-3.1855-1.9892-4.5713-3.373
			c-3.5263-3.5254-5.4179-8.1494-5.3818-13.0752c0.0361-4.9043,1.9736-9.5215,5.4561-13.001
			c3.4765-3.4746,8.0966-5.3887,13.0117-5.3887c4.914,0,9.5332,1.9141,13.0078,5.3887c3.457,3.4561,5.2959,8.084,5.1787,13.0332
			c-0.1152,4.8789-2.1045,9.4912-5.6006,12.9864c-1.5439,1.5449-3.164,2.622-5.1806,3.4355v4.4346
			C35.6397,41.2832,35.1924,41.7305,34.6397,41.7305L34.6397,41.7305z M21.7197,39.7305h11.92v-4.1231
			c0-0.4219,0.2646-0.7978,0.6601-0.9404c2.0401-0.7363,3.6153-1.7295,5.1065-3.2207c3.1308-3.1299,4.9121-7.2568,5.0156-11.6201
			c0.1035-4.3965-1.5274-8.5059-4.5938-11.5713c-3.0966-3.0967-7.2138-4.8028-11.5937-4.8028c-4.3809,0-8.499,1.7061-11.5977,4.8028
			c-3.1084,3.1064-4.8379,7.2256-4.8701,11.6015c-0.0322,4.3858,1.6504,8.502,4.7393,11.5899
			c1.5117,1.5098,2.4726,2.4697,4.5537,3.2207c0.3955,0.1426,0.6601,0.5185,0.6601,0.9404V39.7305L21.7197,39.7305z"/>
	</g>
	<g>
		<path fill="#3D3437" d="M20.0313,29.0518c-0.2559,0-0.5118-0.0977-0.7071-0.293c-2.3808-2.3809-3.6924-5.544-3.6924-8.9072
			c0-3.3643,1.3116-6.5284,3.6924-8.9102c0.3907-0.3906,1.0235-0.3906,1.4141,0c0.3906,0.3906,0.3906,1.0234,0,1.4141
			c-2.0029,2.0039-3.1065,4.666-3.1065,7.4961c0,2.8291,1.1036,5.4902,3.1065,7.4931c0.3906,0.3907,0.3906,1.0235,0,1.4141
			C20.543,28.9541,20.2871,29.0518,20.0313,29.0518L20.0313,29.0518z"/>
	</g>
	<g>
		<path fill="#3D3437" d="M33.6289,49.6162H21.7305c-0.5528,0-1-0.4473-1-1s0.4472-1,1-1h11.8984c0.5528,0,1,0.4473,1,1
			S34.1817,49.6162,33.6289,49.6162L33.6289,49.6162z"/>
	</g>
	<g>
		<path fill="#3D3437" d="M33.6289,45.6172H21.7305c-0.5528,0-1-0.4473-1-1s0.4472-1,1-1h11.8984c0.5528,0,1,0.4473,1,1
			S34.1817,45.6172,33.6289,45.6172L33.6289,45.6172z"/>
	</g>
</g>
</svg>
