<?xml version="1.0" encoding="utf-8"?>
<!-- Generator: Adobe Illustrator 17.1.0, SVG Export Plug-In . SVG Version: 6.00 Build 0)  -->
<!DOCTYPE svg PUBLIC "-//W3C//DTD SVG 1.1//EN" "http://www.w3.org/Graphics/SVG/1.1/DTD/svg11.dtd">
<svg version="1.1" id="jpg-image" xmlns="http://www.w3.org/2000/svg" xmlns:xlink="http://www.w3.org/1999/xlink" x="0px" y="0px"
	 viewBox="0 0 45.0002 58" enable-background="new 0 0 45.0002 58" xml:space="preserve">
<g id="jpg-image-jpg-image">
	<path fill="#CB9D62" d="M31.4855,1H2.463C1.6554,1,1.0001,1.6553,1.0001,2.9258V56c0,0.3447,0.6553,1,1.4629,1h40.0742
		c0.8086,0,1.4629-0.6553,1.4629-1V13.9785c0-0.6963-0.0928-0.9209-0.2578-1.0859L32.1075,1.2568
		C31.9425,1.0928,31.7189,1,31.4855,1z"/>
	<path fill="#95BCA7" d="M2.0001,39.25c4-3,15.5-12.75,15.5-12.75l11.5,13.25L2.0001,39.25z"/>
	<polyline fill="#95BCA7" points="34.0001,19.75 23.5001,31.25 30.0001,39.75 44.0001,39.75 44.0001,31.75 	"/>
	<g>
		<path fill="#3D3437" d="M42.5372,58H2.463c-1.2432,0-2.4629-0.9907-2.4629-2V2.9258C0.0001,0.9155,1.277,0,2.463,0h29.0225
			c0.5004,0,0.9716,0.1943,1.3271,0.5479l11.6367,11.6376c0.4585,0.4585,0.5508,1.0259,0.5508,1.793V56
			C45.0001,57.0093,43.7804,58,42.5372,58L42.5372,58z M2.0001,55.8047C2.0919,55.8887,2.2701,56,2.463,56h40.0742
			c0.1929,0,0.3711-0.1113,0.4629-0.1953V13.9785c0-0.2451-0.0137-0.375-0.0234-0.4375L31.4005,1.9639L2.463,2
			C2.0333,2,2.0001,2.7085,2.0001,2.9258V55.8047L2.0001,55.8047z"/>
	</g>
	<g>
		<path fill="#FFFFFF" d="M42.5372,57H2.463c-0.8086,0-1.4629-0.6553-1.4629-1.4629V40h43v15.5371
			C44.0001,56.3447,43.3448,57,42.5372,57z"/>
		<path fill="#3D3437" d="M42.5372,58H2.463c-1.3579,0-2.4629-1.105-2.4629-2.4629V39h45v16.5371
			C45.0001,56.895,43.8951,58,42.5372,58L42.5372,58z M2.0001,41v14.5371C2.0001,55.7925,2.2076,56,2.463,56h40.0742
			c0.2554,0,0.4629-0.2075,0.4629-0.4629V41H2.0001L2.0001,41z"/>
	</g>
	<g>
		<path fill="#3D3437" d="M44.0006,33c-0.2935,0-0.584-0.1284-0.7813-0.3755l-9.2695-11.5864l-9.7114,10.6362
			c-0.3721,0.4072-1.0044,0.4375-1.4126,0.064c-0.4077-0.3721-0.4365-1.0049-0.064-1.4126l10.5-11.5
			c0.1968-0.2163,0.4575-0.3443,0.771-0.3252c0.292,0.0098,0.5654,0.1465,0.7481,0.375l10,12.5
			c0.3452,0.4311,0.2754,1.0605-0.1563,1.4053C44.4405,32.9282,44.2198,33,44.0006,33L44.0006,33z"/>
	</g>
	<g>
		<path fill="#3D3437" d="M1.0006,41c-0.2832,0-0.5645-0.1196-0.7622-0.3521c-0.3579-0.4204-0.3071-1.0517,0.1138-1.4096
			l17.0151-14.4815c0.0708-0.0605,0.1489-0.1103,0.2324-0.1484l0,0c0.0005-0.0005,0.0015-0.001,0.0025-0.0015l0,0
			c0.0009-0.0005,0.0014-0.0005,0.0024-0.0009l0,0c0.001-0.0005,0.0015-0.001,0.0024-0.001l0,0
			c0.001-0.0005,0.0015-0.001,0.0025-0.0015l0,0c0.001,0,0.0014-0.0005,0.0024-0.001c0,0,0.002-0.0009,0.0025-0.0009
			c-0.0005-0.0005,0.0009-0.0015,0.0024-0.001l0.0005-0.0005c0.0005,0,0.0015-0.0005,0.0024-0.001l0,0
			c0.001-0.0005,0.0015-0.0005,0.0025-0.001l0,0c0.0009-0.0004,0.0014-0.0004,0.0024-0.0009l0,0
			c0.001-0.0005,0.0015-0.001,0.0025-0.001l0,0c0.0009-0.0005,0.0019-0.001,0.0024-0.0015H17.63
			c0.001-0.0005,0.0024-0.0005,0.0024-0.0005s0.0015-0.0009,0.0025-0.0014l0,0c0.0009-0.0005,0.0014-0.0005,0.0024-0.001l0,0
			c0.001-0.0005,0.0015-0.0005,0.0024-0.001l0,0c0.001-0.0005,0.002-0.001,0.002-0.001h0.0005
			c0.0952-0.0385,0.1953-0.0625,0.2983-0.0703l0,0c0.001,0,0.0015,0,0.0025,0l0,0c0.0009,0,0.0019-0.0005,0.0029-0.0005l0,0
			c0.001,0,0.002,0,0.002,0h0.0009c0,0,0.0015,0,0.0025,0c0,0,0.0014-0.0004,0.0024-0.0004h0.0005c0.001,0,0.0015,0,0.0024,0h0.0005
			c0.0005,0,0.0015,0,0.0025-0.0005c0,0,0.0014,0,0.0024,0s0.001,0,0.0029,0h0.0005c0.002,0,0.002,0.0005,0.003-0.0005
			c0,0,0.0019,0,0.0029,0c0.0005,0,0.001,0,0.0019,0c0,0,0.0015,0,0.0025,0h0.001c0.0019,0,0.0019,0.0005,0.0029-0.0005
			c0,0,0.001,0,0.0019,0c0,0,0.0015,0,0.0025,0c0.001,0,0.0019,0,0.0029,0s0.002,0,0.0029,0h0.0015c0,0,0.001,0,0.0029,0
			c0,0,0.001,0,0.003-0.0005c0,0,0.0009,0,0.0029,0h0.0005c0.001,0,0.0015,0,0.0024,0h0.0005c0.002,0,0.0029,0,0.0029,0
			c0.0049-0.0005,0.0118-0.001,0.0166,0h0.0005c0,0,0.0015,0,0.0025,0c0,0,0.001,0,0.0029,0c0,0,0.001,0,0.0029,0l0,0
			c0.002,0,0.003,0,0.003,0c0.0009,0,0.0019,0,0.0029,0l0,0c0.001,0,0.002,0,0.0029,0.0005l0,0
			c0.0254,0.0005,0.0513,0.0019,0.0772,0.0044c0.0117,0.0014,0.0239,0.0029,0.0361,0.0044l0,0c0.001,0,0.002,0.0005,0.0029,0.0005
			c0,0,0.001,0.0005,0.003,0.0005h0.0005c0.0009,0,0.0019,0,0.0029,0.0004c0,0,0.0015,0,0.0029,0.0005h0.0005
			c0.0015,0,0.0024,0.001,0.0034,0.0005c0.0005,0,0.0015,0,0.0025,0.0005c0,0,0.0019-0.0005,0.0029,0.0005
			c0.001,0,0.0019-0.0005,0.0029,0.0005c0.001,0,0.0015-0.0005,0.0034,0.0005c0,0,0.002,0.0005,0.003,0.0005
			c0.0009,0,0.0019,0.0004,0.0029,0.0004c0.001,0,0.002,0,0.0029,0.0005c0.001-0.0005,0.0025,0.0005,0.0034,0.0005
			c0.0015,0.0005,0.002,0.0005,0.003,0.0005c0.0005,0,0.001,0.0005,0.0019,0.0005c0,0,0.002,0.0005,0.003,0.0005
			c0.0009,0,0.0019,0.001,0.0034,0.0005c-0.0005,0.0005,0.001,0.0005,0.0029,0.0005c0.001,0.0009,0.002,0,0.0029,0.0009
			c0.0005-0.0009,0.002,0.0005,0.0035,0.0005h0.0004c0.002,0.001,0.0025,0,0.0035,0.001c0,0,0.0014,0,0.0024,0.0005
			c-0.0005,0,0.001,0,0.0029,0.0005h0.0005c0.002,0.001,0.0025,0,0.0034,0.001c0,0,0.0015,0,0.0025,0.0005h0.0005
			c0.0009,0,0.0014,0.0004,0.0024,0.0004h0.0005c0.002,0.001,0.0029,0.001,0.0029,0.001c0.001,0,0.002,0,0.003,0.0005
			c0,0,0.0019,0.001,0.0029,0.0005c-0.0005,0.0005,0.0019-0.0005,0.0029,0.001c0.0005,0,0.0005,0,0.0005,0
			c0.001,0,0.002,0.0005,0.0029,0.0005c0,0,0,0,0.003,0.0009h0.0005c0.0019,0,0.0029,0,0.0029,0.001c0.001,0,0.0019,0,0.0029,0.0005
			l0,0c0.0015,0.001,0.0025,0.0039,0.0029,0.001c0.001,0,0.002,0.0005,0.003,0.0005h0.0005
			c0.0019,0.0005,0.0034,0.0014,0.0029,0.0009c0.001,0,0.0019,0.0005,0.0029,0.0005l0,0c0.001,0.0005,0.002,0.0005,0.0029,0.001l0,0
			c0.001,0.0005,0.002,0.0005,0.003,0.001l0,0c0.0014,0,0.0024,0.0005,0.0034,0.0005l0,0c0.001,0.0005,0.002,0.0005,0.0029,0.0009
			l0,0c0.2051,0.0562,0.3887,0.1773,0.522,0.3467l10.9648,13.9668c0.1441,0.1836,0.2134,0.4014,0.2134,0.6177
			c0,0.2959-0.1313,0.5894-0.3823,0.7866c-0.4341,0.3408-1.0635,0.2656-1.4043-0.1689l-10.311-13.1343L3.6612,39.5005
			c-0.2309,0.2031-0.5307,0.2798-0.811,0.2383L1.648,40.7617C1.4601,40.9219,1.2296,41,1.0006,41L1.0006,41z"/>
	</g>
	<g>
		<path fill="#FFFFFF" d="M32.0001,2.3916V13h10.6094c0.457,0,0.6865-0.5537,0.3633-0.877L32.8771,2.0283
			C32.5528,1.7041,32.0001,1.9336,32.0001,2.3916z"/>
		<path fill="#3D3437" d="M42.6095,14H31.0001V2.3916c0-0.8354,0.6807-1.5151,1.5171-1.5151c0.4014,0,0.7803,0.1582,1.0669,0.4448
			L43.6798,11.416c0.4346,0.4341,0.563,1.0816,0.3276,1.6494C43.7726,13.6333,43.2237,14,42.6095,14L42.6095,14z M33.0001,12h8.4355
			l-8.4355-8.4346V12L33.0001,12z"/>
	</g>
	<g>
		<circle fill="#FFFFFF" cx="10.0001" cy="18.0693" r="4.5684"/>
		<path fill="#3D3437" d="M10.0001,23.6377c-3.0703,0-5.5684-2.4981-5.5684-5.5684c0-3.0708,2.4981-5.5693,5.5684-5.5693
			s5.5684,2.4985,5.5684,5.5693C15.5685,21.1396,13.0704,23.6377,10.0001,23.6377L10.0001,23.6377z M10.0001,14.5
			c-1.9678,0-3.5684,1.6011-3.5684,3.5693c0,1.9678,1.6006,3.5684,3.5684,3.5684s3.5684-1.6006,3.5684-3.5684
			C13.5685,16.1011,11.9679,14.5,10.0001,14.5L10.0001,14.5z"/>
	</g>
	<g>
		<path fill="#3D3437" d="M16.3556,50.5762c0,1.6914-0.9961,2.6504-2.6153,2.6504c-1.0058,0-1.8457-0.4434-2.4707-1.211
			l0.6719-1.0801c0.5527,0.5997,1.2129,0.9239,1.7871,0.9239c0.7559,0,1.1992-0.4678,1.1992-1.3321V46.043h-2.9023v-1.2715h4.3301
			V50.5762z"/>
		<path fill="#3D3437" d="M21.8517,44.7715c2.1113,0,3.3222,1.043,3.3222,2.8662c0,1.8955-1.2109,2.998-3.3222,2.998H19.922v2.5303
			h-1.416v-8.3945H21.8517z M19.922,49.3652h1.8711c1.2949,0,2.0254-0.5527,2.0254-1.6914c0-1.1035-0.7305-1.6308-2.0254-1.6308
			H19.922V49.3652z"/>
		<path fill="#3D3437" d="M33.6817,49.041v3.0938c-0.8515,0.6484-2.1113,1.0918-3.2617,1.0918c-2.4824,0-4.414-1.8594-4.414-4.2579
			c0-2.3984,1.955-4.2333,4.498-4.2333c1.1992,0,2.3984,0.456,3.2266,1.1748l-0.8047,1.0439c-0.6465-0.6006-1.5469-0.96-2.4219-0.96
			c-1.7148,0-3.0586,1.3077-3.0586,2.9746c0,1.6797,1.3555,2.9864,3.0703,2.9864c0.6231,0,1.3321-0.2158,1.9317-0.5762V49.041
			H33.6817z"/>
	</g>
</g>
</svg>
