<?xml version="1.0" encoding="utf-8"?>
<!-- Generator: Adobe Illustrator 17.1.0, SVG Export Plug-In . SVG Version: 6.00 Build 0)  -->
<!DOCTYPE svg PUBLIC "-//W3C//DTD SVG 1.1//EN" "http://www.w3.org/Graphics/SVG/1.1/DTD/svg11.dtd">
<svg version="1.1" id="laptop-pencil-ruler" xmlns="http://www.w3.org/2000/svg" xmlns:xlink="http://www.w3.org/1999/xlink"
	 x="0px" y="0px" viewBox="0 0 63.998 42" enable-background="new 0 0 63.998 42" xml:space="preserve">
<g id="laptop-pencil-ruler-laptop-pencil-ruler">
	<path fill="#FFFFFF" d="M58.998,35.999V4c0-1.6563-1.3427-3-3-3H8.0005C6.3437,1,5,2.3437,5,4v31.999"/>
	<g>
		<path fill="#3D3437" d="M59.998,34h-2V4c0-1.1025-0.8969-2-2-2H8.0005C6.8974,2,6,2.8975,6,4v30H4V4c0-2.2061,1.7944-4,4.0005-4
			H55.998c2.2056,0,4,1.7939,4,4V34L59.998,34z"/>
	</g>
	<rect x="8.0005" y="4" fill="#CB9D62" width="47.9975" height="28.001"/>
	<g>
		<g id="laptop-pencil-ruler-pencil">
			<g>
				<polygon fill="#FFFFFF" points="45.7988,28.2393 50.706,25.7871 45.7988,23.332 				"/>
				<rect x="17.5561" y="23.332" fill="#95BCA7" width="28.2427" height="4.9073"/>
				<rect x="13.2929" y="23.332" fill="#9C705D" width="4.2632" height="4.9073"/>
			</g>
			<g>
				<g>
					<path fill="#3D3437" d="M45.7988,29.2393H13.2929c-0.5522,0-1-0.4473-1-1V23.332c0-0.5527,0.4478-1,1-1h32.5059
						c0.1553,0,0.3086,0.0362,0.4473,0.1055l4.9072,2.4551c0.3389,0.1699,0.5527,0.5156,0.5527,0.8945s-0.2143,0.7256-0.5532,0.8945
						l-4.9072,2.4522C46.1069,29.2031,45.9541,29.2393,45.7988,29.2393L45.7988,29.2393z M14.2929,27.2393H45.563l2.9072-1.4532
						l-2.9077-1.4541H14.2929V27.2393L14.2929,27.2393z"/>
				</g>
				<g>
					<path fill="#3D3437" d="M17.5561,28.6758c-0.5522,0-1-0.4473-1-1v-4.0762c0-0.5527,0.4478-1,1-1c0.5523,0,1,0.4473,1,1v4.0762
						C18.5561,28.2285,18.1084,28.6758,17.5561,28.6758L17.5561,28.6758z"/>
				</g>
			</g>
		</g>
		<g id="laptop-pencil-ruler-rule-icon">
			<g>
				<rect x="13.2929" y="8.2354" fill="#FFFFFF" width="37.4131" height="9.6552"/>
				<path fill="#3D3437" d="M51.706,18.8906H12.2929V7.2354H51.706V18.8906L51.706,18.8906z M14.2929,16.8906H49.706V9.2354H14.2929
					V16.8906L14.2929,16.8906z"/>
			</g>
			<g>
				<polygon fill="#3D3437" points="48.1396,12.8184 46.0029,12.8184 46.0029,10.8184 48.1396,10.8184 48.1396,12.8184 				"/>
			</g>
			<g>
				<g>
					<polygon fill="#3D3437" points="19.394,17.6582 17.394,17.6582 17.394,14.2559 19.394,14.2559 19.394,17.6582 					"/>
				</g>
				<g>
					<polygon fill="#3D3437" points="22.7939,17.6582 20.7939,17.6582 20.7949,15.6172 22.7949,15.6172 22.7939,17.6582 					"/>
				</g>
				<g>
					<polygon fill="#3D3437" points="26.1972,17.6582 24.1972,17.6582 24.1972,14.2559 26.1972,14.2559 26.1972,17.6582 					"/>
				</g>
				<g>
					<polygon fill="#3D3437" points="29.5981,17.6582 27.5981,17.6582 27.5981,15.6172 29.5981,15.6172 29.5981,17.6582 					"/>
				</g>
				<g>
					<polygon fill="#3D3437" points="32.999,17.6582 30.999,17.6582 30.999,14.2559 32.999,14.2559 32.999,17.6582 					"/>
				</g>
				<g>
					<polygon fill="#3D3437" points="36.3994,17.6582 34.3994,17.6582 34.3994,15.6172 36.3994,15.6172 36.3994,17.6582 					"/>
				</g>
				<g>
					<polygon fill="#3D3437" points="39.8008,17.6592 37.8008,17.6572 37.8027,14.2549 39.8027,14.2568 39.8008,17.6592 					"/>
				</g>
				<g>
					<polygon fill="#3D3437" points="41.2031,17.6582 41.2021,15.6172 43.2021,15.6172 43.2031,17.6582 41.2031,17.6582 					"/>
				</g>
				<g>
					<polygon fill="#3D3437" points="46.6035,17.6582 44.6035,17.6582 44.6035,14.2559 46.6035,14.2559 46.6035,17.6582 					"/>
				</g>
			</g>
		</g>
		<g>
			<polygon fill="#CCCCCC" points="58.998,41 5,41 1,36.999 1,35.001 24.9985,35.001 26.999,36.999 37,36.999 38.999,35.001 
				62.998,35.001 62.998,36.999 			"/>
			<path fill="#3D3437" d="M59.4121,42H4.5859L0,37.4131V34.001h25.4126l2.0005,1.998h9.1728l1.999-1.998H63.998v3.4121L59.4121,42
				L59.4121,42z M5.414,40h53.17l3.414-3.415v-0.584H39.4131l-1.9991,1.998H26.5849l-2.0005-1.998H2v0.584L5.414,40L5.414,40z"/>
		</g>
	</g>
</g>
</svg>
