<?xml version="1.0" encoding="utf-8"?>
<!-- Generator: Adobe Illustrator 17.1.0, SVG Export Plug-In . SVG Version: 6.00 Build 0)  -->
<!DOCTYPE svg PUBLIC "-//W3C//DTD SVG 1.1//EN" "http://www.w3.org/Graphics/SVG/1.1/DTD/svg11.dtd">
<svg version="1.1" id="logo-design" xmlns="http://www.w3.org/2000/svg" xmlns:xlink="http://www.w3.org/1999/xlink" x="0px"
	 y="0px" viewBox="0 0 60 52.1758" enable-background="new 0 0 60 52.1758" xml:space="preserve">
<g id="logo-design-logo-design">
	<g>
		<path fill="#CB9D62" d="M41.9414,35.1191c-4.0967,0-8.0654-1.4921-11.1758-4.2011l-0.7695-0.6699l0.6855-0.7559
			c2.6094-2.8789,4.1231-6.4434,4.378-10.3057l0.0918-1.3857l1.2851,0.5264c6.2071,2.54,10.3662,8.5097,10.5938,15.2099
			l0.0273,0.7969l-0.7705,0.2041C44.8271,34.9238,43.3652,35.1191,41.9414,35.1191L41.9414,35.1191z"/>
		<path fill="#CCCCCC" d="M29.2559,29.4268c-2.667-2.9737-4.211-6.8047-4.3457-10.7881l-0.0274-0.7969l0.7715-0.2041
			c1.4609-0.3857,2.9238-0.5811,4.3457-0.5811c1.4238,0,2.8857,0.1954,4.3467,0.5821l0.7705,0.2031l-0.0274,0.7969
			c-0.1357,3.9844-1.6787,7.8144-4.3457,10.7881L30,30.2568L29.2559,29.4268z"/>
		<path fill="#9C705D" d="M18.0596,35.1191c-1.4248,0-2.8858-0.1953-4.3457-0.581l-0.7705-0.2041l0.0263-0.7969
			c0.2276-6.6992,4.3858-12.6699,10.5938-15.2109l1.2851-0.5254l0.0918,1.3848c0.2549,3.8632,1.7686,7.4277,4.3799,10.3066
			l0.6856,0.7559l-0.7696,0.6699C26.124,33.627,22.1543,35.1191,18.0596,35.1191L18.0596,35.1191z"/>
		<path fill="#95BCA7" d="M24.9629,16.4336c0.3457-3.6289,1.8301-6.998,4.293-9.7441L30,5.8604l0.7441,0.8291
			c2.4639,2.7461,3.9483,6.1152,4.292,9.7451l0.1309,1.3789l-1.3496-0.3096c-1.292-0.2969-2.5762-0.4473-3.8174-0.4473
			c-1.2441,0-2.5273,0.1504-3.8164,0.4473l-1.3516,0.3106L24.9629,16.4336z"/>
		<path fill="#FFFFFF" d="M11.623,33.8496C5.1699,31.209,1,25.0098,1,18.0566C1,8.6514,8.6523,1,18.0596,1
			c4.0947,0,8.0634,1.4912,11.1748,4.1992l0.7705,0.6699L29.3193,6.625c-2.6318,2.9024-4.1923,6.6504-4.3916,10.5557l-0.0341,0.665
			l-0.628,0.2246C17.8682,20.3652,13.4453,26.2217,13,32.9893l-0.0918,1.3857L11.623,33.8496z"/>
		<path fill="#FFFFFF" d="M30,51.1758c-8.8428,0-16.1416-6.6358-16.9766-15.4346l-0.1308-1.3799l1.3506,0.3106
			c1.2881,0.2969,2.5722,0.4472,3.8164,0.4472c4.1416,0,8.1474-1.5263,11.2783-4.2968L30,30.2363l0.6621,0.586
			c3.1318,2.7705,7.1377,4.2968,11.2793,4.2968c1.2422,0,2.5264-0.1503,3.8164-0.4462l1.3506-0.3096l-0.1318,1.3789
			C46.1406,44.541,38.8428,51.1758,30,51.1758L30,51.1758z"/>
		<path fill="#FFFFFF" d="M47,32.9893c-0.4463-6.7676-4.8682-12.6241-11.2666-14.919l-0.627-0.2246l-0.0341-0.665
			c-0.1993-3.9043-1.7588-7.6533-4.3907-10.5557l-0.6855-0.7559l0.7695-0.6699C33.8779,2.4912,37.8467,1,41.9414,1
			C51.3477,1,59,8.6514,59,18.0566c0,6.9532-4.1699,13.1524-10.623,15.793l-1.2852,0.5254L47,32.9893z"/>
	</g>
	<g>
		<g>
			<path fill="#3D3437" d="M18.0596,36.1191C8.1016,36.1191,0,28.0161,0,18.0566C0,8.1001,8.1016,0,18.0596,0
				s18.0586,8.1001,18.0586,18.0566C36.1182,28.0161,28.0176,36.1191,18.0596,36.1191L18.0596,36.1191z M18.0596,2
				C9.2041,2,2,9.2031,2,18.0566c0,8.857,7.2041,16.0625,16.0596,16.0625c8.8545,0,16.0586-7.2055,16.0586-16.0625
				C34.1182,9.2031,26.9141,2,18.0596,2L18.0596,2z"/>
		</g>
		<g>
			<path fill="#3D3437" d="M41.9414,36.1191c-9.958,0-18.0596-8.103-18.0596-18.0625C23.8818,8.1001,31.9834,0,41.9414,0
				S60,8.1001,60,18.0566C60,28.0161,51.8994,36.1191,41.9414,36.1191L41.9414,36.1191z M41.9414,2
				c-8.8555,0-16.0596,7.2031-16.0596,16.0566c0,8.857,7.2041,16.0625,16.0596,16.0625C50.7959,34.1191,58,26.9136,58,18.0566
				C58,9.2031,50.7959,2,41.9414,2L41.9414,2z"/>
		</g>
		<g>
			<path fill="#3D3437" d="M30,52.1758c-9.958,0-18.0586-8.1001-18.0586-18.0567c0-9.9594,8.1006-18.0625,18.0586-18.0625
				s18.0586,8.1031,18.0586,18.0625C48.0586,44.0757,39.958,52.1758,30,52.1758L30,52.1758z M30,18.0566
				c-8.8545,0-16.0586,7.2056-16.0586,16.0625c0,8.8536,7.2041,16.0567,16.0586,16.0567c8.8545,0,16.0586-7.2031,16.0586-16.0567
				C46.0586,25.2622,38.8545,18.0566,30,18.0566L30,18.0566z"/>
		</g>
	</g>
</g>
</svg>
