<?xml version="1.0" encoding="utf-8"?>
<!-- Generator: Adobe Illustrator 17.1.0, SVG Export Plug-In . SVG Version: 6.00 Build 0)  -->
<!DOCTYPE svg PUBLIC "-//W3C//DTD SVG 1.1//EN" "http://www.w3.org/Graphics/SVG/1.1/DTD/svg11.dtd">
<svg version="1.1" id="magic-wand-tool" xmlns="http://www.w3.org/2000/svg" xmlns:xlink="http://www.w3.org/1999/xlink" x="0px"
	 y="0px" viewBox="0 0 56 56.1836" enable-background="new 0 0 56 56.1836" xml:space="preserve">
<g id="magic-wand-tool-magic-wand-tool">
	<g>
		<circle fill="#95BCA7" cx="16" cy="16.0918" r="5"/>
		
			<rect x="13.8543" y="18.1955" transform="matrix(-0.7072 -0.7071 0.7071 -0.7072 18.8842 46.2129)" fill="#FFFFFF" width="10.3158" height="2.0005"/>
		
			<rect x="37.4758" y="18.2914" transform="matrix(-0.7074 0.7069 -0.7069 -0.7074 93.0192 38.8087)" fill="#CB9D62" width="2.0006" height="40.7366"/>
	</g>
	<g>
		<path fill="#3D3437" d="M52.1719,56.1836c-0.2559,0-0.5117-0.0977-0.7071-0.293L12.5371,16.9629
			c-0.3906-0.3906-0.3906-1.0234,0-1.4141l2.8281-2.8281c0.3907-0.3906,1.0235-0.3906,1.4141,0L55.707,51.6484
			c0.3907,0.3907,0.3907,1.0235,0,1.4141l-2.8281,2.8281C52.6836,56.0859,52.4277,56.1836,52.1719,56.1836L52.1719,56.1836z
			 M14.6582,16.2559l37.5137,37.5136l1.414-1.414L16.0723,14.8418L14.6582,16.2559L14.6582,16.2559z"/>
	</g>
	<g>
		<path fill="#3D3437" d="M21.959,25.958c-0.2559,0-0.5117-0.0976-0.707-0.293c-0.3907-0.3906-0.3907-1.0234,0-1.414l2.8222-2.8223
			c0.3906-0.3906,1.0235-0.3906,1.4141,0s0.3906,1.0235,0,1.4141L22.666,25.665C22.4707,25.8604,22.2148,25.958,21.959,25.958
			L21.959,25.958z"/>
	</g>
	<g>
		<path fill="#3D3437" d="M16,9c-0.5522,0-1-0.4473-1-1V1c0-0.5527,0.4478-1,1-1s1,0.4473,1,1v7C17,8.5527,16.5522,9,16,9L16,9z"/>
	</g>
	<g>
		<path fill="#3D3437" d="M16,32c-0.5522,0-1-0.4473-1-1v-7c0-0.5527,0.4478-1,1-1s1,0.4473,1,1v7C17,31.5527,16.5522,32,16,32
			L16,32z"/>
	</g>
	<g>
		<path fill="#3D3437" d="M8,17H1c-0.5522,0-1-0.4473-1-1s0.4478-1,1-1h7c0.5522,0,1,0.4473,1,1S8.5522,17,8,17L8,17z"/>
	</g>
	<g>
		<path fill="#3D3437" d="M31,17h-7c-0.5522,0-1-0.4473-1-1s0.4478-1,1-1h7c0.5522,0,1,0.4473,1,1S31.5522,17,31,17L31,17z"/>
	</g>
	<g>
		<path fill="#3D3437" d="M10,11c-0.2559,0-0.5117-0.0977-0.707-0.293L4.3438,5.7578c-0.3907-0.3906-0.3907-1.0234,0-1.414
			c0.3906-0.3907,1.0234-0.3907,1.414,0L10.707,9.293c0.3907,0.3906,0.3907,1.0234,0,1.414C10.5117,10.9023,10.2559,11,10,11L10,11z
			"/>
	</g>
	<g>
		<path fill="#3D3437" d="M5.0508,27.9492c-0.2559,0-0.5117-0.0976-0.707-0.2929c-0.3907-0.3907-0.3907-1.0235,0-1.4141
			L9.293,21.293c0.3906-0.3907,1.0234-0.3907,1.414,0c0.3907,0.3906,0.3907,1.0234,0,1.414l-4.9492,4.9493
			C5.5625,27.8516,5.3066,27.9492,5.0508,27.9492L5.0508,27.9492z"/>
	</g>
	<g>
		<path fill="#3D3437" d="M22,11c-0.2559,0-0.5117-0.0977-0.707-0.293c-0.3907-0.3906-0.3907-1.0234,0-1.414l4.9492-4.9502
			c0.3906-0.3906,1.0234-0.3906,1.4141,0c0.3906,0.3906,0.3906,1.0234,0,1.414L22.707,10.707C22.5117,10.9023,22.2559,11,22,11
			L22,11z"/>
	</g>
</g>
</svg>
