<?xml version="1.0" encoding="utf-8"?>
<!-- Generator: Adobe Illustrator 17.1.0, SVG Export Plug-In . SVG Version: 6.00 Build 0)  -->
<!DOCTYPE svg PUBLIC "-//W3C//DTD SVG 1.1//EN" "http://www.w3.org/Graphics/SVG/1.1/DTD/svg11.dtd">
<svg version="1.1" id="moleskine" xmlns="http://www.w3.org/2000/svg" xmlns:xlink="http://www.w3.org/1999/xlink" x="0px" y="0px"
	 viewBox="0 0 41.67 60.8687" enable-background="new 0 0 41.67 60.8687" xml:space="preserve">
<g id="moleskine-moleskine">
	<g>
		<rect x="1" y="1" fill="#FFFFFF" width="29.0264" height="16.4551"/>
		<rect x="1" y="17.4551" fill="#CB9D62" width="29.0264" height="17.415"/>
		<polygon fill="#95BCA7" points="7.7725,57.0645 4.8702,58.9991 4.8702,51.3096 10.6748,51.3096 10.6748,59 		"/>
		<rect x="1" y="34.8701" fill="#FFFFFF" width="29.0264" height="16.4395"/>
		<rect x="30.0264" y="1" fill="#95BCA7" width="4.8379" height="50.3096"/>
		<rect x="34.8643" y="17.4551" fill="#CB9D62" width="5.8057" height="17.415"/>
		<path fill="#FFFFFF" d="M34.8643,51.3096V34.8701H40.67v13.5411c0,1.5986-1.2998,2.8984-2.8985,2.8984H34.8643z"/>
		<path fill="#FFFFFF" d="M34.8643,17.4551V1h2.9072C39.3702,1,40.67,2.3008,40.67,3.9004v13.5547H34.8643z"/>
	</g>
	<g>
		<path fill="#3D3437" d="M37.7715,52.3096H0V0h37.7715C39.9209,0,41.67,1.7495,41.67,3.9004v44.5108
			C41.67,50.5606,39.9209,52.3096,37.7715,52.3096L37.7715,52.3096z M2,50.3096h35.7715c1.0469,0,1.8985-0.8516,1.8985-1.8984
			V3.9004C39.67,2.8526,38.8184,2,37.7715,2H2V50.3096L2,50.3096z"/>
	</g>
	<g>
		<path fill="#3D3437" d="M35.8643,52.3096h-6.8379V0h6.8379V52.3096L35.8643,52.3096z M31.0264,50.3096h2.8379V2h-2.8379V50.3096
			L31.0264,50.3096z"/>
	</g>
	<g>
		<path fill="#3D3437" d="M31.0264,35.8701H0v-19.415h31.0264V35.8701L31.0264,35.8701z M2,33.8701h27.0264v-15.415H2V33.8701
			L2,33.8701z"/>
	</g>
	<g>
		<path fill="#3D3437" d="M41.67,35.8701h-7.8057v-19.415H41.67V35.8701L41.67,35.8701z M35.8643,33.8701H39.67v-15.415h-3.8057
			V33.8701L35.8643,33.8701z"/>
	</g>
	<g>
		<path fill="#3D3437" d="M11.6748,60.8687l-3.9023-2.6021l-3.9023,2.6021V50.3096h7.8046V60.8687L11.6748,60.8687z M7.7725,55.8623
			l1.9023,1.2691v-4.8218H5.8702v4.8218L7.7725,55.8623L7.7725,55.8623z"/>
	</g>
</g>
</svg>
