<?xml version="1.0" encoding="utf-8"?>
<!-- Generator: Adobe Illustrator 17.1.0, SVG Export Plug-In . SVG Version: 6.00 Build 0)  -->
<!DOCTYPE svg PUBLIC "-//W3C//DTD SVG 1.1//EN" "http://www.w3.org/Graphics/SVG/1.1/DTD/svg11.dtd">
<svg version="1.1" id="painting-roller" xmlns="http://www.w3.org/2000/svg" xmlns:xlink="http://www.w3.org/1999/xlink" x="0px"
	 y="0px" viewBox="0 0 46 60" enable-background="new 0 0 46 60" xml:space="preserve">
<g id="painting-roller-painting-roller">
	<path fill="#95BCA7" d="M3,13v16c0,1.1035,0.8965,2,2,2c1.1055,0,2-0.8965,2-2v-3c0-1.6563,1.3438-3,3.002-3
		C11.6563,23,13,24.3437,13,26l0,0c0,1.6562,1.3438,3,3,3c1.6582,0,3-1.3438,3-3v-3c0-1.1045,0.8945-2,2-2
		c1.1055,0,2.002,0.8955,2.002,2l0,0c0,1.6562,1.3418,3,2.998,3c1.6582,0,3-1.3438,3-3l0,0c0-1.1045,0.8945-2,2-2
		c1.1055,0,2,0.8955,2,2v3c0,1.6562,1.3438,3,3,3c1.6582,0,3.002-1.3438,3.002-3V13H3z"/>
	<g>
		<path fill="#3D3437" d="M22,57.4707h-2V32c0-0.3447,0.1777-0.665,0.4697-0.8477L44,16.4453V9c0-0.5518-0.4482-1-1-1h-2V6h2
			c1.6543,0,3,1.3457,3,3v8c0,0.3447-0.1777,0.665-0.4697,0.8477L22,32.5547V57.4707L22,57.4707z"/>
	</g>
	<polygon fill="#9C705D" points="25,37 17,37 17,39 19,41 17,44 17,59 25,59 25,44 23.002,41 25,39 	"/>
	<path fill="#95BCA7" d="M41,11c0,1.1055-0.8945,2-1.998,2H3c-1.1055,0-2-0.8945-2-2V3c0-1.1045,0.8945-2,2-2h36.002
		C40.1055,1,41,1.8955,41,3V11z"/>
	<rect x="17" y="55.001" fill="#CB9D62" width="8" height="3.999"/>
	<g>
		<path fill="#3D3437" d="M25,60h-8c-0.5527,0-1-0.4473-1-1V44c0-0.1973,0.0586-0.3906,0.168-0.5547l1.5449-2.3183l-1.4199-1.42
			C16.1055,39.5195,16,39.2656,16,39v-2c0-0.5527,0.4473-1,1-1h8c0.5527,0,1,0.4473,1,1v2c0,0.2646-0.1055,0.5195-0.293,0.707
			l-1.4189,1.42l1.5439,2.3183C25.9414,43.6094,26,43.8027,26,44v15C26,59.5527,25.5527,60,25,60L25,60z M18,58h6V44.3027
			l-1.8301-2.748c-0.2646-0.3965-0.2119-0.9248,0.125-1.2617L24,38.5859V38h-6v0.5859l1.707,1.7071
			c0.3369,0.3369,0.3897,0.8652,0.125,1.2617L18,44.3027V58L18,58z"/>
	</g>
	<g>
		<polygon fill="#3D3437" points="25,56.001 17,56.001 17,54.001 25,54.001 25,56.001 		"/>
	</g>
	<g>
		<path fill="#3D3437" d="M39.002,14H3c-1.6543,0-3-1.3457-3-3V3c0-1.6543,1.3457-3,3-3h36.002C40.6553,0,42,1.3457,42,3v8
			C42,12.6543,40.6553,14,39.002,14L39.002,14z M3,2C2.4482,2,2,2.4482,2,3v8c0,0.5518,0.4482,1,1,1h36.002
			C39.5527,12,40,11.5518,40,11V3c0-0.5518-0.4473-1-0.998-1H3L3,2z"/>
	</g>
	<g>
		<polygon fill="#3D3437" points="18,8 16,8 16,6 18,6 18,8 		"/>
	</g>
	<g>
		<polygon fill="#3D3437" points="22,8 20,8 20,6 22,6 22,8 		"/>
	</g>
	<g>
		<polygon fill="#3D3437" points="26,8 24.002,8 24.002,6 26,6 26,8 		"/>
	</g>
</g>
</svg>
