<?xml version="1.0" encoding="utf-8"?>
<!-- Generator: Adobe Illustrator 17.1.0, SVG Export Plug-In . SVG Version: 6.00 Build 0)  -->
<!DOCTYPE svg PUBLIC "-//W3C//DTD SVG 1.1//EN" "http://www.w3.org/Graphics/SVG/1.1/DTD/svg11.dtd">
<svg version="1.1" id="paint-tube" xmlns="http://www.w3.org/2000/svg" xmlns:xlink="http://www.w3.org/1999/xlink" x="0px" y="0px"
	 viewBox="0 0 56.9981 57" enable-background="new 0 0 56.9981 57" xml:space="preserve">
<g id="paint-tube-paint-tube">
	<g>
		<path fill="#FFFFFF" d="M30.1057,49.6973l19.5957-19.6084L27.3108,10.3184c-0.9043-0.7979-2.0684-1.2383-3.2754-1.2383h-5.2969
			c-0.7871,0-1.541-0.3125-2.0976-0.8701l-1.9297-1.9307l-8.3984,8.4043l1.9296,1.9307c0.5567,0.5566,0.8692,1.3115,0.8692,2.1005
			v5.3008c0,1.2061,0.4394,2.3711,1.2383,3.2754L30.1057,49.6973z"/>
		<path fill="#3D3437" d="M30.1057,50.6973c-0.0107,0-0.0205,0-0.0312-0.0005c-0.2764-0.0088-0.5362-0.1309-0.7188-0.3384
			L9.5999,27.9521c-0.96-1.0859-1.4883-2.4843-1.4883-3.9365v-5.3008c0-0.5268-0.2051-1.0219-0.5762-1.3935l-1.9297-1.9307
			c-0.3906-0.3906-0.3906-1.0234,0-1.414l8.3985-8.4043c0.375-0.375,1.039-0.375,1.414,0l1.9297,1.9306
			c0.3721,0.3726,0.8652,0.5772,1.3906,0.5772h5.2969c1.4512,0,2.8486,0.5288,3.9365,1.4883l22.3916,19.771
			c0.2071,0.1826,0.3291,0.4423,0.3379,0.7182c0.0078,0.2759-0.0976,0.543-0.2929,0.7383L30.8128,50.4043
			C30.6254,50.5923,30.3704,50.6973,30.1057,50.6973L30.1057,50.6973z M7.7268,14.6836l1.2227,1.2236
			c0.749,0.7495,1.1621,1.7466,1.1621,2.8076v5.3008c0,0.9644,0.3506,1.8921,0.9873,2.6133l19.0527,21.6079l18.0908-18.1025
			L26.6487,11.0679c-0.7217-0.6367-1.6504-0.9878-2.6133-0.9878h-5.2969c-1.0595,0-2.0566-0.4131-2.8056-1.1636l-1.2217-1.2227
			L7.7268,14.6836L7.7268,14.6836z"/>
	</g>
	<g>
		<path fill="#95BCA7" d="M4.9124,16.084l11.082-11.0889l-4.1035-3.331c-1.1817-0.959-2.8965-0.8692-3.9707,0.205L1.8674,7.9268
			c-1.0586,1.0586-1.1621,2.7421-0.2441,3.9248L4.9124,16.084z"/>
		<path fill="#3D3437" d="M4.9124,17.084c-0.0205,0-0.0411-0.0005-0.0625-0.002c-0.2862-0.018-0.5508-0.1577-0.7276-0.3842
			l-3.289-4.2325c-1.2256-1.5791-1.085-3.834,0.3271-5.2456l6.0527-6.0576C7.9622,0.4126,8.9592,0,10.0198,0
			c0.9082,0,1.7959,0.3154,2.501,0.8877l4.1035,3.331c0.2197,0.1783,0.3545,0.4419,0.3691,0.7247
			c0.0147,0.2827-0.0918,0.5586-0.292,0.7587L5.6194,16.791C5.4319,16.979,5.177,17.084,4.9124,17.084L4.9124,17.084z M10.0198,2
			C9.4934,2,8.9984,2.2046,8.6272,2.5762L2.5745,8.6338c-0.7002,0.7007-0.7696,1.8203-0.1612,2.6045l2.5928,3.3369l9.4971-9.5024
			L11.261,2.4404C10.9104,2.1567,10.47,2,10.0198,2L10.0198,2z"/>
	</g>
	<g>
		<polygon fill="#9C705D" points="35.0042,56 55.9984,34.9902 51.0999,28.6895 28.7054,51.0986 		"/>
		<path fill="#3D3437" d="M35.0042,57c-0.2159,0-0.4327-0.0693-0.6143-0.2109l-6.2988-4.9014
			c-0.2266-0.1758-0.3662-0.4409-0.3838-0.7271c-0.0176-0.2861,0.0879-0.5659,0.291-0.769l22.3945-22.4092
			c0.2022-0.2026,0.4707-0.313,0.7696-0.291c0.2861,0.0176,0.5507,0.1577,0.7265,0.3843l4.8985,6.3008
			c0.3095,0.3979,0.2744,0.9638-0.0821,1.3208L35.7112,56.707C35.5178,56.9009,35.261,57,35.0042,57L35.0042,57z M30.2131,51.0049
			l4.7081,3.6636l19.746-19.7608l-3.6611-4.7095L30.2131,51.0049L30.2131,51.0049z"/>
	</g>
	<g>
		<path fill="#3D3437" d="M10.512,11.4805c-0.2559,0-0.5117-0.0977-0.7071-0.293L7.0061,8.3867
			c-0.3906-0.3906-0.3906-1.0239,0-1.4145C7.3967,6.5825,8.0296,6.582,8.4202,6.9727l2.7988,2.8007
			c0.3906,0.3907,0.3906,1.024,0,1.4146C11.0237,11.3828,10.7678,11.4805,10.512,11.4805L10.512,11.4805z"/>
	</g>
	<g>
		<path fill="#3D3437" d="M13.3108,8.6807c-0.2412,0-0.4834-0.087-0.6758-0.2627L9.7112,5.7393
			C9.304,5.3662,9.2766,4.7339,9.6497,4.3267c0.373-0.4078,1.0049-0.4346,1.4131-0.0621l2.9238,2.6788
			c0.4072,0.373,0.4346,1.0053,0.0615,1.4126C13.8508,8.5713,13.5814,8.6807,13.3108,8.6807L13.3108,8.6807z"/>
	</g>
	<g>
		<path fill="#3D3437" d="M7.7131,14.2822c-0.2705,0-0.541-0.1093-0.7382-0.3252l-2.6758-2.9248
			c-0.3721-0.4072-0.3438-1.04,0.0635-1.4126c0.4062-0.373,1.04-0.3452,1.413,0.063l2.6758,2.9248
			c0.3721,0.4072,0.3438,1.0401-0.0635,1.4126C8.1965,14.1958,7.9544,14.2822,7.7131,14.2822L7.7131,14.2822z"/>
	</g>
	<g>
		<path fill="#3D3437" d="M45.5022,46.4961c-0.2559,0-0.5117-0.0977-0.707-0.293l-5.5996-5.6035
			c-0.3907-0.3906-0.3907-1.0239,0-1.4145c0.3906-0.3897,1.0234-0.3902,1.414,0.0004l5.5996,5.6036
			c0.3907,0.3906,0.3907,1.0239,0,1.4145C46.0139,46.3984,45.7581,46.4961,45.5022,46.4961L45.5022,46.4961z"/>
	</g>
	<g>
		<path fill="#3D3437" d="M48.1664,43.8281c-0.2637,0-0.5274-0.104-0.7246-0.3105l-5.4629-5.7364
			c-0.3809-0.3999-0.3653-1.0327,0.0351-1.4135c0.3994-0.3809,1.0313-0.3667,1.4141,0.0346l5.4629,5.7364
			c0.3808,0.3999,0.3652,1.0327-0.0352,1.4135C48.6624,43.7368,48.4144,43.8281,48.1664,43.8281L48.1664,43.8281z"/>
	</g>
	<g>
		<path fill="#3D3437" d="M53.4984,38.4941c-0.2793,0-0.5586-0.1171-0.7559-0.3457l-5.1972-6.0039
			c-0.3614-0.4174-0.3164-1.0488,0.1015-1.4101c0.4151-0.3609,1.0489-0.3169,1.4102,0.1015l5.1973,6.0039
			c0.3613,0.4175,0.3164,1.0489-0.1016,1.4102C53.9641,38.4141,53.7307,38.4941,53.4984,38.4941L53.4984,38.4941z"/>
	</g>
	<g>
		<path fill="#3D3437" d="M42.8362,49.1631c-0.2481,0-0.4971-0.0918-0.6904-0.2764l-5.7325-5.4687
			c-0.3994-0.3814-0.414-1.0142-0.0332-1.4141c0.3809-0.3979,1.0157-0.4136,1.4141-0.0332l5.7324,5.4688
			c0.3994,0.3813,0.4141,1.0141,0.0332,1.414C43.3635,49.0591,43.0999,49.1631,42.8362,49.1631L42.8362,49.1631z"/>
	</g>
	<g>
		<path fill="#3D3437" d="M40.1702,51.8311c-0.2403,0-0.4815-0.086-0.6729-0.2603l-5.8652-5.335
			c-0.4082-0.3715-0.4385-1.0039-0.0674-1.4126c0.375-0.4086,1.0059-0.4375,1.4131-0.0669l5.8652,5.335
			c0.4082,0.3716,0.4385,1.0039,0.0674,1.4126C40.7122,51.7207,40.4417,51.8311,40.1702,51.8311L40.1702,51.8311z"/>
	</g>
	<g>
		<path fill="#3D3437" d="M50.8342,41.1602c-0.2714,0-0.5429-0.1104-0.7402-0.3277l-5.332-5.8691
			c-0.3711-0.4087-0.3408-1.041,0.0674-1.4126c0.4111-0.3696,1.0419-0.3413,1.413,0.0679l5.3321,5.8691
			c0.3711,0.4087,0.3408,1.041-0.0674,1.4126C51.3147,41.0742,51.0745,41.1602,50.8342,41.1602L50.8342,41.1602z"/>
	</g>
	<g>
		<path fill="#3D3437" d="M37.5042,54.498c-0.2325,0-0.4659-0.0805-0.6553-0.2446l-5.9981-5.2012
			c-0.417-0.3618-0.4619-0.9931-0.1005-1.4106c0.3632-0.418,0.9941-0.4609,1.4111-0.1001l5.998,5.2012
			c0.417,0.3618,0.4619,0.9931,0.1006,1.4106C38.0618,54.3813,37.7835,54.498,37.5042,54.498L37.5042,54.498z"/>
	</g>
	<g>
		<path fill="#3D3437" d="M12.2278,24.54c-0.29,0-0.5693-0.1201-0.7793-0.33c-0.21-0.21-0.3203-0.4903-0.3203-0.7803
			c0-0.2901,0.1201-0.5698,0.3301-0.7798c0.4199-0.4102,1.1396-0.3999,1.5498,0.0098c0.2099,0.2099,0.3203,0.4902,0.3203,0.7802
			c0,0.2998-0.1201,0.5699-0.3301,0.7798C12.7981,24.4199,12.5178,24.54,12.2278,24.54L12.2278,24.54z M15.0384,21.77
			c-0.2998,0-0.58-0.1201-0.79-0.3301c-0.4199-0.4301-0.4199-1.1298,0.0098-1.56c0.4199-0.4102,1.1504-0.3999,1.5595,0.0097
			c0.211,0.21,0.3203,0.4903,0.3203,0.7901c0,0.29-0.1201,0.56-0.33,0.77C15.5979,21.6499,15.3284,21.77,15.0384,21.77
			L15.0384,21.77z M17.8381,19c-0.29,0-0.5703-0.1201-0.7802-0.3301c-0.21-0.2099-0.3194-0.48-0.3194-0.7803
			c0-0.29,0.1192-0.5698,0.3291-0.77c0.4209-0.4199,1.1407-0.4096,1.5508,0c0.4297,0.4405,0.4297,1.1304,0,1.5601
			C18.4085,18.8896,18.1282,19,17.8381,19L17.8381,19z M20.6477,16.23c-0.2998,0-0.5801-0.1201-0.7793-0.3301
			c-0.4306-0.4302-0.4306-1.1299,0.0098-1.5503c0.4199-0.4199,1.1396-0.4097,1.5498,0.0103
			c0.2099,0.2002,0.3203,0.4799,0.3203,0.7797c0,0.2901-0.1201,0.5704-0.3301,0.7701C21.2084,16.1099,20.9378,16.23,20.6477,16.23
			L20.6477,16.23z M23.4584,13.46c-0.2998,0-0.5801-0.1202-0.7901-0.3301C22.2385,12.6997,22.2484,12,22.678,11.5796
			c0.4199-0.4199,1.1396-0.4097,1.5605,0.0102c0.1993,0.21,0.3194,0.48,0.3194,0.7798c-0.0098,0.2901-0.1201,0.5703-0.3301,0.77
			C24.0178,13.3496,23.7484,13.46,23.4584,13.46L23.4584,13.46z"/>
	</g>
	<g>
		<circle fill="#CB9D62" cx="28.6575" cy="28.3418" r="7.1123"/>
		<path fill="#3D3437" d="M28.6565,36.4531c-4.4727,0-8.1113-3.6386-8.1113-8.1113c0-4.4731,3.6386-8.1123,8.1113-8.1123
			c4.4736,0,8.1133,3.6392,8.1133,8.1123C36.7698,32.8145,33.1301,36.4531,28.6565,36.4531L28.6565,36.4531z M28.6565,22.2295
			c-3.3701,0-6.1113,2.7422-6.1113,6.1123c0,3.3696,2.7412,6.1113,6.1113,6.1113c3.3711,0,6.1133-2.7417,6.1133-6.1113
			C34.7698,24.9717,32.0276,22.2295,28.6565,22.2295L28.6565,22.2295z"/>
	</g>
</g>
</svg>
