<?xml version="1.0" encoding="utf-8"?>
<!-- Generator: Adobe Illustrator 17.1.0, SVG Export Plug-In . SVG Version: 6.00 Build 0)  -->
<!DOCTYPE svg PUBLIC "-//W3C//DTD SVG 1.1//EN" "http://www.w3.org/Graphics/SVG/1.1/DTD/svg11.dtd">
<svg version="1.1" id="pdf-file" xmlns="http://www.w3.org/2000/svg" xmlns:xlink="http://www.w3.org/1999/xlink" x="0px" y="0px"
	 viewBox="0 0 45 58" enable-background="new 0 0 45 58" xml:space="preserve">
<g id="pdf-file-pdf-file">
	<g>
		<path fill="#95BCA7" d="M31.4854,1H2.4629C1.6553,1,1,1.6553,1,2.9258V56c0,0.3447,0.6553,1,1.4629,1h40.0742
			C43.3457,57,44,56.3447,44,56V13.9785c0-0.6963-0.0928-0.9209-0.2578-1.0859L32.1074,1.2568C31.9424,1.0928,31.7188,1,31.4854,1z"
			/>
		<path fill="#3D3437" d="M42.5371,58H2.4629C1.2197,58,0,57.0098,0,56V2.9258C0,0.916,1.2769,0,2.4629,0h29.0225
			c0.5004,0,0.9716,0.1943,1.3271,0.5479l11.6367,11.6376C44.9077,12.6445,45,13.2119,45,13.9785V56
			C45,57.0098,43.7803,58,42.5371,58L42.5371,58z M2,55.8047C2.0918,55.8887,2.27,56,2.4629,56h40.0742
			C42.73,56,42.9082,55.8887,43,55.8047V13.9785c0-0.2451-0.0137-0.375-0.0234-0.4375L31.4004,1.9639L2.4629,2
			C2.0332,2,2,2.709,2,2.9258V55.8047L2,55.8047z"/>
	</g>
	<g>
		<path fill="#FFFFFF" d="M42.5371,57H2.4629C1.6543,57,1,56.3447,1,55.5371V40h43v15.5371C44,56.3447,43.3447,57,42.5371,57z"/>
		<path fill="#3D3437" d="M42.5371,58H2.4629C1.105,58,0,56.8955,0,55.5371V39h45v16.5371C45,56.8955,43.895,58,42.5371,58
			L42.5371,58z M2,41v14.5371C2,55.792,2.2075,56,2.4629,56h40.0742C42.7925,56,43,55.792,43,55.5371V41H2L2,41z"/>
	</g>
	<g>
		<path fill="#9C705D" d="M32,2.3916V13h10.6094c0.457,0,0.6865-0.5537,0.3633-0.877L32.877,2.0283
			C32.5527,1.7041,32,1.9336,32,2.3916z"/>
		<path fill="#3D3437" d="M42.6094,14H31V2.3916c0-0.835,0.6807-1.5146,1.5171-1.5146c0.4014,0,0.7803,0.1572,1.0669,0.4443
			L43.6797,11.416c0.4346,0.4346,0.563,1.082,0.3276,1.6494C43.7725,13.6328,43.2236,14,42.6094,14L42.6094,14z M33,12h8.4355
			L33,3.5654V12L33,12z"/>
	</g>
	<path fill="#3D3437" d="M14.0137,34.3242L14.0137,34.3242c-0.3477,0-0.6817-0.1133-0.9668-0.3262
		c-1.041-0.7822-1.1807-1.6513-1.1153-2.2431c0.1827-1.627,2.1954-3.332,5.9854-5.0684c1.5049-3.2959,2.9346-7.3564,3.7881-10.75
		c-0.9981-2.1719-1.9678-4.9892-1.2608-6.6426c0.2481-0.5791,0.5577-1.0244,1.1338-1.2158
		c0.2285-0.0762,0.8047-0.1719,1.0157-0.1719c0.5039,0,0.9472,0.6484,1.2617,1.0488c0.2949,0.377,0.9638,1.1738-0.3731,6.8027
		c1.3477,2.7832,3.2569,5.6191,5.0869,7.5615c1.3116-0.2373,2.4405-0.3574,3.3584-0.3574c1.5655,0,2.5157,0.3652,2.9014,1.1162
		c0.3213,0.6221,0.1885,1.3487-0.3896,2.1602c-0.5567,0.7783-1.3243,1.1904-2.2207,1.1904c-1.2168,0-2.6309-0.7676-4.211-2.2851
		c-2.8379,0.5937-6.1504,1.6513-8.8281,2.8222c-0.8359,1.7744-1.6377,3.2031-2.3828,4.251
		C15.7734,33.6543,14.8887,34.3242,14.0137,34.3242 M16.6758,29.1992c-2.1377,1.1992-3.0088,2.1865-3.0703,2.7432
		c-0.0098,0.0918-0.0371,0.334,0.4306,0.6914C14.1855,32.5869,15.0547,32.1895,16.6758,29.1992 M30.3125,24.7559
		c0.8164,0.6269,1.0146,0.9443,1.5479,0.9443c0.2334,0,0.9013-0.0107,1.2089-0.4414c0.1495-0.209,0.208-0.3428,0.2295-0.4141
		c-0.1211-0.0654-0.2851-0.1972-1.1748-0.1972C31.6191,24.6475,30.9854,24.6699,30.3125,24.7559 M22.8438,18.1738
		c-0.7168,2.4736-1.6602,5.1455-2.6749,7.5645c2.0889-0.8115,4.3624-1.5195,6.4961-2.0205
		C25.3154,22.1504,23.9668,20.1924,22.8438,18.1738 M22.2363,9.7119c-0.0976,0.0332-1.33,1.7568,0.0957,3.2158
		C23.2813,10.8125,22.2793,9.6982,22.2363,9.7119"/>
	<g>
		<path fill="#3D3437" d="M14.2188,44.7832c2.1113,0,3.3222,1.043,3.3222,2.8662c0,1.8955-1.2109,2.9981-3.3222,2.9981h-1.9297
			v2.5302H10.873v-8.3945H14.2188z M12.2891,49.377h1.8711c1.2949,0,2.0253-0.5528,2.0253-1.6915
			c0-1.1035-0.7304-1.6308-2.0253-1.6308h-1.8711V49.377z"/>
		<path fill="#3D3437" d="M22.5117,44.7832c2.5196,0,4.3418,1.7627,4.3418,4.1973c0,2.4228-1.8359,4.1972-4.3769,4.1972h-3.4063
			v-8.3945H22.5117z M20.4844,51.9063h2.0625c1.6328,0,2.8789-1.211,2.8789-2.9141c0-1.7149-1.2832-2.9375-2.9375-2.9375h-2.0039
			V51.9063z"/>
		<path fill="#3D3437" d="M29.9043,46.0547v2.4219h3.8145v1.2597h-3.8145v3.4414h-1.4141v-8.3945h5.6368l-0.0118,1.2715H29.9043z"/>
	</g>
</g>
</svg>
