<?xml version="1.0" encoding="utf-8"?>
<!-- Generator: Adobe Illustrator 17.1.0, SVG Export Plug-In . SVG Version: 6.00 Build 0)  -->
<!DOCTYPE svg PUBLIC "-//W3C//DTD SVG 1.1//EN" "http://www.w3.org/Graphics/SVG/1.1/DTD/svg11.dtd">
<svg version="1.1" id="pen-tool" xmlns="http://www.w3.org/2000/svg" xmlns:xlink="http://www.w3.org/1999/xlink" x="0px" y="0px"
	 viewBox="0 0 31.8012 59.9995" enable-background="new 0 0 31.8012 59.9995" xml:space="preserve">
<g id="pen-tool-pen-tool">
	<g>
		<path fill="#CB9D62" d="M15.9006,0.9995L15.9006,0.9995L15.9006,0.9995c0,0-4.0723,17.6064-14.9004,22.5361l9.2676,22.5342
			h11.2676l9.2656-22.5342C19.1838,18.6929,15.9006,0.9995,15.9006,0.9995z"/>
		<path fill="#3D3437" d="M21.5354,47.0698H10.2678c-0.4053,0-0.7705-0.2446-0.9248-0.6196L0.0754,23.916
			c-0.2046-0.4976,0.021-1.0674,0.5103-1.2905c10.248-4.6656,14.3007-21.6802,14.3408-21.8516
			C15.0334,0.313,15.4465,0.0161,15.9226,0c0.4731,0.0102,0.8745,0.3511,0.9609,0.8169
			c0.0322,0.1714,3.3272,17.2207,14.3023,21.7959c0.5078,0.2114,0.7495,0.7939,0.54,1.3032l-9.2656,22.5342
			C22.3059,46.8252,21.9406,47.0698,21.5354,47.0698L21.5354,47.0698z M10.9377,45.0698h9.9277l8.6431-21.021
			C21.3567,20.0796,17.427,10.228,15.8298,4.833c-1.7725,5.3516-5.9312,15.1562-13.5493,19.1865L10.9377,45.0698L10.9377,45.0698z"
			/>
	</g>
	<g>
		<polygon fill="#3D3437" points="16.9006,23.3286 14.9006,23.3286 14.9026,0.9995 16.9026,0.9995 16.9006,23.3286 		"/>
	</g>
	<g>
		<circle fill="#FFFFFF" cx="15.9016" cy="26.9809" r="3.6533"/>
		<path fill="#3D3437" d="M15.9026,31.6352c-2.5665,0-4.6543-2.0878-4.6543-4.6543c0-2.5654,2.0878-4.6523,4.6543-4.6523
			c2.5654,0,4.6523,2.0869,4.6523,4.6523C20.5549,29.5474,18.468,31.6352,15.9026,31.6352L15.9026,31.6352z M15.9026,24.3286
			c-1.4634,0-2.6543,1.1899-2.6543,2.6523c0,1.4634,1.1909,2.6543,2.6543,2.6543c1.4624,0,2.6523-1.1909,2.6523-2.6543
			C18.5549,25.5185,17.365,24.3286,15.9026,24.3286L15.9026,24.3286z"/>
	</g>
	<g>
		<rect x="6.9807" y="46.0698" fill="#95BCA7" width="17.8398" height="12.9297"/>
		<path fill="#3D3437" d="M25.8205,59.9995H5.9807V45.0698h19.8398V59.9995L25.8205,59.9995z M7.9807,57.9995h15.8398V47.0698
			H7.9807V57.9995L7.9807,57.9995z"/>
	</g>
</g>
</svg>
