<?xml version="1.0" encoding="utf-8"?>
<!-- Generator: Adobe Illustrator 17.1.0, SVG Export Plug-In . SVG Version: 6.00 Build 0)  -->
<!DOCTYPE svg PUBLIC "-//W3C//DTD SVG 1.1//EN" "http://www.w3.org/Graphics/SVG/1.1/DTD/svg11.dtd">
<svg version="1.1" id="png-image" xmlns="http://www.w3.org/2000/svg" xmlns:xlink="http://www.w3.org/1999/xlink" x="0px" y="0px"
	 viewBox="0 0 45.0002 58" enable-background="new 0 0 45.0002 58" xml:space="preserve">
<g id="png-image-png-image">
	<path fill="#FFFFFF" d="M31.4855,1H2.463C1.6554,1,1.0001,1.6553,1.0001,2.9258V56c0,0.3447,0.6553,1,1.4629,1h40.0742
		c0.8086,0,1.4629-0.6553,1.4629-1V13.9785c0-0.6963-0.0928-0.9209-0.2578-1.0859L32.1075,1.2568
		C31.9425,1.0928,31.7189,1,31.4855,1z"/>
	<path fill="#CCCCCC" d="M6.0001,2.75c-0.5518,0-1,0.4482-1,1c0,0.5518,0.4482,1,1,1s1-0.4482,1-1
		C7.0001,3.1982,6.5519,2.75,6.0001,2.75z M12.0001,2.75c-0.5518,0-1,0.4482-1,1c0,0.5518,0.4482,1,1,1s1-0.4482,1-1
		C13.0001,3.1982,12.5519,2.75,12.0001,2.75z M18.0001,2.75c-0.5518,0-1,0.4482-1,1c0,0.5518,0.4482,1,1,1c0.5518,0,1-0.4482,1-1
		C19.0001,3.1982,18.5519,2.75,18.0001,2.75z M30.0001,2.75c-0.5518,0-1,0.4482-1,1c0,0.5518,0.4482,1,1,1c0.5518,0,1-0.4482,1-1
		C31.0001,3.1982,30.5519,2.75,30.0001,2.75z M24.0001,2.75c-0.5518,0-1,0.4482-1,1c0,0.5518,0.4482,1,1,1c0.5518,0,1-0.4482,1-1
		C25.0001,3.1982,24.5519,2.75,24.0001,2.75z M6.0001,14.75c-0.5518,0-1,0.4482-1,1c0,0.5518,0.4482,1,1,1s1-0.4482,1-1
		C7.0001,15.1982,6.5519,14.75,6.0001,14.75z M6.0001,8.75c-0.5518,0-1,0.4482-1,1c0,0.5518,0.4482,1,1,1s1-0.4482,1-1
		C7.0001,9.1982,6.5519,8.75,6.0001,8.75z M3.0001,5.75c-0.5518,0-1,0.4482-1,1c0,0.5518,0.4482,1,1,1s1-0.4482,1-1
		C4.0001,6.1982,3.5519,5.75,3.0001,5.75z M3.0001,11.75c-0.5518,0-1,0.4482-1,1c0,0.5518,0.4482,1,1,1s1-0.4482,1-1
		C4.0001,12.1982,3.5519,11.75,3.0001,11.75z M9.0001,5.75c-0.5518,0-1,0.4482-1,1c0,0.5518,0.4482,1,1,1s1-0.4482,1-1
		C10.0001,6.1982,9.5519,5.75,9.0001,5.75z M12.0001,8.75c-0.5518,0-1,0.4482-1,1c0,0.5518,0.4482,1,1,1s1-0.4482,1-1
		C13.0001,9.1982,12.5519,8.75,12.0001,8.75z M18.0001,8.75c-0.5518,0-1,0.4482-1,1c0,0.5518,0.4482,1,1,1c0.5518,0,1-0.4482,1-1
		C19.0001,9.1982,18.5519,8.75,18.0001,8.75z M15.0001,5.75c-0.5518,0-1,0.4482-1,1c0,0.5518,0.4482,1,1,1s1-0.4482,1-1
		C16.0001,6.1982,15.5519,5.75,15.0001,5.75z M9.0001,11.75c-0.5518,0-1,0.4482-1,1c0,0.5518,0.4482,1,1,1s1-0.4482,1-1
		C10.0001,12.1982,9.5519,11.75,9.0001,11.75z M12.0001,14.75c-0.5518,0-1,0.4482-1,1c0,0.5518,0.4482,1,1,1s1-0.4482,1-1
		C13.0001,15.1982,12.5519,14.75,12.0001,14.75z M18.0001,14.75c-0.5518,0-1,0.4482-1,1c0,0.5518,0.4482,1,1,1
		c0.5518,0,1-0.4482,1-1C19.0001,15.1982,18.5519,14.75,18.0001,14.75z M30.0001,14.75c-0.5518,0-1,0.4482-1,1
		c0,0.5518,0.4482,1,1,1c0.5518,0,1-0.4482,1-1C31.0001,15.1982,30.5519,14.75,30.0001,14.75z M15.0001,11.75
		c-0.5518,0-1,0.4482-1,1c0,0.5518,0.4482,1,1,1s1-0.4482,1-1C16.0001,12.1982,15.5519,11.75,15.0001,11.75z M21.0001,5.75
		c-0.5518,0-1,0.4482-1,1c0,0.5518,0.4482,1,1,1c0.5518,0,1-0.4482,1-1C22.0001,6.1982,21.5519,5.75,21.0001,5.75z M24.0001,8.75
		c-0.5518,0-1,0.4482-1,1c0,0.5518,0.4482,1,1,1c0.5518,0,1-0.4482,1-1C25.0001,9.1982,24.5519,8.75,24.0001,8.75z M30.0001,8.75
		c-0.5518,0-1,0.4482-1,1c0,0.5518,0.4482,1,1,1c0.5518,0,1-0.4482,1-1C31.0001,9.1982,30.5519,8.75,30.0001,8.75z M27.0001,5.75
		c-0.5518,0-1,0.4482-1,1c0,0.5518,0.4482,1,1,1c0.5518,0,1-0.4482,1-1C28.0001,6.1982,27.5519,5.75,27.0001,5.75z M21.0001,11.75
		c-0.5518,0-1,0.4482-1,1c0,0.5518,0.4482,1,1,1c0.5518,0,1-0.4482,1-1C22.0001,12.1982,21.5519,11.75,21.0001,11.75z
		 M24.0001,14.75c-0.5518,0-1,0.4482-1,1c0,0.5518,0.4482,1,1,1c0.5518,0,1-0.4482,1-1C25.0001,15.1982,24.5519,14.75,24.0001,14.75
		z M27.0001,11.75c-0.5518,0-1,0.4482-1,1c0,0.5518,0.4482,1,1,1c0.5518,0,1-0.4482,1-1
		C28.0001,12.1982,27.5519,11.75,27.0001,11.75z M33.0001,5.75c-0.5518,0-1,0.4482-1,1c0,0.5518,0.4482,1,1,1c0.5518,0,1-0.4482,1-1
		C34.0001,6.1982,33.5519,5.75,33.0001,5.75z M33.0001,11.75c-0.5518,0-1,0.4482-1,1c0,0.5518,0.4482,1,1,1c0.5518,0,1-0.4482,1-1
		C34.0001,12.1982,33.5519,11.75,33.0001,11.75z M36.0001,14.75c-0.5518,0-1,0.4482-1,1c0,0.5518,0.4482,1,1,1
		c0.5518,0,1-0.4482,1-1C37.0001,15.1982,36.5519,14.75,36.0001,14.75z M36.0001,8.75c-0.5518,0-1,0.4482-1,1c0,0.5518,0.4482,1,1,1
		c0.5518,0,1-0.4482,1-1C37.0001,9.1982,36.5519,8.75,36.0001,8.75z M39.0001,11.75c-0.5518,0-1,0.4482-1,1c0,0.5518,0.4482,1,1,1
		s1-0.4482,1-1C40.0001,12.1982,39.5519,11.75,39.0001,11.75z M42.0001,16.75c0.5518,0,1-0.4482,1-1c0-0.5518-0.4482-1-1-1
		c-0.5518,0-1,0.4482-1,1C41.0001,16.3018,41.4483,16.75,42.0001,16.75z M6.0001,26.75c-0.5518,0-1,0.4482-1,1
		c0,0.5518,0.4482,1,1,1s1-0.4482,1-1C7.0001,27.1982,6.5519,26.75,6.0001,26.75z M6.0001,20.75c-0.5518,0-1,0.4482-1,1
		c0,0.5518,0.4482,1,1,1s1-0.4482,1-1C7.0001,21.1982,6.5519,20.75,6.0001,20.75z M3.0001,17.75c-0.5518,0-1,0.4482-1,1
		c0,0.5518,0.4482,1,1,1s1-0.4482,1-1C4.0001,18.1982,3.5519,17.75,3.0001,17.75z M3.0001,23.75c-0.5518,0-1,0.4482-1,1
		c0,0.5518,0.4482,1,1,1s1-0.4482,1-1C4.0001,24.1982,3.5519,23.75,3.0001,23.75z M9.0001,17.75c-0.5518,0-1,0.4482-1,1
		c0,0.5518,0.4482,1,1,1s1-0.4482,1-1C10.0001,18.1982,9.5519,17.75,9.0001,17.75z M12.0001,20.75c-0.5518,0-1,0.4482-1,1
		c0,0.5518,0.4482,1,1,1s1-0.4482,1-1C13.0001,21.1982,12.5519,20.75,12.0001,20.75z M18.0001,20.75c-0.5518,0-1,0.4482-1,1
		c0,0.5518,0.4482,1,1,1c0.5518,0,1-0.4482,1-1C19.0001,21.1982,18.5519,20.75,18.0001,20.75z M15.0001,17.75
		c-0.5518,0-1,0.4482-1,1c0,0.5518,0.4482,1,1,1s1-0.4482,1-1C16.0001,18.1982,15.5519,17.75,15.0001,17.75z M9.0001,23.75
		c-0.5518,0-1,0.4482-1,1c0,0.5518,0.4482,1,1,1s1-0.4482,1-1C10.0001,24.1982,9.5519,23.75,9.0001,23.75z M12.0001,26.75
		c-0.5518,0-1,0.4482-1,1c0,0.5518,0.4482,1,1,1s1-0.4482,1-1C13.0001,27.1982,12.5519,26.75,12.0001,26.75z M18.0001,26.75
		c-0.5518,0-1,0.4482-1,1c0,0.5518,0.4482,1,1,1c0.5518,0,1-0.4482,1-1C19.0001,27.1982,18.5519,26.75,18.0001,26.75z
		 M30.0001,26.75c-0.5518,0-1,0.4482-1,1c0,0.5518,0.4482,1,1,1c0.5518,0,1-0.4482,1-1C31.0001,27.1982,30.5519,26.75,30.0001,26.75
		z M15.0001,23.75c-0.5518,0-1,0.4482-1,1c0,0.5518,0.4482,1,1,1s1-0.4482,1-1C16.0001,24.1982,15.5519,23.75,15.0001,23.75z
		 M21.0001,17.75c-0.5518,0-1,0.4482-1,1c0,0.5518,0.4482,1,1,1c0.5518,0,1-0.4482,1-1C22.0001,18.1982,21.5519,17.75,21.0001,17.75
		z M24.0001,20.75c-0.5518,0-1,0.4482-1,1c0,0.5518,0.4482,1,1,1c0.5518,0,1-0.4482,1-1
		C25.0001,21.1982,24.5519,20.75,24.0001,20.75z M30.0001,20.75c-0.5518,0-1,0.4482-1,1c0,0.5518,0.4482,1,1,1
		c0.5518,0,1-0.4482,1-1C31.0001,21.1982,30.5519,20.75,30.0001,20.75z M27.0001,17.75c-0.5518,0-1,0.4482-1,1
		c0,0.5518,0.4482,1,1,1c0.5518,0,1-0.4482,1-1C28.0001,18.1982,27.5519,17.75,27.0001,17.75z M21.0001,23.75
		c-0.5518,0-1,0.4482-1,1c0,0.5518,0.4482,1,1,1c0.5518,0,1-0.4482,1-1C22.0001,24.1982,21.5519,23.75,21.0001,23.75z
		 M24.0001,26.75c-0.5518,0-1,0.4482-1,1c0,0.5518,0.4482,1,1,1c0.5518,0,1-0.4482,1-1C25.0001,27.1982,24.5519,26.75,24.0001,26.75
		z M27.0001,23.75c-0.5518,0-1,0.4482-1,1c0,0.5518,0.4482,1,1,1c0.5518,0,1-0.4482,1-1
		C28.0001,24.1982,27.5519,23.75,27.0001,23.75z M33.0001,17.75c-0.5518,0-1,0.4482-1,1c0,0.5518,0.4482,1,1,1
		c0.5518,0,1-0.4482,1-1C34.0001,18.1982,33.5519,17.75,33.0001,17.75z M33.0001,23.75c-0.5518,0-1,0.4482-1,1
		c0,0.5518,0.4482,1,1,1c0.5518,0,1-0.4482,1-1C34.0001,24.1982,33.5519,23.75,33.0001,23.75z M36.0001,26.75
		c-0.5518,0-1,0.4482-1,1c0,0.5518,0.4482,1,1,1c0.5518,0,1-0.4482,1-1C37.0001,27.1982,36.5519,26.75,36.0001,26.75z
		 M36.0001,20.75c-0.5518,0-1,0.4482-1,1c0,0.5518,0.4482,1,1,1c0.5518,0,1-0.4482,1-1C37.0001,21.1982,36.5519,20.75,36.0001,20.75
		z M39.0001,17.75c-0.5518,0-1,0.4482-1,1c0,0.5518,0.4482,1,1,1s1-0.4482,1-1C40.0001,18.1982,39.5519,17.75,39.0001,17.75z
		 M39.0001,23.75c-0.5518,0-1,0.4482-1,1c0,0.5518,0.4482,1,1,1s1-0.4482,1-1C40.0001,24.1982,39.5519,23.75,39.0001,23.75z
		 M42.0001,28.75c0.5518,0,1-0.4482,1-1c0-0.5518-0.4482-1-1-1c-0.5518,0-1,0.4482-1,1C41.0001,28.3018,41.4483,28.75,42.0001,28.75
		z M42.0001,22.75c0.5518,0,1-0.4482,1-1c0-0.5518-0.4482-1-1-1c-0.5518,0-1,0.4482-1,1
		C41.0001,22.3018,41.4483,22.75,42.0001,22.75z M6.0001,38.75c-0.5518,0-1,0.4482-1,1c0,0.5518,0.4482,1,1,1s1-0.4482,1-1
		C7.0001,39.1982,6.5519,38.75,6.0001,38.75z M6.0001,32.75c-0.5518,0-1,0.4482-1,1c0,0.5518,0.4482,1,1,1s1-0.4482,1-1
		C7.0001,33.1982,6.5519,32.75,6.0001,32.75z M3.0001,29.75c-0.5518,0-1,0.4482-1,1c0,0.5518,0.4482,1,1,1s1-0.4482,1-1
		C4.0001,30.1982,3.5519,29.75,3.0001,29.75z M3.0001,35.75c-0.5518,0-1,0.4482-1,1c0,0.5518,0.4482,1,1,1s1-0.4482,1-1
		C4.0001,36.1982,3.5519,35.75,3.0001,35.75z M9.0001,29.75c-0.5518,0-1,0.4482-1,1c0,0.5518,0.4482,1,1,1s1-0.4482,1-1
		C10.0001,30.1982,9.5519,29.75,9.0001,29.75z M12.0001,32.75c-0.5518,0-1,0.4482-1,1c0,0.5518,0.4482,1,1,1s1-0.4482,1-1
		C13.0001,33.1982,12.5519,32.75,12.0001,32.75z M18.0001,32.75c-0.5518,0-1,0.4482-1,1c0,0.5518,0.4482,1,1,1
		c0.5518,0,1-0.4482,1-1C19.0001,33.1982,18.5519,32.75,18.0001,32.75z M15.0001,29.75c-0.5518,0-1,0.4482-1,1
		c0,0.5518,0.4482,1,1,1s1-0.4482,1-1C16.0001,30.1982,15.5519,29.75,15.0001,29.75z M9.0001,35.75c-0.5518,0-1,0.4482-1,1
		c0,0.5518,0.4482,1,1,1s1-0.4482,1-1C10.0001,36.1982,9.5519,35.75,9.0001,35.75z M12.0001,38.75c-0.5518,0-1,0.4482-1,1
		c0,0.5518,0.4482,1,1,1s1-0.4482,1-1C13.0001,39.1982,12.5519,38.75,12.0001,38.75z M18.0001,38.75c-0.5518,0-1,0.4482-1,1
		c0,0.5518,0.4482,1,1,1c0.5518,0,1-0.4482,1-1C19.0001,39.1982,18.5519,38.75,18.0001,38.75z M30.0001,38.75
		c-0.5518,0-1,0.4482-1,1c0,0.5518,0.4482,1,1,1c0.5518,0,1-0.4482,1-1C31.0001,39.1982,30.5519,38.75,30.0001,38.75z
		 M15.0001,35.75c-0.5518,0-1,0.4482-1,1c0,0.5518,0.4482,1,1,1s1-0.4482,1-1C16.0001,36.1982,15.5519,35.75,15.0001,35.75z
		 M21.0001,29.75c-0.5518,0-1,0.4482-1,1c0,0.5518,0.4482,1,1,1c0.5518,0,1-0.4482,1-1C22.0001,30.1982,21.5519,29.75,21.0001,29.75
		z M24.0001,32.75c-0.5518,0-1,0.4482-1,1c0,0.5518,0.4482,1,1,1c0.5518,0,1-0.4482,1-1
		C25.0001,33.1982,24.5519,32.75,24.0001,32.75z M30.0001,32.75c-0.5518,0-1,0.4482-1,1c0,0.5518,0.4482,1,1,1
		c0.5518,0,1-0.4482,1-1C31.0001,33.1982,30.5519,32.75,30.0001,32.75z M27.0001,29.75c-0.5518,0-1,0.4482-1,1
		c0,0.5518,0.4482,1,1,1c0.5518,0,1-0.4482,1-1C28.0001,30.1982,27.5519,29.75,27.0001,29.75z M21.0001,35.75
		c-0.5518,0-1,0.4482-1,1c0,0.5518,0.4482,1,1,1c0.5518,0,1-0.4482,1-1C22.0001,36.1982,21.5519,35.75,21.0001,35.75z
		 M24.0001,38.75c-0.5518,0-1,0.4482-1,1c0,0.5518,0.4482,1,1,1c0.5518,0,1-0.4482,1-1C25.0001,39.1982,24.5519,38.75,24.0001,38.75
		z M27.0001,35.75c-0.5518,0-1,0.4482-1,1c0,0.5518,0.4482,1,1,1c0.5518,0,1-0.4482,1-1
		C28.0001,36.1982,27.5519,35.75,27.0001,35.75z M33.0001,29.75c-0.5518,0-1,0.4482-1,1c0,0.5518,0.4482,1,1,1
		c0.5518,0,1-0.4482,1-1C34.0001,30.1982,33.5519,29.75,33.0001,29.75z M33.0001,35.75c-0.5518,0-1,0.4482-1,1
		c0,0.5518,0.4482,1,1,1c0.5518,0,1-0.4482,1-1C34.0001,36.1982,33.5519,35.75,33.0001,35.75z M36.0001,38.75
		c-0.5518,0-1,0.4482-1,1c0,0.5518,0.4482,1,1,1c0.5518,0,1-0.4482,1-1C37.0001,39.1982,36.5519,38.75,36.0001,38.75z
		 M36.0001,32.75c-0.5518,0-1,0.4482-1,1c0,0.5518,0.4482,1,1,1c0.5518,0,1-0.4482,1-1C37.0001,33.1982,36.5519,32.75,36.0001,32.75
		z M39.0001,29.75c-0.5518,0-1,0.4482-1,1c0,0.5518,0.4482,1,1,1s1-0.4482,1-1C40.0001,30.1982,39.5519,29.75,39.0001,29.75z
		 M39.0001,35.75c-0.5518,0-1,0.4482-1,1c0,0.5518,0.4482,1,1,1s1-0.4482,1-1C40.0001,36.1982,39.5519,35.75,39.0001,35.75z
		 M42.0001,40.75c0.5518,0,1-0.4482,1-1c0-0.5518-0.4482-1-1-1c-0.5518,0-1,0.4482-1,1C41.0001,40.3018,41.4483,40.75,42.0001,40.75
		z M42.0001,34.75c0.5518,0,1-0.4482,1-1c0-0.5518-0.4482-1-1-1c-0.5518,0-1,0.4482-1,1
		C41.0001,34.3018,41.4483,34.75,42.0001,34.75z M6.0001,43.75c-0.5518,0-1,0.4482-1,1c0,0.5518,0.4482,1,1,1s1-0.4482,1-1
		C7.0001,44.1982,6.5519,43.75,6.0001,43.75z M3.0001,40.75c-0.5518,0-1,0.4482-1,1c0,0.5518,0.4482,1,1,1s1-0.4482,1-1
		C4.0001,41.1982,3.5519,40.75,3.0001,40.75z M9.0001,40.75c-0.5518,0-1,0.4482-1,1c0,0.5518,0.4482,1,1,1s1-0.4482,1-1
		C10.0001,41.1982,9.5519,40.75,9.0001,40.75z M12.0001,43.75c-0.5518,0-1,0.4482-1,1c0,0.5518,0.4482,1,1,1s1-0.4482,1-1
		C13.0001,44.1982,12.5519,43.75,12.0001,43.75z M18.0001,43.75c-0.5518,0-1,0.4482-1,1c0,0.5518,0.4482,1,1,1
		c0.5518,0,1-0.4482,1-1C19.0001,44.1982,18.5519,43.75,18.0001,43.75z M30.0001,43.75c-0.5518,0-1,0.4482-1,1
		c0,0.5518,0.4482,1,1,1c0.5518,0,1-0.4482,1-1C31.0001,44.1982,30.5519,43.75,30.0001,43.75z M15.0001,40.75
		c-0.5518,0-1,0.4482-1,1c0,0.5518,0.4482,1,1,1s1-0.4482,1-1C16.0001,41.1982,15.5519,40.75,15.0001,40.75z M21.0001,40.75
		c-0.5518,0-1,0.4482-1,1c0,0.5518,0.4482,1,1,1c0.5518,0,1-0.4482,1-1C22.0001,41.1982,21.5519,40.75,21.0001,40.75z
		 M24.0001,43.75c-0.5518,0-1,0.4482-1,1c0,0.5518,0.4482,1,1,1c0.5518,0,1-0.4482,1-1C25.0001,44.1982,24.5519,43.75,24.0001,43.75
		z M27.0001,40.75c-0.5518,0-1,0.4482-1,1c0,0.5518,0.4482,1,1,1c0.5518,0,1-0.4482,1-1
		C28.0001,41.1982,27.5519,40.75,27.0001,40.75z M33.0001,40.75c-0.5518,0-1,0.4482-1,1c0,0.5518,0.4482,1,1,1
		c0.5518,0,1-0.4482,1-1C34.0001,41.1982,33.5519,40.75,33.0001,40.75z M36.0001,43.75c-0.5518,0-1,0.4482-1,1
		c0,0.5518,0.4482,1,1,1c0.5518,0,1-0.4482,1-1C37.0001,44.1982,36.5519,43.75,36.0001,43.75z M39.0001,40.75
		c-0.5518,0-1,0.4482-1,1c0,0.5518,0.4482,1,1,1s1-0.4482,1-1C40.0001,41.1982,39.5519,40.75,39.0001,40.75z M42.0001,45.75
		c0.5518,0,1-0.4482,1-1c0-0.5518-0.4482-1-1-1c-0.5518,0-1,0.4482-1,1C41.0001,45.3018,41.4483,45.75,42.0001,45.75z M6.0001,49.75
		c-0.5518,0-1,0.4482-1,1c0,0.5518,0.4482,1,1,1s1-0.4482,1-1C7.0001,50.1982,6.5519,49.75,6.0001,49.75z M3.0001,46.75
		c-0.5518,0-1,0.4482-1,1c0,0.5518,0.4482,1,1,1s1-0.4482,1-1C4.0001,47.1982,3.5519,46.75,3.0001,46.75z M3.0001,52.75
		c-0.5518,0-1,0.4482-1,1c0,0.5518,0.4482,1,1,1s1-0.4482,1-1C4.0001,53.1982,3.5519,52.75,3.0001,52.75z M9.0001,46.75
		c-0.5518,0-1,0.4482-1,1c0,0.5518,0.4482,1,1,1s1-0.4482,1-1C10.0001,47.1982,9.5519,46.75,9.0001,46.75z M12.0001,49.75
		c-0.5518,0-1,0.4482-1,1c0,0.5518,0.4482,1,1,1s1-0.4482,1-1C13.0001,50.1982,12.5519,49.75,12.0001,49.75z M18.0001,49.75
		c-0.5518,0-1,0.4482-1,1c0,0.5518,0.4482,1,1,1c0.5518,0,1-0.4482,1-1C19.0001,50.1982,18.5519,49.75,18.0001,49.75z
		 M15.0001,46.75c-0.5518,0-1,0.4482-1,1c0,0.5518,0.4482,1,1,1s1-0.4482,1-1C16.0001,47.1982,15.5519,46.75,15.0001,46.75z
		 M9.0001,52.75c-0.5518,0-1,0.4482-1,1c0,0.5518,0.4482,1,1,1s1-0.4482,1-1C10.0001,53.1982,9.5519,52.75,9.0001,52.75z
		 M15.0001,52.75c-0.5518,0-1,0.4482-1,1c0,0.5518,0.4482,1,1,1s1-0.4482,1-1C16.0001,53.1982,15.5519,52.75,15.0001,52.75z
		 M21.0001,46.75c-0.5518,0-1,0.4482-1,1c0,0.5518,0.4482,1,1,1c0.5518,0,1-0.4482,1-1C22.0001,47.1982,21.5519,46.75,21.0001,46.75
		z M24.0001,49.75c-0.5518,0-1,0.4482-1,1c0,0.5518,0.4482,1,1,1c0.5518,0,1-0.4482,1-1
		C25.0001,50.1982,24.5519,49.75,24.0001,49.75z M30.0001,49.75c-0.5518,0-1,0.4482-1,1c0,0.5518,0.4482,1,1,1
		c0.5518,0,1-0.4482,1-1C31.0001,50.1982,30.5519,49.75,30.0001,49.75z M27.0001,46.75c-0.5518,0-1,0.4482-1,1
		c0,0.5518,0.4482,1,1,1c0.5518,0,1-0.4482,1-1C28.0001,47.1982,27.5519,46.75,27.0001,46.75z M21.0001,52.75
		c-0.5518,0-1,0.4482-1,1c0,0.5518,0.4482,1,1,1c0.5518,0,1-0.4482,1-1C22.0001,53.1982,21.5519,52.75,21.0001,52.75z
		 M27.0001,52.75c-0.5518,0-1,0.4482-1,1c0,0.5518,0.4482,1,1,1c0.5518,0,1-0.4482,1-1C28.0001,53.1982,27.5519,52.75,27.0001,52.75
		z M33.0001,46.75c-0.5518,0-1,0.4482-1,1c0,0.5518,0.4482,1,1,1c0.5518,0,1-0.4482,1-1
		C34.0001,47.1982,33.5519,46.75,33.0001,46.75z M33.0001,52.75c-0.5518,0-1,0.4482-1,1c0,0.5518,0.4482,1,1,1
		c0.5518,0,1-0.4482,1-1C34.0001,53.1982,33.5519,52.75,33.0001,52.75z M36.0001,49.75c-0.5518,0-1,0.4482-1,1
		c0,0.5518,0.4482,1,1,1c0.5518,0,1-0.4482,1-1C37.0001,50.1982,36.5519,49.75,36.0001,49.75z M39.0001,46.75
		c-0.5518,0-1,0.4482-1,1c0,0.5518,0.4482,1,1,1s1-0.4482,1-1C40.0001,47.1982,39.5519,46.75,39.0001,46.75z M39.0001,52.75
		c-0.5518,0-1,0.4482-1,1c0,0.5518,0.4482,1,1,1s1-0.4482,1-1C40.0001,53.1982,39.5519,52.75,39.0001,52.75z M42.0001,49.75
		c-0.5518,0-1,0.4482-1,1c0,0.5518,0.4482,1,1,1c0.5518,0,1-0.4482,1-1C43.0001,50.1982,42.5519,49.75,42.0001,49.75z"/>
	<path fill="#CB9D62" d="M2.0001,39.25c4-3,15.5-12.75,15.5-12.75l11.5,13.25L2.0001,39.25z"/>
	<polyline fill="#CB9D62" points="34.0001,19.75 23.5001,31.25 30.0001,39.75 44.0001,39.75 44.0001,31.75 	"/>
	<rect x="1.0001" y="39.75" fill="#FFFFFF" width="43" height="17.25"/>
	<g>
		<polygon fill="#3D3437" points="44.0001,41 1.0001,41 1.0001,39 44.0001,39 44.0001,41 		"/>
	</g>
	<g>
		<path fill="#3D3437" d="M44.0006,33c-0.2935,0-0.584-0.1284-0.7812-0.3755l-9.2695-11.5864l-9.7114,10.6362
			c-0.3726,0.4072-1.0044,0.4365-1.4126,0.064c-0.4077-0.3721-0.4365-1.0049-0.064-1.4126l10.5-11.5
			c0.1968-0.2163,0.4614-0.3403,0.771-0.3252c0.292,0.0098,0.5654,0.1465,0.7481,0.375l10,12.5
			c0.3452,0.4311,0.2754,1.0605-0.1562,1.4053C44.4405,32.9282,44.2198,33,44.0006,33L44.0006,33z"/>
	</g>
	<g>
		<path fill="#3D3437" d="M1.0006,41c-0.2832,0-0.5645-0.1196-0.7622-0.3521c-0.3579-0.4204-0.3071-1.0517,0.1138-1.4096
			l17.0151-14.4815c0.0708-0.0605,0.1489-0.1103,0.2324-0.1484l0,0c0.0005-0.0005,0.0015-0.001,0.0025-0.0015l0,0
			c0.0009-0.0005,0.0014-0.0005,0.0024-0.0009l0,0c0.001-0.0005,0.0015-0.001,0.0024-0.001l0,0
			c0.001-0.0005,0.0015-0.001,0.0025-0.0015l0,0c0.001,0,0.0014-0.0005,0.0024-0.001c-0.0005-0.0004,0.001,0.0005,0.0025-0.0009
			c0,0,0.0014-0.0005,0.0024-0.001l0.0005-0.0005c0.0005,0,0.0015-0.0005,0.0024-0.001l0,0c0.001-0.0005,0.0015-0.0005,0.0025-0.001
			l0,0c0.0009-0.0004,0.0014-0.0004,0.0024-0.0009l0,0c0.001-0.0005,0.0015-0.001,0.0025-0.001l0,0
			c0.0009-0.0005,0.0019-0.001,0.0024-0.0015H17.63c0.0005,0,0.0019-0.0014,0.0024-0.001c0,0,0.0015-0.0004,0.0025-0.0009l0,0
			c0.0009-0.0005,0.0014-0.0005,0.0024-0.001l0,0c0.001-0.0005,0.0015-0.0005,0.0024-0.001l0,0
			c0.001-0.0005,0.002-0.001,0.002-0.001h0.0005c0.0952-0.0385,0.1953-0.0625,0.2983-0.0703l0,0c0.001,0,0.0015,0,0.0025,0l0,0
			c0.0009,0,0.0019-0.0005,0.0029-0.0005l0,0c0.001,0,0.002,0,0.002,0h0.0009c0,0,0.0015,0,0.0025,0
			c0,0,0.0014-0.0004,0.0024-0.0004h0.0005c0.001,0,0.0015,0,0.0024,0h0.0005c0.0005,0,0.0015,0,0.0025-0.0005
			c0,0,0.0014,0,0.0024,0s0.001,0,0.0029,0h0.0005c0.002,0,0.002,0.0005,0.003-0.0005c0,0,0.0019,0,0.0029,0
			c0.0005,0,0.001,0,0.0019,0c0,0,0.0015,0,0.0025,0h0.001c0.0019,0,0.0019,0.0005,0.0029-0.0005c0,0,0.001,0,0.0019,0
			c0,0,0.0015,0,0.0025,0c0.001,0,0.0019,0,0.0029,0s0.002,0,0.0029,0h0.0015c0,0,0.001,0,0.0029,0c0,0,0.0015-0.0005,0.003-0.0005
			c0,0,0.0009,0,0.0029,0h0.0005c0.001,0,0.0015,0,0.0024,0h0.0005c0.002,0,0.0029,0,0.0029,0c0.0054,0,0.0113,0,0.0166,0h0.0005
			c0,0,0.0015,0,0.0025,0c0,0,0.001,0,0.0029,0c0,0,0.001,0,0.0029,0l0,0c0.002,0,0.003,0,0.003,0c0.0009,0,0.0019,0,0.0029,0l0,0
			c0.001,0,0.002,0,0.0029,0.0005l0,0c0.0254,0.0005,0.0513,0.0019,0.0772,0.0044c0.0117,0.0014,0.0239,0.0029,0.0361,0.0044l0,0
			c0.001,0,0.002,0.0005,0.0029,0.0005c0,0,0.001,0.0005,0.003,0.0005h0.0005c0.0009,0,0.0019,0,0.0029,0.0004
			c-0.0005-0.0004,0.001-0.0004,0.0029,0.0005h0.0005c0.001,0.0005,0.002,0.0005,0.0034,0.0005c0.0005,0,0.0015,0,0.0025,0.0005
			c0,0,0.0019-0.0005,0.0029,0.0005c0.001,0,0.0019-0.0005,0.0029,0.0005c0.001,0,0.0015-0.0005,0.0034,0.0005
			c0,0,0.002,0.0005,0.003,0.0005c0.0009,0,0.0019,0.0004,0.0029,0.0004c0.0015,0,0.0024,0.001,0.0029,0.0005
			c0.001,0.0005,0.002,0.0005,0.0034,0.0005c0.001,0,0.001,0,0.003,0.0005c0.0005,0,0.001,0.0005,0.0019,0.0005
			c0,0,0.002,0.0005,0.003,0.0005c0.0014-0.0005,0.0014,0.0005,0.0034,0.0005c0.0005,0,0.0014,0,0.0029,0.0005
			c0.001,0.0009,0.002,0,0.0029,0.0009c0.0015,0,0.0015,0,0.0035,0.0005h0.0004c0.002,0.001,0.0025,0,0.0035,0.001
			c0,0,0.0014,0,0.0024,0.0005c-0.001-0.0005,0.001,0,0.0029,0.0005h0.0005c0.002,0.001,0.0025,0,0.0034,0.001
			c0,0,0.0015,0,0.0025,0.0005h0.0005c0.0009,0,0.0014,0.0004,0.0024,0.0004h0.0005c0.0024,0.001,0.0034,0.001,0.0034,0.001
			c0.0005,0,0.0015,0,0.0025,0.0005c0.0009,0.001,0.0019,0.0005,0.0029,0.0005c0.0005,0,0.0015,0,0.0029,0.001
			c0.0005,0,0.0005,0,0.0005,0c0.001,0,0.002,0.0005,0.0029,0.0005c-0.0005,0.0004,0.001-0.0005,0.003,0.0009h0.0005
			c0.0019,0,0.0029,0,0.0029,0.001c0.001,0,0.0019,0,0.0029,0.0005l0,0c0.001,0.0005,0.0054,0.002,0.0029,0.001
			c0.001,0,0.002,0.0005,0.003,0.0005h0.0005c0.0014,0.0009,0.0024,0.0009,0.0024,0.0009c0.0015,0,0.0024,0.0005,0.0034,0.0005l0,0
			c0.001,0.0005,0.002,0.0005,0.0029,0.001l0,0c0.001,0.0005,0.002,0.0005,0.003,0.001l0,0c0.0014,0,0.0024,0.0005,0.0034,0.0005
			l0,0c0.001,0.0005,0.0019,0.0005,0.0029,0.0009l0,0c0.2051,0.0562,0.3887,0.1773,0.522,0.3467l10.9648,13.9668
			c0.1441,0.1836,0.2134,0.4014,0.2134,0.6177c0,0.2959-0.1313,0.5894-0.3823,0.7866c-0.4336,0.3399-1.0635,0.2656-1.4043-0.1689
			l-10.311-13.1343L3.6612,39.5005c-0.2309,0.2031-0.5283,0.2788-0.811,0.2383L1.648,40.7617C1.4601,40.9219,1.2296,41,1.0006,41
			L1.0006,41z"/>
	</g>
	<g>
		<path fill="#CCCCCC" d="M32.0001,2.3916V13h10.6094c0.457,0,0.6865-0.5537,0.3633-0.877L32.8771,2.0283
			C32.5528,1.7041,32.0001,1.9336,32.0001,2.3916z"/>
		<path fill="#3D3437" d="M42.6095,14H31.0001V2.3916c0-0.8354,0.6807-1.5151,1.5171-1.5151c0.4014,0,0.7803,0.1582,1.0669,0.4448
			L43.6798,11.416c0.4346,0.4341,0.563,1.0816,0.3276,1.6494C43.7726,13.6333,43.2237,14,42.6095,14L42.6095,14z M33.0001,12h8.4356
			l-8.4356-8.4346V12L33.0001,12z"/>
	</g>
	<g>
		<circle fill="#95BCA7" cx="10.0001" cy="18.0693" r="4.5684"/>
		<path fill="#3D3437" d="M10.0001,23.6377c-3.0703,0-5.5684-2.4981-5.5684-5.5684c0-3.0708,2.4981-5.5693,5.5684-5.5693
			s5.5684,2.4985,5.5684,5.5693C15.5685,21.1396,13.0704,23.6377,10.0001,23.6377L10.0001,23.6377z M10.0001,14.5
			c-1.9678,0-3.5684,1.6011-3.5684,3.5693c0,1.9678,1.6006,3.5684,3.5684,3.5684s3.5684-1.6006,3.5684-3.5684
			C13.5685,16.1011,11.9679,14.5,10.0001,14.5L10.0001,14.5z"/>
	</g>
	<g>
		<path fill="#3D3437" d="M13.422,44.7715c2.1113,0,3.3222,1.043,3.3222,2.8672c0,1.8945-1.2109,2.998-3.3222,2.998h-1.9317v2.5303
			h-1.414v-8.3955H13.422z M11.4903,49.3652h1.8711c1.2949,0,2.0274-0.5517,2.0274-1.6914c0-1.1035-0.7325-1.6308-2.0274-1.6308
			h-1.8711V49.3652z"/>
		<path fill="#3D3437" d="M24.1603,53.167l-4.4727-6.0205v6.0205h-1.416v-8.3955h1.3926l4.4961,6.0332v-6.0332h1.3925v8.3955
			H24.1603z"/>
		<path fill="#3D3437" d="M34.8751,49.041v3.0947c-0.8516,0.6475-2.1113,1.0909-3.2617,1.0909
			c-2.4824,0-4.4141-1.8584-4.4141-4.2579c0-2.3984,1.9551-4.2324,4.4981-4.2324c1.1992,0,2.3984,0.4551,3.2266,1.1748
			l-0.8047,1.044c-0.6465-0.6006-1.5469-0.96-2.4219-0.96c-1.7149,0-3.0586,1.3076-3.0586,2.9736
			c0,1.6797,1.3555,2.9864,3.0703,2.9864c0.623,0,1.332-0.2149,1.9316-0.5752V49.041H34.8751z"/>
	</g>
	<g>
		<path fill="#3D3437" d="M42.5372,58H2.463c-1.2432,0-2.4629-0.9907-2.4629-2V2.9258C0.0001,0.9155,1.277,0,2.463,0h29.0225
			c0.5005,0,0.9717,0.1943,1.3272,0.5479l11.6367,11.6376c0.4585,0.4585,0.5508,1.0259,0.5508,1.793V56
			C45.0001,57.0093,43.7804,58,42.5372,58L42.5372,58z M2.0001,55.8047C2.0919,55.8887,2.2701,56,2.463,56h40.0742
			c0.1929,0,0.3711-0.1113,0.4629-0.1953V13.9785c0-0.2451-0.0137-0.375-0.0234-0.4375L31.4005,1.9639L2.463,2
			C2.0333,2,2.0001,2.7085,2.0001,2.9258V55.8047L2.0001,55.8047z"/>
	</g>
</g>
</svg>
