<?xml version="1.0" encoding="utf-8"?>
<!-- Generator: Adobe Illustrator 17.1.0, SVG Export Plug-In . SVG Version: 6.00 Build 0)  -->
<!DOCTYPE svg PUBLIC "-//W3C//DTD SVG 1.1//EN" "http://www.w3.org/Graphics/SVG/1.1/DTD/svg11.dtd">
<svg version="1.1" id="round-transform-tool" xmlns="http://www.w3.org/2000/svg" xmlns:xlink="http://www.w3.org/1999/xlink"
	 x="0px" y="0px" viewBox="0 0 58 58" enable-background="new 0 0 58 58" xml:space="preserve">
<g id="round-transform-tool-round-transform-tool">
	<g>
		<rect x="25" y="1" fill="#95BCA7" width="8" height="8"/>
		<path fill="#3D3437" d="M33,10h-8c-0.5522,0-1-0.4478-1-1V1c0-0.5522,0.4478-1,1-1h8c0.5527,0,1,0.4478,1,1v8
			C34,9.5522,33.5527,10,33,10L33,10z M26,8h6V2h-6V8L26,8z"/>
	</g>
	<g>
		<rect x="25" y="49" fill="#95BCA7" width="8" height="8"/>
		<path fill="#3D3437" d="M33,58h-8c-0.5522,0-1-0.4478-1-1v-8c0-0.5522,0.4478-1,1-1h8c0.5527,0,1,0.4478,1,1v8
			C34,57.5522,33.5527,58,33,58L33,58z M26,56h6v-6h-6V56L26,56z"/>
	</g>
	<g>
		<rect x="49" y="25" fill="#95BCA7" width="8" height="8"/>
		<path fill="#3D3437" d="M57,34h-8c-0.5527,0-1-0.4478-1-1v-8c0-0.5522,0.4473-1,1-1h8c0.5527,0,1,0.4478,1,1v8
			C58,33.5522,57.5527,34,57,34L57,34z M50,32h6v-6h-6V32L50,32z"/>
	</g>
	<g>
		<rect x="1" y="25" fill="#95BCA7" width="8" height="8"/>
		<path fill="#3D3437" d="M9,34H1c-0.5522,0-1-0.4478-1-1v-8c0-0.5522,0.4478-1,1-1h8c0.5522,0,1,0.4478,1,1v8
			C10,33.5522,9.5522,34,9,34L9,34z M2,32h6v-6H2V32L2,32z"/>
	</g>
	<g>
		<path fill="#3D3437" d="M33,53.6621c-0.2344,0-0.4639-0.0825-0.6455-0.2368C32.1299,53.2354,32,52.9561,32,52.6621V50h-6v2.6621
			c0,0.294-0.1294,0.5733-0.354,0.7632c-0.2251,0.1904-0.523,0.272-0.8115,0.2231C14.3447,51.8867,6.1133,43.6553,4.3516,33.1655
			c-0.0484-0.29,0.0327-0.5869,0.2231-0.8115C4.7646,32.1294,5.0439,32,5.3379,32H8v-6H5.3379c-0.294,0-0.5733-0.1294-0.7632-0.354
			c-0.1904-0.2246-0.2715-0.5215-0.2231-0.8115C6.1133,14.3437,14.3447,6.1128,24.8345,4.3521
			c0.2881-0.0494,0.5864,0.0327,0.8115,0.2231C25.8706,4.7651,26,5.0444,26,5.3384V8h6V5.3384c0-0.294,0.1299-0.5733,0.3545-0.7632
			c0.2246-0.1895,0.5215-0.27,0.8105-0.2231c10.4903,1.7607,18.7217,9.9916,20.4834,20.4824
			c0.0489,0.29-0.0332,0.5869-0.2226,0.8115C53.2354,25.8706,52.9561,26,52.6621,26H50v6h2.6621c0.294,0,0.5733,0.1294,0.7637,0.354
			c0.1894,0.2246,0.2715,0.5215,0.2226,0.8115c-1.7617,10.4898-9.9931,18.7212-20.4824,20.4829
			C33.1104,53.6577,33.0547,53.6621,33,53.6621L33,53.6621z M25,48h8c0.5527,0,1,0.4478,1,1v2.4492
			C42.7041,49.522,49.5215,42.7036,51.4492,34H49c-0.5527,0-1-0.4478-1-1v-8c0-0.5522,0.4473-1,1-1h2.4492
			C49.5215,15.2959,42.7031,8.4775,34,6.5513V9c0,0.5522-0.4473,1-1,1h-8c-0.5522,0-1-0.4478-1-1V6.5513
			C15.2964,8.4775,8.478,15.2959,6.5508,24H9c0.5522,0,1,0.4478,1,1v8c0,0.5522-0.4478,1-1,1H6.5508
			C8.478,42.7036,15.2964,49.522,24,51.4492V49C24,48.4478,24.4478,48,25,48L25,48z"/>
	</g>
</g>
</svg>
