<?xml version="1.0" encoding="utf-8"?>
<!-- Generator: Adobe Illustrator 17.1.0, SVG Export Plug-In . SVG Version: 6.00 Build 0)  -->
<!DOCTYPE svg PUBLIC "-//W3C//DTD SVG 1.1//EN" "http://www.w3.org/Graphics/SVG/1.1/DTD/svg11.dtd">
<svg version="1.1" id="ruler-pencil" xmlns="http://www.w3.org/2000/svg" xmlns:xlink="http://www.w3.org/1999/xlink" x="0px"
	 y="0px" viewBox="0 0 54.4942 54.9736" enable-background="new 0 0 54.4942 54.9736" xml:space="preserve">
<g id="ruler-pencil-ruler-pencil">
	<g>
		<g>
			<polygon fill="#FFFFFF" points="51.5454,53.9736 1,53.9736 1,3.4287 			"/>
			<path fill="#3D3437" d="M51.5454,54.9736H1c-0.5522,0-1-0.4478-1-1V3.4287c0-0.4043,0.2437-0.7691,0.6172-0.9239
				C0.9908,2.3491,1.4205,2.435,1.7071,2.7216l50.5454,50.545c0.2861,0.2861,0.3716,0.7158,0.2168,1.0898
				C52.3145,54.7299,51.9497,54.9736,51.5454,54.9736L51.5454,54.9736z M2,52.9736h47.1314L2,5.8427V52.9736L2,52.9736z"/>
		</g>
		<g>
			<polygon fill="#F0F0F0" points="11.4566,43.517 11.4566,28.6762 26.2969,43.517 			"/>
			<path fill="#3D3437" d="M26.2969,44.517H11.4566c-0.5523,0-1-0.4477-1-1V28.6762c0-0.4043,0.2436-0.769,0.6172-0.9238
				c0.374-0.1553,0.8037-0.0703,1.0898,0.2168L27.0039,42.81c0.2862,0.2861,0.3716,0.7158,0.2168,1.0899
				C27.066,44.2734,26.7012,44.517,26.2969,44.517L26.2969,44.517z M12.4566,42.517h11.4263L12.4566,31.0903V42.517L12.4566,42.517z
				"/>
		</g>
		<g>
			<g>
				<path fill="#3D3437" d="M5.9371,13.0629c-0.2559,0-0.5123-0.0976-0.7076-0.2929c-0.3901-0.3911-0.3901-1.024,0.0005-1.4146
					l1.8496-1.8481c0.3907-0.3897,1.024-0.3902,1.4146,0.0005c0.3901,0.3911,0.3901,1.0239-0.0005,1.4145l-1.8496,1.8482
					C6.4488,12.9653,6.1929,13.0629,5.9371,13.0629L5.9371,13.0629z"/>
			</g>
			<g>
				<path fill="#3D3437" d="M7.7857,17.3759c-0.2559,0-0.5117-0.0976-0.707-0.2929c-0.3907-0.3902-0.3907-1.0235,0-1.4141
					l3.0805-3.0815c0.3897-0.3907,1.0235-0.3907,1.4141,0c0.3906,0.3901,0.3906,1.0234,0,1.414L8.4927,17.083
					C8.2979,17.2783,8.0415,17.3759,7.7857,17.3759L7.7857,17.3759z"/>
			</g>
			<g>
				<path fill="#3D3437" d="M12.0987,19.2236c-0.2559,0-0.5122-0.0977-0.7075-0.293c-0.3902-0.3906-0.3902-1.0239,0.0004-1.4145
					l1.8487-1.8477c0.3906-0.3896,1.0239-0.3901,1.4145,0.0005c0.3902,0.3906,0.3902,1.0239-0.0005,1.4146l-1.8486,1.8476
					C12.6104,19.1259,12.3545,19.2236,12.0987,19.2236L12.0987,19.2236z"/>
			</g>
			<g>
				<path fill="#3D3437" d="M13.9473,23.539c-0.2559,0-0.5117-0.0976-0.707-0.293c-0.3906-0.3901-0.3906-1.0234,0-1.414
					l3.082-3.0825c0.3906-0.3907,1.0234-0.3907,1.4141,0c0.3906,0.3901,0.3906,1.0234,0,1.414l-3.0821,3.0825
					C14.459,23.4414,14.2032,23.539,13.9473,23.539L13.9473,23.539z"/>
			</g>
			<g>
				<path fill="#3D3437" d="M18.2627,25.3862c-0.2558,0-0.5112-0.0977-0.7065-0.2925c-0.3911-0.3901-0.3911-1.0234-0.001-1.4141
					l1.8467-1.8491c0.3896-0.3916,1.0225-0.3916,1.4141-0.001c0.3911,0.3902,0.3911,1.0235,0.0009,1.4141l-1.8466,1.8491
					C18.7749,25.2885,18.5191,25.3862,18.2627,25.3862L18.2627,25.3862z"/>
			</g>
			<g>
				<path fill="#3D3437" d="M20.1094,29.7006c-0.2558,0-0.5117-0.0976-0.707-0.2929c-0.3906-0.3907-0.3906-1.0235,0-1.4141
					l3.081-3.081c0.3907-0.3907,1.0235-0.3907,1.4141,0c0.3906,0.3906,0.3906,1.0234,0,1.414l-3.0811,3.0811
					C20.6211,29.603,20.3653,29.7006,20.1094,29.7006L20.1094,29.7006z"/>
			</g>
			<g>
				<path fill="#3D3437" d="M24.4234,31.5502c-0.2559,0-0.5117-0.0976-0.7071-0.2924c-0.3906-0.3907-0.3906-1.024-0.0004-1.4146
					l1.8486-1.8496c0.3906-0.3906,1.0239-0.3901,1.4145-0.0005c0.3907,0.3906,0.3907,1.0239,0.0005,1.4146l-1.8486,1.8496
					C24.9356,31.4526,24.6792,31.5502,24.4234,31.5502L24.4234,31.5502z"/>
			</g>
			<g>
				<path fill="#3D3437" d="M26.272,35.8637c-0.2558,0-0.5117-0.0976-0.707-0.2929c-0.3906-0.3902-0.3906-1.0235,0-1.4141
					l3.081-3.0815c0.3907-0.3907,1.0235-0.3907,1.4141,0c0.3906,0.3901,0.3906,1.0234,0,1.414l-3.0811,3.0816
					C26.7837,35.7661,26.5279,35.8637,26.272,35.8637L26.272,35.8637z"/>
			</g>
			<g>
				<path fill="#3D3437" d="M30.586,37.7114c-0.2559,0-0.5122-0.0977-0.7075-0.293c-0.3902-0.3906-0.3902-1.0239,0.0004-1.4145
					l1.8487-1.8477c0.3906-0.3896,1.0239-0.3901,1.4145,0.0005c0.3901,0.3906,0.3901,1.0239-0.0005,1.4145l-1.8486,1.8477
					C31.0977,37.6137,30.8418,37.7114,30.586,37.7114L30.586,37.7114z"/>
			</g>
			<g>
				<path fill="#3D3437" d="M32.4346,42.0258c-0.2558,0-0.5117-0.0976-0.707-0.2929c-0.3906-0.3902-0.3906-1.0235,0-1.4141
					l3.0801-3.082c0.3906-0.3907,1.0239-0.3907,1.4146,0c0.3906,0.3901,0.3906,1.0234,0,1.414l-3.0801,3.0821
					C32.9468,41.9282,32.6905,42.0258,32.4346,42.0258L32.4346,42.0258z"/>
			</g>
			<g>
				<path fill="#3D3437" d="M36.7481,43.8715c-0.2563,0-0.5122-0.0976-0.7075-0.2934c-0.3901-0.3906-0.3896-1.0239,0.001-1.4141
					l1.8486-1.8457c0.3911-0.3901,1.0239-0.3901,1.4141,0.001c0.3901,0.3906,0.3896,1.0239-0.001,1.4141l-1.8486,1.8457
					C37.2593,43.7739,37.0039,43.8715,36.7481,43.8715L36.7481,43.8715z"/>
			</g>
			<g>
				<path fill="#3D3437" d="M38.5967,48.1865c-0.2559,0-0.5122-0.0977-0.7075-0.293c-0.3901-0.3906-0.3901-1.0239,0.0005-1.4145
					l3.0825-3.0806c0.3906-0.3897,1.0239-0.3901,1.4146,0.0005c0.3901,0.3906,0.3901,1.0239-0.0005,1.4145l-3.0825,3.0806
					C39.1084,48.0888,38.8526,48.1865,38.5967,48.1865L38.5967,48.1865z"/>
			</g>
			<g>
				<path fill="#3D3437" d="M42.9122,50.0361c-0.2559,0-0.5112-0.0977-0.7065-0.2925c-0.3911-0.3901-0.3911-1.0234-0.001-1.4141
					l1.8472-1.8496c0.3901-0.3916,1.0225-0.3916,1.4141-0.0009c0.3911,0.3901,0.3911,1.0234,0.001,1.414l-1.8472,1.8496
					C43.4244,49.9384,43.1685,50.0361,42.9122,50.0361L42.9122,50.0361z"/>
			</g>
		</g>
	</g>
	<g>
		<g>
			
				<rect x="17.9768" y="6.8259" transform="matrix(-0.7071 0.7071 -0.7071 -0.7071 43.0887 -0.5214)" fill="#95BCA7" width="7.3511" height="3.6757"/>
			<path fill="#FFFFFF" d="M14.4961,6.7055c-0.7109-0.7119-0.7109-1.8686-0.0009-2.5791l2.6186-2.6186
				c0.3355-0.335,0.8052-0.5259,1.2905-0.5259c0.4854,0,0.9546,0.1919,1.2896,0.5259l3.2578,3.2573L17.753,9.9633L14.4961,6.7055z"
				/>
			
				<rect x="31.6249" y="4.8483" transform="matrix(-0.7071 0.7071 -0.7071 -0.7071 76.0364 13.1231)" fill="#CB9D62" width="7.3504" height="34.9244"/>
			<polygon fill="#CCCCCC" points="45.0479,37.2573 50.2466,32.059 52.1954,39.207 			"/>
		</g>
		<g>
			<g>
				<path fill="#3D3437" d="M53.6206,40.6323l-9.0922-2.48l-0.1875-0.188L13.7891,7.4126
					c-0.5337-0.5337-0.8276-1.2427-0.8276-1.9971c0-0.7549,0.2939-1.4639,0.8276-1.9976l2.6177-2.6172
					c1.0654-1.0673,2.9258-1.0678,3.9941-0.0005l30.7407,30.7393L53.6206,40.6323L53.6206,40.6323z M45.5674,36.3623l5.2026,1.4194
					l-1.4185-5.2031L18.9869,2.2148c-0.3116-0.3105-0.8545-0.3115-1.1661,0l-2.6176,2.6177
					c-0.1558,0.1557-0.2417,0.3628-0.2417,0.583c0,0.2197,0.0859,0.4272,0.2417,0.583L45.5674,36.3623L45.5674,36.3623z"/>
			</g>
			<g>
				<path fill="#3D3437" d="M20.3526,13.977l-4.0142-4.0127l6.6143-6.6133l4.0132,4.0132L20.3526,13.977L20.3526,13.977z
					 M19.1675,9.9643l1.1851,1.1846l3.7851-3.7847l-1.185-1.185L19.1675,9.9643L19.1675,9.9643z"/>
			</g>
			<g>
				<polygon fill="#3D3437" points="45.7549,37.9643 44.3409,36.5502 49.5396,31.352 50.9537,32.7661 45.7549,37.9643 				"/>
			</g>
			<g>
				<path fill="#3D3437" d="M53.4942,41.5068c-0.2559,0-0.5122-0.0977-0.7075-0.293l-1.2989-1.2998
					c-0.3901-0.3906-0.3901-1.0239,0.0005-1.4145c0.3906-0.3897,1.0239-0.3902,1.4146,0.0005l1.2988,1.2998
					c0.3901,0.3906,0.3901,1.0239-0.0005,1.4145C54.0059,41.4091,53.75,41.5068,53.4942,41.5068L53.4942,41.5068z"/>
			</g>
		</g>
	</g>
</g>
</svg>
