<?xml version="1.0" encoding="utf-8"?>
<!-- Generator: Adobe Illustrator 17.1.0, SVG Export Plug-In . SVG Version: 6.00 Build 0)  -->
<!DOCTYPE svg PUBLIC "-//W3C//DTD SVG 1.1//EN" "http://www.w3.org/Graphics/SVG/1.1/DTD/svg11.dtd">
<svg version="1.1" id="screen" xmlns="http://www.w3.org/2000/svg" xmlns:xlink="http://www.w3.org/1999/xlink" x="0px" y="0px"
	 viewBox="0 0 55.0782 47" enable-background="new 0 0 55.0782 47" xml:space="preserve">
<g id="screen-screen">
	<g>
		<polygon fill="#CB9D62" points="52.8731,32.1562 2.208,32.1543 1.1133,32.4229 1,31.2881 1,6.4355 2.208,6.7695 52.9239,6.7695 
			54.0821,6.4502 54.0782,7.6367 54.0782,32.4893 		"/>
		<path fill="#FFFFFF" d="M52.8731,6.7715L2.208,6.7695L1.1133,7.0381L1,5.9023v-1.955C1,2.3213,2.3223,1,3.9473,1h47.1836
			c1.625,0,2.9473,1.3213,2.9473,2.9473v3.1582L52.8731,6.7715z"/>
		<rect x="20.8926" y="37.9238" fill="#CCCCCC" width="13.7617" height="8.0762"/>
		<path fill="#FFFFFF" d="M3.9473,37.9238C2.3223,37.9238,1,36.6016,1,34.9756v-3.1563c0,0,1.2051,0.333,1.208,0.335h50.7159
			l1.1582-0.3184l-0.0039,3.1397c0,1.626-1.3223,2.9482-2.9473,2.9482H3.9473z"/>
	</g>
	<g>
		<path fill="#3D3437" d="M51.1309,38.9238H3.9473C1.7705,38.9238,0,37.1523,0,34.9756V3.9473C0,1.7705,1.7705,0,3.9473,0h47.1836
			c2.1768,0,3.9473,1.7705,3.9473,3.9473v31.0283C55.0782,37.1523,53.3077,38.9238,51.1309,38.9238L51.1309,38.9238z M3.9473,2
			C2.8741,2,2,2.874,2,3.9473v31.0283c0,1.0742,0.8741,1.9482,1.9473,1.9482h47.1836c1.0732,0,1.9473-0.874,1.9473-1.9482V3.9473
			C53.0782,2.874,52.2041,2,51.1309,2H3.9473L3.9473,2z"/>
	</g>
	<g>
		<path fill="#3D3437" d="M52.9239,7.7695H2.1534c-0.5528,0-1-0.4472-1-1c0-0.5527,0.4472-1,1-1h50.7705c0.5527,0,1,0.4473,1,1
			C53.9239,7.3223,53.4766,7.7695,52.9239,7.7695L52.9239,7.7695z"/>
	</g>
	<g>
		<path fill="#3D3437" d="M52.9239,33.1543H2.1534c-0.5528,0-1-0.4473-1-1c0-0.5527,0.4472-1,1-1h50.7705c0.5527,0,1,0.4473,1,1
			C53.9239,32.707,53.4766,33.1543,52.9239,33.1543L52.9239,33.1543z"/>
	</g>
	<g>
		<path fill="#3D3437" d="M34.6543,47H20.8926c-0.5527,0-1-0.4473-1-1v-8.0762h2V45h11.7617v-7.0762h2V46
			C35.6543,46.5527,35.2071,47,34.6543,47L34.6543,47z"/>
	</g>
	<g>
		<path fill="#3D3437" d="M36.7696,47H18.3077c-0.5528,0-1-0.4473-1-1c0-0.5527,0.4472-1,1-1h18.4619c0.5527,0,1,0.4473,1,1
			C37.7696,46.5527,37.3223,47,36.7696,47L36.7696,47z"/>
	</g>
	<g>
		<line fill="none" x1="27.5391" y1="3.873" x2="27.5391" y2="3.873"/>
	</g>
	<g>
		<g>
			<circle fill="#FFFFFF" cx="21.8877" cy="19.3818" r="8.0752"/>
			<path fill="#3D3437" d="M21.8877,28.4561c-5.0039,0-9.0752-4.0704-9.0752-9.0743s4.0713-9.0752,9.0752-9.0752
				s9.0752,4.0713,9.0752,9.0752S26.8916,28.4561,21.8877,28.4561L21.8877,28.4561z M21.8877,12.3066
				c-3.9013,0-7.0752,3.1739-7.0752,7.0752c0,3.9004,3.1739,7.0743,7.0752,7.0743c3.9014,0,7.0752-3.1739,7.0752-7.0743
				C28.9629,15.4805,25.7891,12.3066,21.8877,12.3066L21.8877,12.3066z"/>
		</g>
		<g>
			<circle fill="#95BCA7" cx="33.1924" cy="19.3818" r="8.0752"/>
			<path fill="#3D3437" d="M33.1914,28.4561c-5.0039,0-9.0742-4.0704-9.0742-9.0743s4.0703-9.0752,9.0742-9.0752
				c5.0049,0,9.0762,4.0713,9.0762,9.0752S38.1963,28.4561,33.1914,28.4561L33.1914,28.4561z M33.1914,12.3066
				c-3.9003,0-7.0742,3.1739-7.0742,7.0752c0,3.9004,3.1739,7.0743,7.0742,7.0743c3.9014,0,7.0762-3.1739,7.0762-7.0743
				C40.2676,15.4805,37.0928,12.3066,33.1914,12.3066L33.1914,12.3066z"/>
		</g>
	</g>
</g>
</svg>
