<?xml version="1.0" encoding="utf-8"?>
<!-- Generator: Adobe Illustrator 17.1.0, SVG Export Plug-In . SVG Version: 6.00 Build 0)  -->
<!DOCTYPE svg PUBLIC "-//W3C//DTD SVG 1.1//EN" "http://www.w3.org/Graphics/SVG/1.1/DTD/svg11.dtd">
<svg version="1.1" id="spray-paint" xmlns="http://www.w3.org/2000/svg" xmlns:xlink="http://www.w3.org/1999/xlink" x="0px"
	 y="0px" viewBox="0 0 39 59.9996" enable-background="new 0 0 39 59.9996" xml:space="preserve">
<g id="spray-paint-spray-paint">
	<g>
		<rect x="1" y="23.9996" fill="#9C705D" width="26" height="35"/>
		<path fill="#3D3437" d="M27,59.9996H1c-0.5527,0-1-0.4473-1-1v-35c0-0.5527,0.4473-1,1-1h26c0.5527,0,1,0.4473,1,1v35
			C28,59.5523,27.5527,59.9996,27,59.9996L27,59.9996z M2,57.9996h24v-33H2V57.9996L2,57.9996z"/>
	</g>
	<g>
		<path fill="#CCCCCC" d="M25,23.9996H3c0-5.5234,4.4766-10,10-10h2C20.5234,13.9996,25,18.4762,25,23.9996z"/>
		<path fill="#3D3437" d="M25,24.9996H3c-0.5527,0-1-0.4473-1-1c0-6.0654,4.9346-11,11-11h2c6.0654,0,11,4.9346,11,11
			C26,24.5524,25.5527,24.9996,25,24.9996L25,24.9996z M4.0557,22.9996h19.8886c-0.499-4.4941-4.3193-8-8.9443-8h-2
			C8.375,14.9996,4.5547,18.5055,4.0557,22.9996L4.0557,22.9996z"/>
	</g>
	<g>
		<path fill="#3D3437" d="M14,14.9996c-0.5527,0-1-0.4473-1-1v-3c0-0.5527,0.4473-1,1-1c0.5527,0,1,0.4473,1,1v3
			C15,14.5524,14.5527,14.9996,14,14.9996L14,14.9996z"/>
	</g>
	<g>
		<rect x="11" y="4.9996" fill="#95BCA7" width="6" height="6"/>
		<path fill="#3D3437" d="M17,11.9996h-6c-0.5527,0-1-0.4473-1-1v-6c0-0.5527,0.4473-1,1-1h6c0.5527,0,1,0.4473,1,1v6
			C18,11.5524,17.5527,11.9996,17,11.9996L17,11.9996z M12,9.9996h4v-4h-4V9.9996L12,9.9996z"/>
	</g>
	<g>
		<path fill="#3D3437" d="M17,8.9996h-2c-0.5527,0-1-0.4473-1-1s0.4473-1,1-1h2c0.5527,0,1,0.4473,1,1S17.5527,8.9996,17,8.9996
			L17,8.9996z"/>
	</g>
	<g>
		<rect x="11" y="31.9996" fill="#CB9D62" width="16" height="19"/>
		<path fill="#3D3437" d="M27,51.9996H11c-0.5527,0-1-0.4473-1-1v-19c0-0.5527,0.4473-1,1-1h16c0.5527,0,1,0.4473,1,1v19
			C28,51.5523,27.5527,51.9996,27,51.9996L27,51.9996z M12,49.9996h14v-17H12V49.9996L12,49.9996z"/>
	</g>
	<g>
		<path fill="#3D3437" d="M38,8.9996h-1c-0.5527,0-1-0.4473-1-1s0.4473-1,1-1h1c0.5527,0,1,0.4473,1,1S38.5527,8.9996,38,8.9996
			L38,8.9996z M34,8.9996h-1c-0.5527,0-1-0.4473-1-1s0.4473-1,1-1h1c0.5527,0,1,0.4473,1,1S34.5527,8.9996,34,8.9996L34,8.9996z
			 M30,8.9996h-1c-0.5527,0-1-0.4473-1-1s0.4473-1,1-1h1c0.5527,0,1,0.4473,1,1S30.5527,8.9996,30,8.9996L30,8.9996z M26,8.9996h-1
			c-0.5527,0-1-0.4473-1-1s0.4473-1,1-1h1c0.5527,0,1,0.4473,1,1S26.5527,8.9996,26,8.9996L26,8.9996z M22,8.9996h-1
			c-0.5527,0-1-0.4473-1-1s0.4473-1,1-1h1c0.5527,0,1,0.4473,1,1S22.5527,8.9996,22,8.9996L22,8.9996z"/>
	</g>
	<g>
		<path fill="#3D3437" d="M21,5.9996c-0.4189,0-0.8086-0.2646-0.9482-0.6836c-0.1748-0.5234,0.1074-1.0898,0.6318-1.2646
			l0.9482-0.3164c0.5245-0.1758,1.0899,0.1083,1.2647,0.6318c0.1748,0.5234-0.1074,1.0898-0.6319,1.2646l-0.9482,0.3164
			C21.2119,5.983,21.1045,5.9996,21,5.9996L21,5.9996z M24.7949,4.735c-0.4189,0-0.8086-0.2647-0.9482-0.6836
			c-0.1748-0.5235,0.1074-1.0899,0.6318-1.2647l0.9483-0.3164c0.5234-0.1758,1.0898,0.1084,1.2646,0.6318
			c0.1748,0.5235-0.1074,1.0899-0.6318,1.2647l-0.9483,0.3164C25.0068,4.7183,24.8994,4.735,24.7949,4.735L24.7949,4.735z
			 M28.5898,3.4693c-0.4189,0-0.8095-0.2646-0.9492-0.6845c-0.1738-0.5235,0.1094-1.0899,0.6338-1.2647l0.9483-0.3154
			c0.5234-0.1719,1.0898,0.1094,1.2646,0.6338c0.1738,0.5234-0.1094,1.0898-0.6338,1.2646l-0.9482,0.3154
			C28.8008,3.4527,28.6943,3.4693,28.5898,3.4693L28.5898,3.4693z M32.3838,2.2047c-0.419,0-0.8096-0.2647-0.9492-0.6846
			c-0.1739-0.5234,0.1093-1.0898,0.6338-1.2646l0.6162-0.2051c0.5224-0.1719,1.0908,0.1094,1.2646,0.6338
			c0.1738,0.5234-0.1094,1.0898-0.6338,1.2646l-0.6162,0.2051C32.5947,2.1881,32.4883,2.2047,32.3838,2.2047L32.3838,2.2047z"/>
	</g>
	<g>
		<path fill="#3D3437" d="M33,15.9996c-0.1045,0-0.2109-0.0166-0.3154-0.0508l-0.6162-0.2051
			c-0.5245-0.1748-0.8077-0.7412-0.6338-1.2646c0.1748-0.5244,0.7402-0.8057,1.2646-0.6338l0.6162,0.2051
			c0.5244,0.1748,0.8076,0.7412,0.6338,1.2646C33.8096,15.735,33.4189,15.9996,33,15.9996L33,15.9996z M29.5381,14.8453
			c-0.1045,0-0.211-0.0166-0.3154-0.0508l-0.9483-0.3154c-0.5244-0.1748-0.8076-0.7412-0.6338-1.2647
			c0.1748-0.5244,0.7403-0.8057,1.2647-0.6338l0.9482,0.3154c0.5244,0.1748,0.8076,0.7412,0.6338,1.2647
			C30.3477,14.5807,29.957,14.8453,29.5381,14.8453L29.5381,14.8453z M25.7432,13.5807c-0.1045,0-0.2119-0.0166-0.3164-0.0518
			l-0.9483-0.3164c-0.5244-0.1748-0.8066-0.7412-0.6318-1.2646c0.1748-0.5234,0.7412-0.8086,1.2646-0.6318l0.9483,0.3164
			c0.5244,0.1748,0.8066,0.7412,0.6318,1.2647C26.5518,13.316,26.1621,13.5807,25.7432,13.5807L25.7432,13.5807z M21.9482,12.316
			c-0.1044,0-0.2119-0.0166-0.3164-0.0518l-0.9482-0.3164c-0.5244-0.1748-0.8066-0.7412-0.6318-1.2647
			c0.1738-0.5234,0.7421-0.8086,1.2646-0.6318l0.9482,0.3164c0.5245,0.1748,0.8067,0.7412,0.6319,1.2646
			C22.7568,12.0514,22.3672,12.316,21.9482,12.316L21.9482,12.316z"/>
	</g>
	<g>
		<polygon fill="#3D3437" points="26.25,43.9996 16.25,43.9996 16.25,41.9996 26.25,41.9996 26.25,43.9996 		"/>
	</g>
	<g>
		<polygon fill="#3D3437" points="26.25,38.9996 20.25,38.9996 20.25,36.9996 26.25,36.9996 26.25,38.9996 		"/>
	</g>
</g>
</svg>
