<?xml version="1.0" encoding="utf-8"?>
<!-- Generator: Adobe Illustrator 17.1.0, SVG Export Plug-In . SVG Version: 6.00 Build 0)  -->
<!DOCTYPE svg PUBLIC "-//W3C//DTD SVG 1.1//EN" "http://www.w3.org/Graphics/SVG/1.1/DTD/svg11.dtd">
<svg version="1.1" id="stationary" xmlns="http://www.w3.org/2000/svg" xmlns:xlink="http://www.w3.org/1999/xlink" x="0px" y="0px"
	 viewBox="0 0 58.2364 56.2031" enable-background="new 0 0 58.2364 56.2031" xml:space="preserve">
<g id="stationary-stationary">
	<g id="stationary-pen-icon">
		<rect x="50.9502" y="6.8222" fill="#95BCA7" width="6.2862" height="7.212"/>
		<rect x="9.7364" y="6.8222" fill="#FFFFFF" width="41.2138" height="7.212"/>
		<polygon fill="#CB9D62" points="9.7364,6.6787 9.7364,14.1787 2.2364,10.4287 		"/>
		<g>
			<path fill="#3D3437" d="M58.2364,15.0342H9.2134L0,10.4287l9.2134-4.6065h49.023V15.0342L58.2364,15.0342z M9.6851,13.0342
				h46.5513v-5.212H9.6851l-5.2124,2.6065L9.6851,13.0342L9.6851,13.0342z"/>
		</g>
		<g>
			<polygon fill="#3D3437" points="51.9502,13.5713 49.9502,13.5713 49.9502,2 39.9502,2 39.9502,0 51.9502,0 51.9502,13.5713 			
				"/>
		</g>
		<g>
			<polygon fill="#3D3437" points="10.7364,13.9345 8.7364,13.9345 8.7364,7.1015 10.7364,7.1015 10.7364,13.9345 			"/>
		</g>
	</g>
	<g id="stationary-pencil">
		<g>
			<polygon fill="#9C705D" points="9.4483,23.3506 2.2364,26.9575 9.4483,30.5634 			"/>
			<rect x="9.4483" y="23.3506" fill="#95BCA7" width="41.5205" height="7.2128"/>
			<rect x="50.9688" y="23.3506" fill="#CB9D62" width="6.2676" height="7.2128"/>
		</g>
		<g>
			<g>
				<path fill="#3D3437" d="M58.2364,31.5634H9.2124l-9.2119-4.6059l9.2115-4.6069h49.0244V31.5634L58.2364,31.5634z
					 M9.6841,29.5634h46.5523v-5.2128H9.6846l-5.2124,2.6069L9.6841,29.5634L9.6841,29.5634z"/>
			</g>
			<g>
				<polygon fill="#3D3437" points="51.9688,30.1709 49.9688,30.1709 49.9688,22.958 51.9688,22.958 51.9688,30.1709 				"/>
			</g>
			<g>
				<polygon fill="#3D3437" points="10.4483,30.459 8.4483,30.459 8.4483,23.3506 10.4483,23.3506 10.4483,30.459 				"/>
			</g>
		</g>
		<g>
			<polygon fill="#3D3437" points="50.5479,27.7607 10.1924,27.7607 10.1924,25.7607 50.5479,25.7607 50.5479,27.7607 			"/>
		</g>
	</g>
	<g id="stationary-rule-icon">
		<g>
			<rect x="1.6182" y="41.0088" fill="#CB9D62" width="55" height="14.1943"/>
			<path fill="#3D3437" d="M57.6182,56.2031h-57V40.0088h57V56.2031L57.6182,56.2031z M2.6182,54.2031h53V42.0088h-53V54.2031
				L2.6182,54.2031z"/>
		</g>
		<g>
			<polygon fill="#3D3437" points="53.7832,50.9365 51.9121,50.9365 51.9121,48.9365 53.7832,48.9365 53.7832,50.9365 			"/>
		</g>
		<g>
			<g>
				<polygon fill="#3D3437" points="7.6182,46.3525 5.6182,46.3525 5.6182,41.3515 7.6182,41.3515 7.6182,46.3525 				"/>
			</g>
			<g>
				<polygon fill="#3D3437" points="10.6182,44.352 10.6172,41.353 12.6172,41.352 12.6182,44.351 10.6182,44.352 				"/>
			</g>
			<g>
				<polygon fill="#3D3437" points="17.6182,46.3535 15.6182,46.3535 15.6182,41.3525 17.6182,41.3525 17.6182,46.3535 				"/>
			</g>
			<g>
				<polygon fill="#3D3437" points="22.6182,44.3515 20.6182,44.3515 20.6182,41.3515 22.6182,41.3515 22.6182,44.3515 				"/>
			</g>
			<g>
				<polygon fill="#3D3437" points="27.6182,46.3525 25.6182,46.3525 25.6182,41.3515 27.6182,41.3515 27.6182,46.3525 				"/>
			</g>
			<g>
				<polygon fill="#3D3437" points="32.6182,44.3515 30.6182,44.3515 30.6182,41.3525 32.6182,41.3525 32.6182,44.3515 				"/>
			</g>
			<g>
				<polygon fill="#3D3437" points="35.6182,46.3525 35.6172,41.3525 37.6172,41.3525 37.6182,46.3525 35.6182,46.3525 				"/>
			</g>
			<g>
				<polygon fill="#3D3437" points="42.6172,44.352 40.6172,44.351 40.6182,41.352 42.6182,41.353 42.6172,44.352 				"/>
			</g>
			<g>
				<polygon fill="#3D3437" points="47.6182,46.3525 45.6182,46.3525 45.6182,41.3515 47.6182,41.3515 47.6182,46.3525 				"/>
			</g>
		</g>
	</g>
</g>
</svg>
