<?xml version="1.0" encoding="utf-8"?>
<!-- Generator: Adobe Illustrator 17.1.0, SVG Export Plug-In . SVG Version: 6.00 Build 0)  -->
<!DOCTYPE svg PUBLIC "-//W3C//DTD SVG 1.1//EN" "http://www.w3.org/Graphics/SVG/1.1/DTD/svg11.dtd">
<svg version="1.1" id="transparency-grid" xmlns="http://www.w3.org/2000/svg" xmlns:xlink="http://www.w3.org/1999/xlink" x="0px"
	 y="0px" viewBox="0 0 55 55" enable-background="new 0 0 55 55" xml:space="preserve">
<g id="transparency-grid-transparency-grid">
	<rect x="6.6377" y="6.6377" fill="#FFFFFF" width="41.7246" height="41.7246"/>
	<path fill="#CCCCCC" d="M44.8701,9.603h-3.4512V6.6377h-3.4912V9.603h-3.4736v0.021v3.4517v0.02h3.4736v3.4517h-3.4736v0.02v3.4512
		v0.0205h3.4736v3.4511h-3.4736v0.021v3.4517v0.0195h3.4736v3.4522h-3.4736v0.0205v3.4717h3.4736h0.0186v-3.4717h3.4521v3.4717
		h0.0205h3.4512h0.0195v-3.4717h3.4727v-3.4922h-3.4727v-3.4517h3.4727v-3.4926h-3.4727v-3.4512h3.4727v-3.4917h-3.4727V9.624
		h3.4727V6.6377h-3.4922V9.603z M41.3984,26.9629h-3.4521v-3.4517h3.4521V26.9629z M41.3984,20.0186h-3.4521v-3.4512h3.4521V20.0186
		z M41.3984,13.0757h-3.4521V9.624h3.4521V13.0757z M44.8701,30.4346h-3.4512v-3.4522h3.4512V30.4346z M44.8701,23.4902h-3.4512
		v-3.4511h3.4512V23.4902z M44.8701,16.5474h-3.4512v-3.4517h3.4512V16.5474z M44.8701,33.9268v3.4716h-3.4512v-3.4716h-0.0205
		h-3.4521h-0.0186v3.4716h-3.4736v0.0205v3.4512v0.0205h3.4736v3.4512h-3.4736v0.0205v3.4522v0.0195h3.4736v0.5283h3.4912V47.834
		h3.4512v0.5283h3.4922v-0.5478h-3.4727v-3.4522h3.4727v-3.4922h-3.4727v-3.4512h3.4727v-3.4921h-3.4727H44.8701z M41.3984,47.8145
		h-3.4521v-3.4522h3.4521V47.8145z M41.3984,40.8701h-3.4521v-3.4512h3.4521V40.8701z M44.8701,44.3418h-3.4512v-3.4512h3.4512
		V44.3418z M20.5459,9.603v0.021v3.4517v0.02h3.4727v3.4517h-3.4727v0.02v3.4512v0.0205h3.4727v3.4511h-3.4727v0.021v3.4517v0.0195
		h3.4727v3.4522h-3.4727v0.0205v3.4717h3.4727h0.0195v-3.4717h3.4512v3.4717h0.0214h3.4512h0.0205v-3.4717h3.4717v-0.0205v-3.4522
		v-0.0195h-3.4717v-3.4517h3.4717v-0.021v-3.4511v-0.0205h-3.4717v-3.4512h3.4717v-0.02v-3.4517v-0.02h-3.4717V9.624h3.4717V9.603
		V6.6377h-3.4922V9.603h-3.4512V6.6377h-3.4921V9.603H20.5459z M27.5107,13.0957h3.4512v3.4517h-3.4512V13.0957z M27.5107,20.0391
		h3.4512v3.4511h-3.4512V20.0391z M27.5107,26.9824h3.4512v3.4522h-3.4512V26.9824z M24.0381,9.624h3.4512v3.4517h-3.4512V9.624z
		 M24.0381,16.5674h3.4512v3.4512h-3.4512V16.5674z M24.0381,23.5112h3.4512v3.4517h-3.4512V23.5112z M34.4541,47.8145h-3.4717
		v-3.4522h3.4717v-0.0205v-3.4512v-0.0205h-3.4717v-3.4512h3.4717v-0.0205v-3.4716h-3.4717h-0.0205v3.4716h-3.4512v-3.4716h-0.0214
		h-3.4512h-0.0195v3.4716h-3.4727v0.0205v3.4512v0.0205h3.4727v3.4512h-3.4727v0.0205v3.4522v0.0195h3.4727v0.5283h3.4921V47.834
		h3.4512v0.5283h3.4922V47.834V47.8145z M27.4893,47.8145h-3.4512v-3.4522h3.4512V47.8145z M27.4893,40.8701h-3.4512v-3.4512h3.4512
		V40.8701z M30.9619,44.3418h-3.4512v-3.4512h3.4512V44.3418z M10.1299,33.9268v-3.4717h3.4512v3.4717h0.0214h3.4512h0.0195v-3.4717
		h3.4727v-0.0205v-3.4522v-0.0195h-3.4727v-3.4517h3.4727v-0.021v-3.4511v-0.0205h-3.4727v-3.4512h3.4727v-0.02v-3.4517v-0.02
		h-3.4727V9.624h3.4727V9.603V6.6377h-3.4922V9.603h-3.4512V6.6377h-3.4921V9.603H6.6377v3.4927h3.4727v3.4517H6.6377v3.4917h3.4727
		v3.4511H6.6377v3.4922h3.4727v3.4522H6.6377v3.4922h3.4727H10.1299z M13.6025,13.0957h3.4512v3.4517h-3.4512V13.0957z
		 M13.6025,20.0391h3.4512v3.4511h-3.4512V20.0391z M13.6025,26.9824h3.4512v3.4522h-3.4512V26.9824z M10.1299,9.624h3.4512v3.4517
		h-3.4512V9.624z M10.1299,16.5674h3.4512v3.4512h-3.4512V16.5674z M10.1299,23.5112h3.4512v3.4517h-3.4512V23.5112z
		 M20.5459,47.8145h-3.4727v-3.4522h3.4727v-0.0205v-3.4512v-0.0205h-3.4727v-3.4512h3.4727v-0.0205v-3.4716h-3.4727h-0.0195v3.4716
		h-3.4512v-3.4716h-0.0214h-3.4512h-0.0195v3.4716H6.6377v3.4922h3.4727v3.4512H6.6377v3.4922h3.4727v0.5283h3.4921V47.834h3.4512
		v0.5283h3.4922V47.834V47.8145z M13.5811,47.8145h-3.4512v-3.4522h3.4512V47.8145z M13.5811,40.8701h-3.4512v-3.4512h3.4512
		V40.8701z M17.0537,44.3418h-3.4512v-3.4512h3.4512V44.3418z"/>
	<g>
		<path fill="#3D3437" d="M49.3623,49.3623H5.6377V5.6377h43.7246V49.3623L49.3623,49.3623z M7.6377,47.3623h39.7246V7.6377H7.6377
			V47.3623L7.6377,47.3623z"/>
	</g>
	<g>
		<polygon fill="#3D3437" points="7.6377,2.8447 5.6377,2.8447 5.6377,0 7.6377,0 7.6377,2.8447 		"/>
	</g>
	<g>
		<polygon fill="#3D3437" points="7.6377,55 5.6377,55 5.6377,52.1553 7.6377,52.1553 7.6377,55 		"/>
	</g>
	<g>
		<polygon fill="#3D3437" points="49.3623,2.8447 47.3623,2.8447 47.3623,0 49.3623,0 49.3623,2.8447 		"/>
	</g>
	<g>
		<polygon fill="#3D3437" points="49.3623,55 47.3623,55 47.3623,52.1553 49.3623,52.1553 49.3623,55 		"/>
	</g>
	<g>
		<polygon fill="#3D3437" points="55,7.6377 52.1553,7.6377 52.1553,5.6377 55,5.6377 55,7.6377 		"/>
	</g>
	<g>
		<polygon fill="#3D3437" points="2.8447,7.6377 0,7.6377 0,5.6377 2.8447,5.6377 2.8447,7.6377 		"/>
	</g>
	<g>
		<polygon fill="#3D3437" points="55,49.3623 52.1553,49.3623 52.1553,47.3623 55,47.3623 55,49.3623 		"/>
	</g>
	<g>
		<polygon fill="#3D3437" points="2.8447,49.3623 0,49.3623 0,47.3623 2.8447,47.3623 2.8447,49.3623 		"/>
	</g>
</g>
</svg>
