<?xml version="1.0" encoding="utf-8"?>
<!-- Generator: Adobe Illustrator 17.1.0, SVG Export Plug-In . SVG Version: 6.00 Build 0)  -->
<!DOCTYPE svg PUBLIC "-//W3C//DTD SVG 1.1//EN" "http://www.w3.org/Graphics/SVG/1.1/DTD/svg11.dtd">
<svg version="1.1" id="transform-square" xmlns="http://www.w3.org/2000/svg" xmlns:xlink="http://www.w3.org/1999/xlink" x="0px"
	 y="0px" viewBox="0 0 52 52" enable-background="new 0 0 52 52" xml:space="preserve">
<g id="transform-square-transform-square">
	<g>
		<rect x="1" y="1" fill="#9C705D" width="7.6934" height="7.6934"/>
		<path fill="#3D3437" d="M8.6934,9.6934H1c-0.5527,0-1-0.4473-1-1V1c0-0.5527,0.4473-1,1-1h7.6934c0.5527,0,1,0.4473,1,1v7.6934
			C9.6934,9.2461,9.2461,9.6934,8.6934,9.6934L8.6934,9.6934z M2,7.6934h5.6934V2H2V7.6934L2,7.6934z"/>
	</g>
	<g>
		<rect x="22.1543" y="1" fill="#FFFFFF" width="7.6914" height="7.6934"/>
		<path fill="#3D3437" d="M29.8457,9.6934h-7.6914c-0.5527,0-1-0.4473-1-1V1c0-0.5527,0.4473-1,1-1h7.6914c0.5527,0,1,0.4473,1,1
			v7.6934C30.8457,9.2461,30.3984,9.6934,29.8457,9.6934L29.8457,9.6934z M23.1543,7.6934h5.6914V2h-5.6914V7.6934L23.1543,7.6934z"
			/>
	</g>
	<g>
		<rect x="43.3076" y="1" fill="#9C705D" width="7.6924" height="7.6934"/>
		<path fill="#3D3437" d="M51,9.6934h-7.6924c-0.5527,0-1-0.4473-1-1V1c0-0.5527,0.4473-1,1-1H51c0.5527,0,1,0.4473,1,1v7.6934
			C52,9.2461,51.5527,9.6934,51,9.6934L51,9.6934z M44.3076,7.6934H50V2h-5.6924V7.6934L44.3076,7.6934z"/>
	</g>
	<g>
		<rect x="1" y="43.3066" fill="#9C705D" width="7.6934" height="7.6934"/>
		<path fill="#3D3437" d="M8.6934,52H1c-0.5527,0-1-0.4473-1-1v-7.6934c0-0.5527,0.4473-1,1-1h7.6934c0.5527,0,1,0.4473,1,1V51
			C9.6934,51.5527,9.2461,52,8.6934,52L8.6934,52z M2,50h5.6934v-5.6934H2V50L2,50z"/>
	</g>
	<g>
		<rect x="22.1543" y="43.3066" fill="#FFFFFF" width="7.6914" height="7.6934"/>
		<path fill="#3D3437" d="M29.8457,52h-7.6914c-0.5527,0-1-0.4473-1-1v-7.6934c0-0.5527,0.4473-1,1-1h7.6914c0.5527,0,1,0.4473,1,1
			V51C30.8457,51.5527,30.3984,52,29.8457,52L29.8457,52z M23.1543,50h5.6914v-5.6934h-5.6914V50L23.1543,50z"/>
	</g>
	<g>
		<rect x="1" y="22.1543" fill="#FFFFFF" width="7.6934" height="7.6914"/>
		<path fill="#3D3437" d="M8.6934,30.8457H1c-0.5527,0-1-0.4473-1-1v-7.6914c0-0.5527,0.4473-1,1-1h7.6934c0.5527,0,1,0.4473,1,1
			v7.6914C9.6934,30.3984,9.2461,30.8457,8.6934,30.8457L8.6934,30.8457z M2,28.8457h5.6934v-5.6914H2V28.8457L2,28.8457z"/>
	</g>
	<g>
		<rect x="43.3076" y="22.1543" fill="#FFFFFF" width="7.6924" height="7.6914"/>
		<path fill="#3D3437" d="M51,30.8457h-7.6924c-0.5527,0-1-0.4473-1-1v-7.6914c0-0.5527,0.4473-1,1-1H51c0.5527,0,1,0.4473,1,1
			v7.6914C52,30.3984,51.5527,30.8457,51,30.8457L51,30.8457z M44.3076,28.8457H50v-5.6914h-5.6924V28.8457L44.3076,28.8457z"/>
	</g>
	<g>
		<rect x="43.3076" y="43.3066" fill="#9C705D" width="7.6924" height="7.6934"/>
		<path fill="#3D3437" d="M51,52h-7.6924c-0.5527,0-1-0.4473-1-1v-7.6934c0-0.5527,0.4473-1,1-1H51c0.5527,0,1,0.4473,1,1V51
			C52,51.5527,51.5527,52,51,52L51,52z M44.3076,50H50v-5.6934h-5.6924V50L44.3076,50z"/>
	</g>
	<g>
		<path fill="#3D3437" d="M4.8467,23.1543c-0.5528,0-1-0.4473-1-1V8.6934c0-0.5527,0.4472-1,1-1c0.5527,0,1,0.4473,1,1v13.4609
			C5.8467,22.707,5.3994,23.1543,4.8467,23.1543L4.8467,23.1543z"/>
	</g>
	<g>
		<path fill="#3D3437" d="M4.8467,44.3066c-0.5528,0-1-0.4472-1-1v-12.498c0-0.5527,0.4472-1,1-1c0.5527,0,1,0.4473,1,1v12.498
			C5.8467,43.8594,5.3994,44.3066,4.8467,44.3066L4.8467,44.3066z"/>
	</g>
	<g>
		<path fill="#3D3437" d="M22.1543,48.1543H8.6934c-0.5528,0-1-0.4473-1-1s0.4472-1,1-1h13.4609c0.5527,0,1,0.4473,1,1
			S22.707,48.1543,22.1543,48.1543L22.1543,48.1543z"/>
	</g>
	<g>
		<path fill="#3D3437" d="M43.3076,48.1543H29.8457c-0.5527,0-1-0.4473-1-1s0.4473-1,1-1h13.4619c0.5528,0,1,0.4473,1,1
			S43.8604,48.1543,43.3076,48.1543L43.3076,48.1543z"/>
	</g>
	<g>
		<path fill="#3D3437" d="M43.3076,5.8457H29.8457c-0.5527,0-1-0.4473-1-1c0-0.5527,0.4473-1,1-1h13.4619c0.5528,0,1,0.4473,1,1
			C44.3076,5.3984,43.8604,5.8457,43.3076,5.8457L43.3076,5.8457z"/>
	</g>
	<g>
		<path fill="#3D3437" d="M22.1543,5.8457H8.6934c-0.5528,0-1-0.4473-1-1c0-0.5527,0.4472-1,1-1h13.4609c0.5527,0,1,0.4473,1,1
			C23.1543,5.3984,22.707,5.8457,22.1543,5.8457L22.1543,5.8457z"/>
	</g>
	<g>
		<path fill="#3D3437" d="M47.1543,44.3066c-0.5527,0-1-0.4472-1-1v-12.498c0-0.5527,0.4473-1,1-1c0.5527,0,1,0.4473,1,1v12.498
			C48.1543,43.8594,47.707,44.3066,47.1543,44.3066L47.1543,44.3066z"/>
	</g>
	<g>
		<path fill="#3D3437" d="M47.1543,23.1543c-0.5527,0-1-0.4473-1-1V8.6934c0-0.5527,0.4473-1,1-1c0.5527,0,1,0.4473,1,1v13.4609
			C48.1543,22.707,47.707,23.1543,47.1543,23.1543L47.1543,23.1543z"/>
	</g>
</g>
</svg>
