<?xml version="1.0" encoding="utf-8"?>
<!-- Generator: Adobe Illustrator 17.1.0, SVG Export Plug-In . SVG Version: 6.00 Build 0)  -->
<!DOCTYPE svg PUBLIC "-//W3C//DTD SVG 1.1//EN" "http://www.w3.org/Graphics/SVG/1.1/DTD/svg11.dtd">
<svg version="1.1" id="vector-file" xmlns="http://www.w3.org/2000/svg" xmlns:xlink="http://www.w3.org/1999/xlink" x="0px"
	 y="0px" viewBox="0 0 45 58" enable-background="new 0 0 45 58" xml:space="preserve">
<g id="vector-file-vector-file">
	<g>
		<path fill="#FFFFFF" d="M31.4853,1H2.4629C1.6553,1,1,1.6553,1,2.9258V56c0,0.3447,0.6553,1,1.4629,1h40.0742
			C43.3457,57,44,56.3447,44,56V13.9785c0-0.6963-0.0928-0.9209-0.2578-1.0859L32.1074,1.2568C31.9424,1.0928,31.7188,1,31.4853,1z"
			/>
		<path fill="#3D3437" d="M42.5371,58H2.4629C1.2197,58,0,57.0098,0,56V2.9258C0,0.916,1.2769,0,2.4629,0h29.0224
			c0.5005,0,0.9717,0.1943,1.3272,0.5479l11.6367,11.6376C44.9077,12.6445,45,13.2119,45,13.9785V56
			C45,57.0098,43.7803,58,42.5371,58L42.5371,58z M2,55.8047C2.0918,55.8887,2.27,56,2.4629,56h40.0742
			C42.73,56,42.9082,55.8887,43,55.8047V13.9785c0-0.2451-0.0137-0.375-0.0234-0.4375L31.4004,1.9639L2.4629,2
			C2.0332,2,2,2.709,2,2.9258V55.8047L2,55.8047z"/>
	</g>
	<g>
		<path fill="#95BCA7" d="M32,2.3916V13h10.6094c0.457,0,0.6865-0.5537,0.3633-0.877L32.8769,2.0283
			C32.5527,1.7041,32,1.9336,32,2.3916z"/>
		<path fill="#3D3437" d="M42.6094,14H31V2.3916c0-0.835,0.6807-1.5146,1.5171-1.5146c0.4014,0,0.7803,0.1572,1.0669,0.4443
			L43.6797,11.416c0.4346,0.4346,0.563,1.082,0.3276,1.6494C43.7725,13.6328,43.2236,14,42.6094,14L42.6094,14z M33,12h8.4356
			L33,3.5654V12L33,12z"/>
	</g>
	<g>
		<g>
			<path fill="#3D3437" d="M28.2148,39.1074h-12c-0.5522,0-1-0.4472-1-1c0-0.5527,0.4478-1,1-1h12c0.5522,0,1,0.4473,1,1
				C29.2148,38.6602,28.7671,39.1074,28.2148,39.1074L28.2148,39.1074z"/>
		</g>
		<g>
			<path fill="#3D3437" d="M30.2647,36.418c-0.3389,0-0.669-0.1719-0.8569-0.4825l-6.2461-10.3359
				c-0.2856-0.4726-0.1338-1.0879,0.3389-1.373c0.4712-0.2862,1.0869-0.1348,1.373,0.3379l6.2461,10.3359
				c0.2856,0.4726,0.1338,1.0879-0.3389,1.373C30.6191,36.3711,30.4409,36.418,30.2647,36.418L30.2647,36.418z"/>
		</g>
		<g>
			<path fill="#3D3437" d="M14.1709,35.9648c-0.1846,0-0.3711-0.0507-0.5381-0.1572c-0.4653-0.2978-0.6011-0.917-0.3032-1.3818
				l6.3242-9.8828c0.2979-0.4639,0.9155-0.6006,1.3814-0.3037c0.4653,0.2978,0.601,0.917,0.3032,1.3818l-6.3242,9.8828
				C14.8232,35.8018,14.5005,35.9648,14.1709,35.9648L14.1709,35.9648z"/>
		</g>
		<g>
			<circle fill="#9C705D" cx="31.9282" cy="38.1074" r="3.1431"/>
			<path fill="#3D3437" d="M31.9287,42.25c-2.2847,0-4.1436-1.8584-4.1436-4.1426c0-2.2842,1.8589-4.1426,4.1436-4.1426
				c2.2842,0,4.1426,1.8584,4.1426,4.1426C36.0713,40.3916,34.2129,42.25,31.9287,42.25L31.9287,42.25z M31.9287,35.9648
				c-1.1821,0-2.1436,0.961-2.1436,2.1426c0,1.1817,0.9614,2.1426,2.1436,2.1426c1.1816,0,2.1426-0.9609,2.1426-2.1426
				C34.0713,36.9258,33.1104,35.9648,31.9287,35.9648L31.9287,35.9648z"/>
		</g>
		<g>
			<circle fill="#9C705D" cx="13.0718" cy="38.1074" r="3.143"/>
			<path fill="#3D3437" d="M13.0713,42.25c-2.2842,0-4.1426-1.8584-4.1426-4.1426c0-2.2842,1.8584-4.1426,4.1426-4.1426
				c2.2847,0,4.1435,1.8584,4.1435,4.1426C17.2148,40.3916,15.356,42.25,13.0713,42.25L13.0713,42.25z M13.0713,35.9648
				c-1.1817,0-2.1426,0.961-2.1426,2.1426c0,1.1817,0.9609,2.1426,2.1426,2.1426c1.1821,0,2.1435-0.9609,2.1435-2.1426
				C15.2148,36.9258,14.2534,35.9648,13.0713,35.9648L13.0713,35.9648z"/>
		</g>
		<g>
			<circle fill="#9C705D" cx="22.5" cy="22.3926" r="3.1436"/>
			<path fill="#3D3437" d="M22.5,26.5352c-2.2847,0-4.1436-1.8584-4.1436-4.1426c0-2.2842,1.8589-4.1426,4.1436-4.1426
				s4.1436,1.8584,4.1436,4.1426C26.6436,24.6768,24.7847,26.5352,22.5,26.5352L22.5,26.5352z M22.5,20.25
				c-1.1821,0-2.1436,0.9609-2.1436,2.1426s0.9615,2.1426,2.1436,2.1426s2.1436-0.961,2.1436-2.1426S23.6821,20.25,22.5,20.25
				L22.5,20.25z"/>
		</g>
	</g>
</g>
</svg>
