<?xml version="1.0" encoding="utf-8"?>
<!-- Generator: Adobe Illustrator 17.1.0, SVG Export Plug-In . SVG Version: 6.00 Build 0)  -->
<!DOCTYPE svg PUBLIC "-//W3C//DTD SVG 1.1//EN" "http://www.w3.org/Graphics/SVG/1.1/DTD/svg11.dtd">
<svg version="1.1" id="webdesign" xmlns="http://www.w3.org/2000/svg" xmlns:xlink="http://www.w3.org/1999/xlink" x="0px" y="0px"
	 viewBox="0 0 54 54" enable-background="new 0 0 54 54" xml:space="preserve">
<g id="webdesign-webdesign">
	<g>
		<g>
			<rect x="1" y="1" fill="#FFFFFF" width="52" height="52"/>
			<path fill="#3D3437" d="M53,54H1c-0.5527,0-1-0.4473-1-1V1c0-0.5527,0.4473-1,1-1h52c0.5527,0,1,0.4473,1,1v52
				C54,53.5527,53.5527,54,53,54L53,54z M2,52h50V2H2V52L2,52z"/>
		</g>
		<g>
			<path fill="#3D3437" d="M52.1035,10.9658H1.8965c-0.5527,0-1-0.4472-1-1c0-0.5527,0.4473-1,1-1h50.207c0.5528,0,1,0.4473,1,1
				C53.1035,10.5186,52.6563,10.9658,52.1035,10.9658L52.1035,10.9658z"/>
		</g>
		<path fill="#3D3437" d="M8.5508,5.4824c0,0.6201-0.5,1.1211-1.1211,1.1211c-0.6172,0-1.1201-0.501-1.1201-1.1211
			c0-0.6191,0.5029-1.1201,1.1201-1.1201C8.0508,4.3623,8.5508,4.8633,8.5508,5.4824"/>
		<path fill="#3D3437" d="M13.0332,5.4824c0,0.6201-0.5,1.1211-1.1191,1.1211c-0.6192,0-1.1211-0.501-1.1211-1.1211
			c0-0.6191,0.5019-1.1201,1.1211-1.1201C12.5332,4.3623,13.0332,4.8633,13.0332,5.4824"/>
		<path fill="#3D3437" d="M17.5166,5.4824c0,0.6201-0.501,1.1211-1.1211,1.1211c-0.6182,0-1.1201-0.501-1.1201-1.1211
			c0-0.6191,0.5019-1.1201,1.1201-1.1201C17.0156,4.3623,17.5166,4.8633,17.5166,5.4824"/>
	</g>
	<g>
		<polygon fill="#3D3437" points="49.6914,6.3496 21.3281,6.3496 21.3281,4.3496 49.6914,4.3496 49.6914,6.3496 		"/>
	</g>
	<g>
		<rect x="4.3096" y="13.3379" fill="#9C705D" width="45.3818" height="10.8916"/>
		<rect x="4.3096" y="26.0449" fill="#CB9D62" width="21.7832" height="23.5987"/>
		<rect x="27.9082" y="26.0449" fill="#95BCA7" width="21.7832" height="23.5987"/>
	</g>
</g>
</svg>
