<?xml version="1.0" encoding="utf-8"?>
<!-- Generator: Adobe Illustrator 17.1.0, SVG Export Plug-In . SVG Version: 6.00 Build 0)  -->
<!DOCTYPE svg PUBLIC "-//W3C//DTD SVG 1.1//EN" "http://www.w3.org/Graphics/SVG/1.1/DTD/svg11.dtd">
<svg version="1.1" id="wireframe" xmlns="http://www.w3.org/2000/svg" xmlns:xlink="http://www.w3.org/1999/xlink" x="0px" y="0px"
	 viewBox="0 0 55.001 55" enable-background="new 0 0 55.001 55" xml:space="preserve">
<g id="wireframe-wireframe">
	<rect x="4.4199" y="4.4199" fill="#95BCA7" width="46.1612" height="46.1602"/>
	<rect x="1" y="1" fill="#FFFFFF" width="6.8384" height="6.8389"/>
	<rect x="47.1626" y="1" fill="#FFFFFF" width="6.8384" height="6.8389"/>
	<rect x="1" y="47.1611" fill="#FFFFFF" width="6.8384" height="6.8389"/>
	<rect x="47.1626" y="47.1611" fill="#FFFFFF" width="6.8384" height="6.8389"/>
	<g>
		<path fill="#3D3437" d="M7.8384,8.8389H1c-0.5522,0-1-0.4473-1-1V1c0-0.5527,0.4478-1,1-1h6.8384c0.5522,0,1,0.4473,1,1v6.8389
			C8.8384,8.3916,8.3906,8.8389,7.8384,8.8389L7.8384,8.8389z M2,6.8389h4.8384V2H2V6.8389L2,6.8389z"/>
	</g>
	<g>
		<path fill="#3D3437" d="M54.001,8.8389h-6.8384c-0.5522,0-1-0.4473-1-1V1c0-0.5527,0.4478-1,1-1h6.8384c0.5522,0,1,0.4473,1,1
			v6.8389C55.001,8.3916,54.5532,8.8389,54.001,8.8389L54.001,8.8389z M48.1626,6.8389h4.8384V2h-4.8384V6.8389L48.1626,6.8389z"/>
	</g>
	<g>
		<path fill="#3D3437" d="M7.8384,55H1c-0.5522,0-1-0.4473-1-1v-6.8389c0-0.5527,0.4478-1,1-1h6.8384c0.5522,0,1,0.4473,1,1V54
			C8.8384,54.5527,8.3906,55,7.8384,55L7.8384,55z M2,53h4.8384v-4.8389H2V53L2,53z"/>
	</g>
	<g>
		<path fill="#3D3437" d="M54.001,55h-6.8384c-0.5522,0-1-0.4473-1-1v-6.8389c0-0.5527,0.4478-1,1-1h6.8384c0.5522,0,1,0.4473,1,1
			V54C55.001,54.5527,54.5532,55,54.001,55L54.001,55z M48.1626,53h4.8384v-4.8389h-4.8384V53L48.1626,53z"/>
	</g>
	<g>
		<polygon fill="#3D3437" points="13.8233,5.4199 10.4033,5.4199 10.4033,3.4199 13.8233,3.4199 13.8233,5.4199 		"/>
	</g>
	<g>
		<polygon fill="#3D3437" points="18.9517,5.4199 15.5318,5.4199 15.5318,3.4199 18.9517,3.4199 18.9517,5.4199 		"/>
	</g>
	<g>
		<polygon fill="#3D3437" points="24.0806,5.4199 20.6616,5.4199 20.6616,3.4199 24.0806,3.4199 24.0806,5.4199 		"/>
	</g>
	<g>
		<polygon fill="#3D3437" points="29.2105,5.4199 25.7905,5.4199 25.7905,3.4199 29.2105,3.4199 29.2105,5.4199 		"/>
	</g>
	<g>
		<polygon fill="#3D3437" points="34.3394,5.4199 30.9204,5.4199 30.9204,3.4199 34.3394,3.4199 34.3394,5.4199 		"/>
	</g>
	<g>
		<polygon fill="#3D3437" points="39.4683,5.4199 36.0493,5.4199 36.0493,3.4199 39.4683,3.4199 39.4683,5.4199 		"/>
	</g>
	<g>
		<polygon fill="#3D3437" points="44.5977,5.4199 41.1777,5.4199 41.1777,3.4199 44.5977,3.4199 44.5977,5.4199 		"/>
	</g>
	<g>
		<polygon fill="#3D3437" points="13.8233,51.5801 10.4033,51.5801 10.4033,49.5801 13.8233,49.5801 13.8233,51.5801 		"/>
	</g>
	<g>
		<polygon fill="#3D3437" points="18.9517,51.5801 15.5318,51.5801 15.5318,49.5801 18.9517,49.5801 18.9517,51.5801 		"/>
	</g>
	<g>
		<polygon fill="#3D3437" points="24.0806,51.5801 20.6616,51.5801 20.6616,49.5801 24.0806,49.5801 24.0806,51.5801 		"/>
	</g>
	<g>
		<polygon fill="#3D3437" points="29.2105,51.5801 25.7905,51.5801 25.7905,49.5801 29.2105,49.5801 29.2105,51.5801 		"/>
	</g>
	<g>
		<polygon fill="#3D3437" points="34.3394,51.5801 30.9204,51.5801 30.9204,49.5801 34.3394,49.5801 34.3394,51.5801 		"/>
	</g>
	<g>
		<polygon fill="#3D3437" points="39.4683,51.5801 36.0493,51.5801 36.0493,49.5801 39.4683,49.5801 39.4683,51.5801 		"/>
	</g>
	<g>
		<polygon fill="#3D3437" points="44.5977,51.5801 41.1777,51.5801 41.1777,49.5801 44.5977,49.5801 44.5977,51.5801 		"/>
	</g>
	<g>
		<polygon fill="#3D3437" points="51.5811,13.8223 49.5811,13.8223 49.5811,10.4023 51.5811,10.4023 51.5811,13.8223 		"/>
	</g>
	<g>
		<polygon fill="#3D3437" points="51.5811,18.9512 49.5811,18.9512 49.5811,15.5312 51.5811,15.5312 51.5811,18.9512 		"/>
	</g>
	<g>
		<polygon fill="#3D3437" points="51.5811,24.0801 49.5811,24.0801 49.5811,20.6611 51.5811,20.6611 51.5811,24.0801 		"/>
	</g>
	<g>
		<polygon fill="#3D3437" points="51.5811,29.21 49.5811,29.21 49.5811,25.79 51.5811,25.79 51.5811,29.21 		"/>
	</g>
	<g>
		<polygon fill="#3D3437" points="51.5811,34.3389 49.5811,34.3389 49.5811,30.9199 51.5811,30.9199 51.5811,34.3389 		"/>
	</g>
	<g>
		<polygon fill="#3D3437" points="51.5811,39.4678 49.5811,39.4678 49.5811,36.0488 51.5811,36.0488 51.5811,39.4678 		"/>
	</g>
	<g>
		<polygon fill="#3D3437" points="51.5811,44.5977 49.5811,44.5977 49.5811,41.1777 51.5811,41.1777 51.5811,44.5977 		"/>
	</g>
	<g>
		<polygon fill="#3D3437" points="5.4199,13.8223 3.4199,13.8223 3.4199,10.4023 5.4199,10.4023 5.4199,13.8223 		"/>
	</g>
	<g>
		<polygon fill="#3D3437" points="5.4199,18.9512 3.4199,18.9512 3.4199,15.5312 5.4199,15.5312 5.4199,18.9512 		"/>
	</g>
	<g>
		<polygon fill="#3D3437" points="5.4199,24.0801 3.4199,24.0801 3.4199,20.6611 5.4199,20.6611 5.4199,24.0801 		"/>
	</g>
	<g>
		<polygon fill="#3D3437" points="5.4199,29.21 3.4199,29.21 3.4199,25.79 5.4199,25.79 5.4199,29.21 		"/>
	</g>
	<g>
		<polygon fill="#3D3437" points="5.4199,34.3389 3.4199,34.3389 3.4199,30.9199 5.4199,30.9199 5.4199,34.3389 		"/>
	</g>
	<g>
		<polygon fill="#3D3437" points="5.4199,39.4678 3.4199,39.4678 3.4199,36.0488 5.4199,36.0488 5.4199,39.4678 		"/>
	</g>
	<g>
		<polygon fill="#3D3437" points="5.4199,44.5977 3.4199,44.5977 3.4199,41.1777 5.4199,41.1777 5.4199,44.5977 		"/>
	</g>
</g>
</svg>
